STARTFONT 2.1
COMMENT
COMMENT Converted from OpenType font "ipag.ttf" by "..\otf2bdf.exe 3.0".
COMMENT
FONT -FreeType-IPAGothic-Medium-R-Normal--28-280-72-72-P-242-ISO10646-1
SIZE 28 72 72
FONTBOUNDINGBOX 28 29 0 -4
STARTPROPERTIES 19
FOUNDRY "FreeType"
FAMILY_NAME "IPAGothic"
WEIGHT_NAME "Medium"
SLANT "R"
SETWIDTH_NAME "Normal"
ADD_STYLE_NAME ""
PIXEL_SIZE 28
POINT_SIZE 280
RESOLUTION_X 72
RESOLUTION_Y 72
SPACING "P"
AVERAGE_WIDTH 242
CHARSET_REGISTRY "ISO10646"
CHARSET_ENCODING "1"
FONT_ASCENT 24
FONT_DESCENT 3
COPYRIGHT "Copyright(c) Information-technology Promotion Agency, Japan (IPA), 2003-2011. You must accept "http://ipafont.ipa.go.jp/ipa_font_license_v1.html" to use this product."
_OTF_FONTFILE "ipag.ttf"
_OTF_PSNAME "IPAGothic"
ENDPROPERTIES
CHARS 11158
STARTCHAR 0020
ENCODING 32
SWIDTH 500 0
DWIDTH 14 0
BBX 0 0 0 0
BITMAP
ENDCHAR
STARTCHAR 0021
ENCODING 33
SWIDTH 500 0
DWIDTH 14 0
BBX 3 22 5 0
BITMAP
E0
E0
E0
E0
E0
E0
E0
E0
E0
E0
E0
E0
E0
E0
E0
E0
E0
00
00
E0
E0
E0
ENDCHAR
STARTCHAR 0022
ENCODING 34
SWIDTH 500 0
DWIDTH 14 0
BBX 9 7 2 16
BITMAP
F780
F780
F780
3180
6300
6300
C600
ENDCHAR
STARTCHAR 0023
ENCODING 35
SWIDTH 500 0
DWIDTH 14 0
BBX 12 23 1 -1
BITMAP
0840
1840
18C0
18C0
18C0
7FF0
7FF0
18C0
18C0
10C0
1080
3180
3180
3180
3180
FFE0
FFE0
3180
3180
2180
2100
6300
6300
ENDCHAR
STARTCHAR 0024
ENCODING 36
SWIDTH 500 0
DWIDTH 14 0
BBX 12 24 1 -1
BITMAP
0600
0600
1F80
7FC0
E6E0
C660
C660
C600
6600
3E00
1E00
0700
07C0
06E0
0670
C630
C630
E630
6670
7FE0
3FC0
0600
0600
0600
ENDCHAR
STARTCHAR 0025
ENCODING 37
SWIDTH 500 0
DWIDTH 14 0
BBX 12 25 1 -2
BITMAP
0030
3030
7820
CC60
8440
84C0
84C0
8580
8580
CF00
7B00
3200
0600
04C0
0DE0
0F30
1A10
1A10
3210
3210
2210
6330
41E0
C0C0
C000
ENDCHAR
STARTCHAR 0026
ENCODING 38
SWIDTH 500 0
DWIDTH 14 0
BBX 12 20 1 1
BITMAP
0F00
1F80
39C0
30C0
30C0
30C0
3180
1F00
1E00
3C00
7630
6630
C330
C1E0
C1E0
C0E0
61E0
7FE0
1F30
0030
ENDCHAR
STARTCHAR 0027
ENCODING 39
SWIDTH 500 0
DWIDTH 14 0
BBX 4 7 2 16
BITMAP
F0
F0
F0
30
60
60
C0
ENDCHAR
STARTCHAR 0028
ENCODING 40
SWIDTH 500 0
DWIDTH 14 0
BBX 7 25 4 -2
BITMAP
06
0C
1C
18
30
30
60
60
E0
C0
C0
C0
C0
C0
C0
C0
C0
60
60
30
30
18
18
0C
06
ENDCHAR
STARTCHAR 0029
ENCODING 41
SWIDTH 500 0
DWIDTH 14 0
BBX 7 25 3 -2
BITMAP
C0
60
70
30
18
18
0C
0C
0E
06
06
06
06
06
06
06
0E
0C
0C
18
18
30
70
60
C0
ENDCHAR
STARTCHAR 002A
ENCODING 42
SWIDTH 500 0
DWIDTH 14 0
BBX 12 14 1 4
BITMAP
0600
0600
0600
C630
E670
3BC0
0F00
0F00
3DC0
76E0
E670
C630
0600
0600
ENDCHAR
STARTCHAR 002B
ENCODING 43
SWIDTH 500 0
DWIDTH 14 0
BBX 12 17 1 2
BITMAP
0600
0600
0600
0600
0600
0600
0600
FFF0
FFF0
0600
0600
0600
0600
0600
0600
0600
0600
ENDCHAR
STARTCHAR 002C
ENCODING 44
SWIDTH 500 0
DWIDTH 14 0
BBX 4 8 2 -3
BITMAP
70
70
70
60
E0
E0
C0
C0
ENDCHAR
STARTCHAR 002D
ENCODING 45
SWIDTH 500 0
DWIDTH 14 0
BBX 12 2 1 10
BITMAP
FFF0
FFF0
ENDCHAR
STARTCHAR 002E
ENCODING 46
SWIDTH 500 0
DWIDTH 14 0
BBX 3 4 3 0
BITMAP
E0
E0
E0
E0
ENDCHAR
STARTCHAR 002F
ENCODING 47
SWIDTH 500 0
DWIDTH 14 0
BBX 12 25 1 -1
BITMAP
0010
0030
0020
0060
0040
00C0
0080
0080
0100
0100
0300
0200
0600
0400
0C00
0800
1800
1000
3000
2000
2000
4000
4000
C000
8000
ENDCHAR
STARTCHAR 0030
ENCODING 48
SWIDTH 500 0
DWIDTH 14 0
BBX 10 19 2 2
BITMAP
1E00
3F00
7180
6180
E1C0
C2C0
C2C0
C6C0
C4C0
CCC0
C8C0
D8C0
D0C0
D0C0
E1C0
6180
6380
3F00
1E00
ENDCHAR
STARTCHAR 0031
ENCODING 49
SWIDTH 500 0
DWIDTH 14 0
BBX 6 20 3 1
BITMAP
0C
3C
FC
EC
0C
0C
0C
0C
0C
0C
0C
0C
0C
0C
0C
0C
0C
0C
0C
0C
ENDCHAR
STARTCHAR 0032
ENCODING 50
SWIDTH 500 0
DWIDTH 14 0
BBX 12 20 1 1
BITMAP
0F80
1FE0
3860
7030
6030
6030
0030
0070
0060
01C0
03C0
0700
0E00
1C00
1800
3000
7000
6000
7FF0
FFF0
ENDCHAR
STARTCHAR 0033
ENCODING 51
SWIDTH 500 0
DWIDTH 14 0
BBX 12 19 1 2
BITMAP
1F00
3FC0
70C0
6060
0060
0060
0060
00C0
0F80
0F80
00E0
0060
0030
0030
0030
E070
70E0
3FC0
1F80
ENDCHAR
STARTCHAR 0034
ENCODING 52
SWIDTH 500 0
DWIDTH 14 0
BBX 12 20 1 1
BITMAP
01C0
01C0
03C0
03C0
06C0
0EC0
0CC0
18C0
18C0
30C0
70C0
60C0
C0C0
FFF0
FFF0
00C0
00C0
00C0
00C0
00C0
ENDCHAR
STARTCHAR 0035
ENCODING 53
SWIDTH 500 0
DWIDTH 14 0
BBX 11 19 2 2
BITMAP
7FC0
7FC0
6000
6000
E000
E000
CF00
DF80
F1C0
E0C0
C0E0
0060
0060
0060
0060
C0C0
E1C0
7F80
3F00
ENDCHAR
STARTCHAR 0036
ENCODING 54
SWIDTH 500 0
DWIDTH 14 0
BBX 12 19 1 2
BITMAP
0F80
1FC0
38E0
7060
6000
6000
E000
E780
DFC0
F0E0
E070
C030
C030
C030
4030
6060
30E0
3FC0
0F80
ENDCHAR
STARTCHAR 0037
ENCODING 55
SWIDTH 500 0
DWIDTH 14 0
BBX 12 20 1 1
BITMAP
FFF0
FFF0
0070
0060
00E0
00C0
00C0
01C0
0180
0380
0380
0300
0700
0700
0600
0E00
0E00
0C00
1C00
1C00
ENDCHAR
STARTCHAR 0038
ENCODING 56
SWIDTH 500 0
DWIDTH 14 0
BBX 12 19 1 2
BITMAP
0F00
3FC0
30C0
6060
6060
6060
6060
30C0
1F80
3FC0
70E0
E070
C030
C030
C030
E070
70E0
3FC0
1F80
ENDCHAR
STARTCHAR 0039
ENCODING 57
SWIDTH 500 0
DWIDTH 14 0
BBX 11 19 2 2
BITMAP
1F00
3F80
71C0
E0C0
C040
C060
C060
C060
E0E0
71E0
7F60
1E60
00E0
00E0
00C0
C0C0
E1C0
7F80
1E00
ENDCHAR
STARTCHAR 003A
ENCODING 58
SWIDTH 500 0
DWIDTH 14 0
BBX 3 14 5 1
BITMAP
E0
E0
E0
00
00
00
00
00
00
00
00
E0
E0
E0
ENDCHAR
STARTCHAR 003B
ENCODING 59
SWIDTH 500 0
DWIDTH 14 0
BBX 4 17 4 -3
BITMAP
70
70
70
00
00
00
00
00
00
00
70
70
60
60
E0
C0
C0
ENDCHAR
STARTCHAR 003C
ENCODING 60
SWIDTH 500 0
DWIDTH 14 0
BBX 12 22 1 0
BITMAP
0010
0030
0070
00E0
01C0
0380
0700
0E00
1C00
3800
7000
E000
7000
1800
0C00
0600
0300
0180
00C0
0060
0030
0010
ENDCHAR
STARTCHAR 003D
ENCODING 61
SWIDTH 500 0
DWIDTH 14 0
BBX 12 7 1 7
BITMAP
FFF0
FFF0
0000
0000
0000
FFF0
FFF0
ENDCHAR
STARTCHAR 003E
ENCODING 62
SWIDTH 500 0
DWIDTH 14 0
BBX 12 22 1 0
BITMAP
8000
C000
E000
7000
3800
1C00
0E00
0700
0380
01C0
00E0
0070
00E0
01C0
0300
0600
0C00
1800
3000
6000
C000
8000
ENDCHAR
STARTCHAR 003F
ENCODING 63
SWIDTH 500 0
DWIDTH 14 0
BBX 11 22 1 0
BITMAP
1F00
3FC0
70C0
6060
E060
C060
C060
00C0
00C0
0180
0300
0700
0600
0600
0E00
0E00
0E00
0000
0000
0E00
0E00
0E00
ENDCHAR
STARTCHAR 0040
ENCODING 64
SWIDTH 500 0
DWIDTH 14 0
BBX 12 21 1 0
BITMAP
0F00
1FC0
30C0
6060
4020
47B0
8F90
8890
9890
9090
9090
9090
9190
91A0
9FE0
4EC0
4000
6020
30E0
3FC0
0F80
ENDCHAR
STARTCHAR 0041
ENCODING 65
SWIDTH 500 0
DWIDTH 14 0
BBX 12 20 1 1
BITMAP
0F00
0F00
0F00
0F00
1980
1980
1980
1980
39C0
30C0
30C0
3FC0
7FE0
6060
6060
6060
E070
E070
C030
C030
ENDCHAR
STARTCHAR 0042
ENCODING 66
SWIDTH 500 0
DWIDTH 14 0
BBX 11 20 2 1
BITMAP
FE00
FF80
C180
C0C0
C0C0
C0C0
C0C0
C180
FF00
FF00
C1C0
C0C0
C060
C060
C060
C060
C0E0
C1C0
FF80
FF00
ENDCHAR
STARTCHAR 0043
ENCODING 67
SWIDTH 500 0
DWIDTH 14 0
BBX 12 19 1 2
BITMAP
0F00
3FC0
31C0
60E0
6060
C060
C000
C000
C000
C000
C000
C000
C000
C070
6060
6060
30E0
3FC0
0F00
ENDCHAR
STARTCHAR 0044
ENCODING 68
SWIDTH 500 0
DWIDTH 14 0
BBX 11 20 1 1
BITMAP
FE00
FF00
6380
60C0
60C0
60E0
6060
6060
6060
6060
6060
6060
6060
6060
60E0
60C0
61C0
6380
FF00
FE00
ENDCHAR
STARTCHAR 0045
ENCODING 69
SWIDTH 500 0
DWIDTH 14 0
BBX 10 20 2 1
BITMAP
FFC0
FFC0
C000
C000
C000
C000
C000
C000
FF80
FF80
C000
C000
C000
C000
C000
C000
C000
C000
FFC0
FFC0
ENDCHAR
STARTCHAR 0046
ENCODING 70
SWIDTH 500 0
DWIDTH 14 0
BBX 10 20 2 1
BITMAP
FFC0
FFC0
C000
C000
C000
C000
C000
C000
FF80
FF80
C000
C000
C000
C000
C000
C000
C000
C000
C000
C000
ENDCHAR
STARTCHAR 0047
ENCODING 71
SWIDTH 500 0
DWIDTH 14 0
BBX 11 20 2 1
BITMAP
0F00
3F80
71C0
60C0
60C0
C0E0
C000
C000
C000
C000
C3E0
C3E0
C060
C0E0
60E0
60E0
71E0
3F60
1E60
0060
ENDCHAR
STARTCHAR 0048
ENCODING 72
SWIDTH 500 0
DWIDTH 14 0
BBX 10 20 2 1
BITMAP
C0C0
C0C0
C0C0
C0C0
C0C0
C0C0
C0C0
C0C0
FFC0
FFC0
C0C0
C0C0
C0C0
C0C0
C0C0
C0C0
C0C0
C0C0
C0C0
C0C0
ENDCHAR
STARTCHAR 0049
ENCODING 73
SWIDTH 500 0
DWIDTH 14 0
BBX 8 20 3 1
BITMAP
FF
FF
18
18
18
18
18
18
18
18
18
18
18
18
18
18
18
18
FF
FF
ENDCHAR
STARTCHAR 004A
ENCODING 74
SWIDTH 500 0
DWIDTH 14 0
BBX 10 19 1 2
BITMAP
00C0
00C0
00C0
00C0
00C0
00C0
00C0
00C0
00C0
00C0
00C0
00C0
00C0
00C0
E0C0
60C0
71C0
7F80
1F00
ENDCHAR
STARTCHAR 004B
ENCODING 75
SWIDTH 500 0
DWIDTH 14 0
BBX 11 20 2 1
BITMAP
C1C0
C1C0
C380
C300
C700
CE00
CC00
DC00
DC00
FC00
F600
E600
C700
C300
C380
C180
C1C0
C1C0
C0C0
C0E0
ENDCHAR
STARTCHAR 004C
ENCODING 76
SWIDTH 500 0
DWIDTH 14 0
BBX 11 20 2 1
BITMAP
C000
C000
C000
C000
C000
C000
C000
C000
C000
C000
C000
C000
C000
C000
C000
C000
C000
C000
FFE0
FFE0
ENDCHAR
STARTCHAR 004D
ENCODING 77
SWIDTH 500 0
DWIDTH 14 0
BBX 12 20 1 1
BITMAP
E070
E070
E070
F0F0
F0F0
F0F0
F0F0
D0B0
D1B0
D9B0
D9B0
D9B0
D9B0
CB30
CF30
CF30
CF30
CF30
C630
C630
ENDCHAR
STARTCHAR 004E
ENCODING 78
SWIDTH 500 0
DWIDTH 14 0
BBX 10 20 2 1
BITMAP
E0C0
E0C0
E0C0
F0C0
F0C0
D0C0
D8C0
D8C0
C8C0
CCC0
CCC0
C4C0
C6C0
C6C0
C2C0
C3C0
C3C0
C1C0
C1C0
C1C0
ENDCHAR
STARTCHAR 004F
ENCODING 79
SWIDTH 500 0
DWIDTH 14 0
BBX 12 19 1 2
BITMAP
0F00
3FC0
30C0
6060
6060
C030
C030
C030
C030
C030
C030
C030
C030
C030
6060
6060
30C0
3FC0
0F00
ENDCHAR
STARTCHAR 0050
ENCODING 80
SWIDTH 500 0
DWIDTH 14 0
BBX 11 20 2 1
BITMAP
FF00
FF80
C1C0
C0E0
C060
C060
C060
C0E0
C1C0
FF80
FE00
C000
C000
C000
C000
C000
C000
C000
C000
C000
ENDCHAR
STARTCHAR 0051
ENCODING 81
SWIDTH 500 0
DWIDTH 14 0
BBX 12 21 1 -1
BITMAP
0F00
3FC0
30C0
6060
6060
C030
C030
C030
C030
C030
C030
C030
C030
C230
6760
6360
31E0
3FC0
0FC0
00C0
00C0
ENDCHAR
STARTCHAR 0052
ENCODING 82
SWIDTH 500 0
DWIDTH 14 0
BBX 11 20 2 1
BITMAP
FE00
FF80
C180
C0C0
C0C0
C0C0
C0C0
C380
FF80
FE00
C600
C700
C300
C300
C380
C180
C1C0
C1C0
C0C0
C0E0
ENDCHAR
STARTCHAR 0053
ENCODING 83
SWIDTH 500 0
DWIDTH 14 0
BBX 12 19 1 2
BITMAP
0F80
3FC0
70E0
6060
6060
6000
3000
3800
1C00
0700
01C0
0060
0060
0030
E030
6030
7070
3FE0
1FC0
ENDCHAR
STARTCHAR 0054
ENCODING 84
SWIDTH 500 0
DWIDTH 14 0
BBX 12 20 1 1
BITMAP
FFF0
FFF0
0600
0600
0600
0600
0600
0600
0600
0600
0600
0600
0600
0600
0600
0600
0600
0600
0600
0600
ENDCHAR
STARTCHAR 0055
ENCODING 85
SWIDTH 500 0
DWIDTH 14 0
BBX 10 19 2 2
BITMAP
C0C0
C0C0
C0C0
C0C0
C0C0
C0C0
C0C0
C0C0
C0C0
C0C0
C0C0
C0C0
C0C0
C0C0
C0C0
C0C0
6180
7F80
1E00
ENDCHAR
STARTCHAR 0056
ENCODING 86
SWIDTH 500 0
DWIDTH 14 0
BBX 12 20 1 1
BITMAP
E070
E070
6070
6060
6060
70E0
70E0
30C0
30C0
30C0
39C0
1980
1980
1980
1980
0F80
0F00
0F00
0F00
0F00
ENDCHAR
STARTCHAR 0057
ENCODING 87
SWIDTH 500 0
DWIDTH 14 0
BBX 12 20 1 1
BITMAP
C630
C630
C630
C630
CF30
CF30
CF30
CF30
6960
6960
6960
7960
79E0
79E0
79E0
79E0
70E0
30C0
30C0
30C0
ENDCHAR
STARTCHAR 0058
ENCODING 88
SWIDTH 500 0
DWIDTH 14 0
BBX 12 20 1 1
BITMAP
6060
70E0
30C0
39C0
1980
1F80
0F00
0F00
0F00
0F00
0F00
0F00
1F80
1980
39C0
30C0
70E0
70E0
6060
E070
ENDCHAR
STARTCHAR 0059
ENCODING 89
SWIDTH 500 0
DWIDTH 14 0
BBX 12 20 1 1
BITMAP
E070
6060
6060
70E0
30C0
39C0
1980
1980
1F80
0F00
0F00
0600
0600
0600
0600
0600
0600
0600
0600
0600
ENDCHAR
STARTCHAR 005A
ENCODING 90
SWIDTH 500 0
DWIDTH 14 0
BBX 10 20 2 1
BITMAP
FFC0
FFC0
01C0
0180
0380
0300
0700
0600
0E00
0C00
1C00
1800
1800
3000
3000
6000
6000
C000
FFC0
FFC0
ENDCHAR
STARTCHAR 005B
ENCODING 91
SWIDTH 500 0
DWIDTH 14 0
BBX 9 25 3 -2
BITMAP
FF80
FF80
C000
C000
C000
C000
C000
C000
C000
C000
C000
C000
C000
C000
C000
C000
C000
C000
C000
C000
C000
C000
C000
FF80
FF80
ENDCHAR
STARTCHAR 005C
ENCODING 92
SWIDTH 500 0
DWIDTH 14 0
BBX 12 20 1 1
BITMAP
C030
E070
70E0
30C0
39C0
1980
0F00
0F00
FFF0
FFF0
0600
0600
FFF0
FFF0
0600
0600
0600
0600
0600
0600
ENDCHAR
STARTCHAR 005D
ENCODING 93
SWIDTH 500 0
DWIDTH 14 0
BBX 9 25 2 -2
BITMAP
FF80
FF80
0180
0180
0180
0180
0180
0180
0180
0180
0180
0180
0180
0180
0180
0180
0180
0180
0180
0180
0180
0180
0180
FF80
FF80
ENDCHAR
STARTCHAR 005E
ENCODING 94
SWIDTH 500 0
DWIDTH 14 0
BBX 9 3 3 18
BITMAP
3C00
6600
C380
ENDCHAR
STARTCHAR 005F
ENCODING 95
SWIDTH 500 0
DWIDTH 14 0
BBX 0 0 0 -3
BITMAP
ENDCHAR
STARTCHAR 0060
ENCODING 96
SWIDTH 500 0
DWIDTH 14 0
BBX 6 3 4 18
BITMAP
E0
30
1C
ENDCHAR
STARTCHAR 0061
ENCODING 97
SWIDTH 500 0
DWIDTH 14 0
BBX 11 13 2 1
BITMAP
1F00
7F80
61C0
E0C0
00C0
0FC0
3FC0
60C0
C0C0
C0C0
C3C0
FFE0
3CE0
ENDCHAR
STARTCHAR 0062
ENCODING 98
SWIDTH 500 0
DWIDTH 14 0
BBX 10 20 2 1
BITMAP
C000
C000
C000
C000
C000
C000
DE00
FF80
F180
E0C0
C0C0
C0C0
C0C0
C0C0
C0C0
E1C0
F180
FF80
DE00
C000
ENDCHAR
STARTCHAR 0063
ENCODING 99
SWIDTH 500 0
DWIDTH 14 0
BBX 10 13 2 2
BITMAP
1F00
3F80
71C0
E0C0
C000
C000
C000
C000
C000
E0C0
61C0
3F80
1F00
ENDCHAR
STARTCHAR 0064
ENCODING 100
SWIDTH 500 0
DWIDTH 14 0
BBX 10 20 2 1
BITMAP
00C0
00C0
00C0
00C0
00C0
00C0
1EC0
7FC0
63C0
E1C0
C0C0
C0C0
C0C0
C0C0
C0C0
E1C0
E3C0
7FC0
3EC0
00C0
ENDCHAR
STARTCHAR 0065
ENCODING 101
SWIDTH 500 0
DWIDTH 14 0
BBX 10 13 2 2
BITMAP
1E00
3F80
6180
E1C0
C0C0
C0C0
FFC0
FFC0
C000
C0C0
61C0
3F80
1F00
ENDCHAR
STARTCHAR 0066
ENCODING 102
SWIDTH 500 0
DWIDTH 14 0
BBX 10 20 2 1
BITMAP
07C0
0FC0
0C00
0C00
0C00
0C00
FFC0
FFC0
0C00
0C00
0C00
0C00
0C00
0C00
0C00
0C00
0C00
0C00
0C00
0C00
ENDCHAR
STARTCHAR 0067
ENCODING 103
SWIDTH 500 0
DWIDTH 14 0
BBX 11 17 1 -2
BITMAP
1F60
3FE0
70E0
E060
C060
C060
C060
E0E0
71E0
3FE0
1F60
0060
0060
6060
70E0
3FC0
1F00
ENDCHAR
STARTCHAR 0068
ENCODING 104
SWIDTH 500 0
DWIDTH 14 0
BBX 10 20 2 1
BITMAP
C000
C000
C000
C000
C000
C000
CF00
FF80
F1C0
E0C0
C0C0
C0C0
C0C0
C0C0
C0C0
C0C0
C0C0
C0C0
C0C0
C0C0
ENDCHAR
STARTCHAR 0069
ENCODING 105
SWIDTH 500 0
DWIDTH 14 0
BBX 2 20 6 1
BITMAP
C0
C0
C0
00
00
00
C0
C0
C0
C0
C0
C0
C0
C0
C0
C0
C0
C0
C0
C0
ENDCHAR
STARTCHAR 006A
ENCODING 106
SWIDTH 500 0
DWIDTH 14 0
BBX 6 23 3 -3
BITMAP
0C
0C
0C
00
00
00
0C
0C
0C
0C
0C
0C
0C
0C
0C
0C
0C
0C
0C
0C
0C
FC
F8
ENDCHAR
STARTCHAR 006B
ENCODING 107
SWIDTH 500 0
DWIDTH 14 0
BBX 10 20 2 1
BITMAP
C000
C000
C000
C000
C000
C000
C380
C300
C600
CE00
DC00
FC00
FC00
E600
C600
C300
C380
C180
C1C0
C0C0
ENDCHAR
STARTCHAR 006C
ENCODING 108
SWIDTH 500 0
DWIDTH 14 0
BBX 5 19 6 1
BITMAP
C0
C0
C0
C0
C0
C0
C0
C0
C0
C0
C0
C0
C0
C0
C0
C0
C0
F8
78
ENDCHAR
STARTCHAR 006D
ENCODING 109
SWIDTH 500 0
DWIDTH 14 0
BBX 12 14 1 1
BITMAP
DDE0
FFF0
C730
C630
C630
C630
C630
C630
C630
C630
C630
C630
C630
C630
ENDCHAR
STARTCHAR 006E
ENCODING 110
SWIDTH 500 0
DWIDTH 14 0
BBX 10 14 2 1
BITMAP
CF00
FF80
F1C0
E0C0
C0C0
C0C0
C0C0
C0C0
C0C0
C0C0
C0C0
C0C0
C0C0
C0C0
ENDCHAR
STARTCHAR 006F
ENCODING 111
SWIDTH 500 0
DWIDTH 14 0
BBX 10 13 2 2
BITMAP
1E00
3F00
7180
E0C0
C0C0
C0C0
C0C0
C0C0
C0C0
E1C0
6380
3F00
1E00
ENDCHAR
STARTCHAR 0070
ENCODING 112
SWIDTH 500 0
DWIDTH 14 0
BBX 10 18 2 -3
BITMAP
DE00
FF80
F180
E1C0
C0C0
C0C0
C0C0
C0C0
C0C0
E0C0
F180
FF80
DE00
C000
C000
C000
C000
C000
ENDCHAR
STARTCHAR 0071
ENCODING 113
SWIDTH 500 0
DWIDTH 14 0
BBX 10 18 2 -3
BITMAP
1CC0
7FC0
63C0
C1C0
C0C0
C0C0
C0C0
C0C0
C0C0
E1C0
63C0
7FC0
1EC0
00C0
00C0
00C0
00C0
00C0
ENDCHAR
STARTCHAR 0072
ENCODING 114
SWIDTH 500 0
DWIDTH 14 0
BBX 7 14 4 2
BITMAP
C6
DE
FC
F0
E0
C0
C0
C0
C0
C0
C0
C0
C0
C0
ENDCHAR
STARTCHAR 0073
ENCODING 115
SWIDTH 500 0
DWIDTH 14 0
BBX 10 13 2 2
BITMAP
3E00
7F80
E180
C1C0
E000
7800
0F00
0180
00C0
C0C0
E1C0
7F80
3F00
ENDCHAR
STARTCHAR 0074
ENCODING 116
SWIDTH 500 0
DWIDTH 14 0
BBX 8 16 3 1
BITMAP
30
30
30
FF
FF
30
30
30
30
30
30
30
30
30
3F
1F
ENDCHAR
STARTCHAR 0075
ENCODING 117
SWIDTH 500 0
DWIDTH 14 0
BBX 10 14 2 1
BITMAP
C0C0
C0C0
C0C0
C0C0
C0C0
C0C0
C0C0
C0C0
C0C0
C0C0
E3C0
7FC0
3EC0
00C0
ENDCHAR
STARTCHAR 0076
ENCODING 118
SWIDTH 500 0
DWIDTH 14 0
BBX 10 14 2 1
BITMAP
C0C0
C0C0
C1C0
6180
6180
6180
7380
3300
3300
3700
1E00
1E00
1E00
0C00
ENDCHAR
STARTCHAR 0077
ENCODING 119
SWIDTH 500 0
DWIDTH 14 0
BBX 12 14 1 1
BITMAP
C630
C630
CF30
CF30
CF30
4F20
4960
6960
79E0
79E0
79E0
70E0
30C0
30C0
ENDCHAR
STARTCHAR 0078
ENCODING 120
SWIDTH 500 0
DWIDTH 14 0
BBX 12 14 1 1
BITMAP
70E0
30C0
1980
1980
0F00
0F00
0600
0F00
1F00
1980
39C0
30C0
70E0
E070
ENDCHAR
STARTCHAR 0079
ENCODING 121
SWIDTH 500 0
DWIDTH 14 0
BBX 11 17 1 -3
BITMAP
E060
60E0
70C0
30C0
30C0
3980
1980
1980
0F00
0F00
0F00
0600
0600
0E00
0C00
7C00
7800
ENDCHAR
STARTCHAR 007A
ENCODING 122
SWIDTH 500 0
DWIDTH 14 0
BBX 10 14 2 1
BITMAP
7FC0
7FC0
01C0
0380
0300
0600
0E00
1C00
1800
3800
7000
E000
FFC0
FFC0
ENDCHAR
STARTCHAR 007B
ENCODING 123
SWIDTH 500 0
DWIDTH 14 0
BBX 7 25 5 -1
BITMAP
0E
1E
30
30
30
30
30
30
30
30
70
E0
C0
60
30
30
30
30
30
30
30
30
38
1E
0E
ENDCHAR
STARTCHAR 007C
ENCODING 124
SWIDTH 500 0
DWIDTH 14 0
BBX 2 28 6 -3
BITMAP
C0
C0
C0
C0
C0
C0
C0
C0
C0
C0
C0
C0
C0
C0
C0
C0
C0
C0
C0
C0
C0
C0
C0
C0
C0
C0
C0
C0
ENDCHAR
STARTCHAR 007D
ENCODING 125
SWIDTH 500 0
DWIDTH 14 0
BBX 7 25 2 -1
BITMAP
E0
F0
38
18
18
18
18
18
18
18
18
0E
06
0C
18
18
18
18
18
18
18
18
38
F0
E0
ENDCHAR
STARTCHAR 007E
ENCODING 126
SWIDTH 500 0
DWIDTH 14 0
BBX 10 3 2 18
BITMAP
F840
FFC0
0780
ENDCHAR
STARTCHAR 00A0
ENCODING 160
SWIDTH 500 0
DWIDTH 14 0
BBX 0 0 0 0
BITMAP
ENDCHAR
STARTCHAR 00A1
ENCODING 161
SWIDTH 500 0
DWIDTH 14 0
BBX 3 22 5 0
BITMAP
E0
E0
E0
00
00
00
E0
E0
E0
E0
E0
E0
E0
E0
E0
E0
E0
E0
E0
E0
E0
E0
ENDCHAR
STARTCHAR 00A2
ENCODING 162
SWIDTH 1000 0
DWIDTH 28 0
BBX 14 21 7 1
BITMAP
0060
0060
0060
07C0
1FE0
38F0
61B8
6198
C180
C300
C300
C600
C600
E61C
6C18
3C78
1FF0
1FC0
1800
3000
3000
ENDCHAR
STARTCHAR 00A3
ENCODING 163
SWIDTH 1000 0
DWIDTH 28 0
BBX 18 20 5 1
BITMAP
00F000
03FC00
070E00
060E00
060600
060000
030000
3FFC00
3FFC00
018000
018000
018000
3D8000
7F8000
E780C0
C180C0
C1C0C0
E37180
7F3F80
3C0E00
ENDCHAR
STARTCHAR 00A4
ENCODING 164
SWIDTH 500 0
DWIDTH 14 0
BBX 10 9 2 7
BITMAP
C0C0
7F80
2100
4080
4080
4080
2100
7F80
C0C0
ENDCHAR
STARTCHAR 00A5
ENCODING 165
SWIDTH 1000 0
DWIDTH 28 0
BBX 16 20 6 1
BITMAP
E007
700E
301C
1818
1C38
0E70
07E0
FFFF
FFFF
0180
0180
0180
FFFF
FFFF
0180
0180
0180
0180
0180
0180
ENDCHAR
STARTCHAR 00A6
ENCODING 166
SWIDTH 500 0
DWIDTH 14 0
BBX 2 25 6 -2
BITMAP
C0
C0
C0
C0
C0
C0
C0
C0
C0
C0
C0
00
00
00
C0
C0
C0
C0
C0
C0
C0
C0
C0
C0
C0
ENDCHAR
STARTCHAR 00A7
ENCODING 167
SWIDTH 1000 0
DWIDTH 28 0
BBX 12 25 8 -2
BITMAP
0F80
3FC0
70E0
6060
6060
6000
7000
3800
3F00
63C0
C0E0
C070
C030
7030
3C60
1FE0
07C0
01C0
00E0
E060
E060
6060
70C0
3FC0
1F00
ENDCHAR
STARTCHAR 00A8
ENCODING 168
SWIDTH 1000 0
DWIDTH 28 0
BBX 10 3 9 18
BITMAP
E1C0
E1C0
E1C0
ENDCHAR
STARTCHAR 00A9
ENCODING 169
SWIDTH 500 0
DWIDTH 14 0
BBX 12 12 1 5
BITMAP
0F00
30C0
4F20
51A0
A090
A010
A010
A090
51B0
4F20
30C0
0F80
ENDCHAR
STARTCHAR 00AA
ENCODING 170
SWIDTH 500 0
DWIDTH 14 0
BBX 9 11 1 10
BITMAP
3E00
6300
0100
3F00
6100
8100
8100
8700
7D80
0000
FF00
ENDCHAR
STARTCHAR 00AB
ENCODING 171
SWIDTH 500 0
DWIDTH 14 0
BBX 9 12 3 2
BITMAP
1980
1900
3300
6600
4400
CC00
CC00
4400
6600
3300
1100
1980
ENDCHAR
STARTCHAR 00AC
ENCODING 172
SWIDTH 1000 0
DWIDTH 28 0
BBX 24 12 2 4
BITMAP
FFFFFF
FFFFFF
000003
000003
000003
000003
000003
000003
000003
000003
000003
000003
ENDCHAR
STARTCHAR 00AD
ENCODING 173
SWIDTH 500 0
DWIDTH 14 0
BBX 12 2 1 10
BITMAP
FFF0
FFF0
ENDCHAR
STARTCHAR 00AE
ENCODING 174
SWIDTH 500 0
DWIDTH 14 0
BBX 12 12 1 5
BITMAP
0F80
30C0
5F20
90B0
9090
9090
9F10
9310
5120
50A0
30C0
0F00
ENDCHAR
STARTCHAR 00AF
ENCODING 175
SWIDTH 500 0
DWIDTH 14 0
BBX 10 1 2 19
BITMAP
FFC0
ENDCHAR
STARTCHAR 00B0
ENCODING 176
SWIDTH 1000 0
DWIDTH 28 0
BBX 7 6 1 17
BITMAP
38
C6
82
82
C6
38
ENDCHAR
STARTCHAR 00B1
ENCODING 177
SWIDTH 1000 0
DWIDTH 28 0
BBX 20 20 4 1
BITMAP
006000
006000
006000
006000
006000
006000
FFFFF0
FFFFF0
006000
006000
006000
006000
006000
006000
006000
000000
000000
000000
FFFFF0
FFFFF0
ENDCHAR
STARTCHAR 00B2
ENCODING 178
SWIDTH 500 0
DWIDTH 14 0
BBX 7 10 1 14
BITMAP
3C
42
C2
02
06
1C
38
60
40
FE
ENDCHAR
STARTCHAR 00B3
ENCODING 179
SWIDTH 500 0
DWIDTH 14 0
BBX 7 10 2 13
BITMAP
78
C4
04
1C
38
06
02
82
C6
78
ENDCHAR
STARTCHAR 00B4
ENCODING 180
SWIDTH 1000 0
DWIDTH 28 0
BBX 6 3 11 18
BITMAP
1C
30
E0
ENDCHAR
STARTCHAR 00B6
ENCODING 182
SWIDTH 1000 0
DWIDTH 28 0
BBX 11 25 7 -2
BITMAP
1FE0
7E60
7E60
FE60
FE60
FE60
FE60
7E60
3E60
0E60
0660
0660
0660
0660
0660
0660
0660
0660
0660
0660
0660
0660
0660
0660
0660
ENDCHAR
STARTCHAR 00B7
ENCODING 183
SWIDTH 500 0
DWIDTH 14 0
BBX 4 4 5 9
BITMAP
F0
F0
F0
F0
ENDCHAR
STARTCHAR 00B8
ENCODING 184
SWIDTH 500 0
DWIDTH 14 0
BBX 7 6 4 -1
BITMAP
40
40
FC
02
82
FC
ENDCHAR
STARTCHAR 00B9
ENCODING 185
SWIDTH 500 0
DWIDTH 14 0
BBX 3 10 3 14
BITMAP
20
E0
A0
20
20
20
20
20
20
20
ENDCHAR
STARTCHAR 00BA
ENCODING 186
SWIDTH 500 0
DWIDTH 14 0
BBX 8 11 1 10
BITMAP
3C
42
83
81
81
81
83
42
3C
00
FF
ENDCHAR
STARTCHAR 00BB
ENCODING 187
SWIDTH 500 0
DWIDTH 14 0
BBX 9 12 2 2
BITMAP
CC00
4400
6600
3300
1100
1980
1980
1100
3300
6600
4C00
CC00
ENDCHAR
STARTCHAR 00BC
ENCODING 188
SWIDTH 500 0
DWIDTH 14 0
BBX 13 25 0 -2
BITMAP
1810
7810
5830
1820
1860
1840
1840
1880
1880
1980
1900
1B00
0270
0670
04F0
0CF0
09B0
09B0
1B30
1230
3630
27F8
6030
4030
C030
ENDCHAR
STARTCHAR 00BD
ENCODING 189
SWIDTH 500 0
DWIDTH 14 0
BBX 13 25 1 -2
BITMAP
3030
F020
B060
3040
30C0
30C0
3080
3180
3100
3300
3200
3600
04E0
0DF0
0B18
0B08
1808
1008
3010
2060
60C0
4180
C180
8300
83F8
ENDCHAR
STARTCHAR 00BE
ENCODING 190
SWIDTH 500 0
DWIDTH 14 0
BBX 13 25 1 -2
BITMAP
7810
4430
C430
0420
0860
3040
08C0
0480
0480
C580
C500
7B00
02E0
06E0
05E0
05E0
0F60
0B60
1E60
1460
3C60
2FF8
2060
6060
4060
ENDCHAR
STARTCHAR 00BF
ENCODING 191
SWIDTH 500 0
DWIDTH 14 0
BBX 11 22 2 0
BITMAP
0E00
0E00
0E00
0000
0000
0000
0E00
0E00
0E00
0C00
0C00
1C00
3800
7000
6000
C060
C060
C0E0
C0C0
61C0
7F80
1F00
ENDCHAR
STARTCHAR 00C0
ENCODING 192
SWIDTH 500 0
DWIDTH 14 0
BBX 12 23 1 1
BITMAP
0C00
0600
0000
0F00
0F00
0F00
0F00
1980
1980
1980
1980
39C0
30C0
30C0
3FC0
7FE0
6060
6060
6060
E070
E070
C030
C030
ENDCHAR
STARTCHAR 00C1
ENCODING 193
SWIDTH 500 0
DWIDTH 14 0
BBX 12 23 1 1
BITMAP
0300
0600
0000
0F00
0F00
0F00
0F00
1980
1980
1980
1980
39C0
30C0
30C0
3FC0
7FE0
6060
6060
6060
E070
E070
C030
C030
ENDCHAR
STARTCHAR 00C2
ENCODING 194
SWIDTH 500 0
DWIDTH 14 0
BBX 12 23 1 1
BITMAP
0F00
1980
0000
0F00
0F00
0F00
0F00
1980
1980
1980
1980
39C0
30C0
30C0
3FC0
7FE0
6060
6060
6060
E070
E070
C030
C030
ENDCHAR
STARTCHAR 00C3
ENCODING 195
SWIDTH 500 0
DWIDTH 14 0
BBX 12 23 1 1
BITMAP
1E00
0380
0000
0600
0F00
0F00
0F00
0900
1980
1980
1980
1980
30C0
30C0
3FC0
3FC0
70E0
6060
6060
6060
E070
E030
C030
ENDCHAR
STARTCHAR 00C4
ENCODING 196
SWIDTH 500 0
DWIDTH 14 0
BBX 12 23 1 1
BITMAP
39C0
39C0
0000
0600
0600
0F00
0F00
0F00
0900
1980
1980
1980
39C0
30C0
3FC0
3FC0
70E0
6060
6060
6060
E070
C030
C030
ENDCHAR
STARTCHAR 00C5
ENCODING 197
SWIDTH 500 0
DWIDTH 14 0
BBX 12 23 1 1
BITMAP
0E00
0900
0900
0600
0F00
0F00
0F00
0900
1980
1980
1980
3980
30C0
30C0
3FC0
7FC0
6060
6060
6060
E070
E070
C030
C030
ENDCHAR
STARTCHAR 00C6
ENCODING 198
SWIDTH 500 0
DWIDTH 14 0
BBX 12 20 1 1
BITMAP
0FF0
0FF0
0F00
0F00
1B00
1B00
1B00
1B00
33F0
33F0
3300
3F00
7F00
6300
6300
6300
E300
C300
C3F0
C3F0
ENDCHAR
STARTCHAR 00C7
ENCODING 199
SWIDTH 500 0
DWIDTH 14 0
BBX 12 24 1 -3
BITMAP
0F80
3FC0
30E0
6060
6070
C000
C000
C000
C000
C000
C000
C000
C000
C070
C070
6060
6060
39E0
1FC0
0F00
0400
0F80
0080
0F00
ENDCHAR
STARTCHAR 00C8
ENCODING 200
SWIDTH 500 0
DWIDTH 14 0
BBX 10 23 2 1
BITMAP
1800
0C00
0000
FFC0
FFC0
C000
C000
C000
C000
C000
C000
FF80
FF80
C000
C000
C000
C000
C000
C000
C000
C000
FFC0
FFC0
ENDCHAR
STARTCHAR 00C9
ENCODING 201
SWIDTH 500 0
DWIDTH 14 0
BBX 10 23 2 1
BITMAP
0600
0C00
0000
FFC0
FFC0
C000
C000
C000
C000
C000
C000
FF80
FF80
C000
C000
C000
C000
C000
C000
C000
C000
FFC0
FFC0
ENDCHAR
STARTCHAR 00CA
ENCODING 202
SWIDTH 500 0
DWIDTH 14 0
BBX 10 23 2 1
BITMAP
1E00
3300
0000
FFC0
FFC0
C000
C000
C000
C000
C000
C000
FF80
FF80
C000
C000
C000
C000
C000
C000
C000
C000
FFC0
FFC0
ENDCHAR
STARTCHAR 00CB
ENCODING 203
SWIDTH 500 0
DWIDTH 14 0
BBX 10 23 2 1
BITMAP
7380
7380
0000
FFC0
FFC0
C000
C000
C000
C000
C000
C000
FF80
FF80
C000
C000
C000
C000
C000
C000
C000
C000
FFC0
FFC0
ENDCHAR
STARTCHAR 00CC
ENCODING 204
SWIDTH 500 0
DWIDTH 14 0
BBX 3 23 5 1
BITMAP
C0
60
00
60
60
60
60
60
60
60
60
60
60
60
60
60
60
60
60
60
60
60
60
ENDCHAR
STARTCHAR 00CD
ENCODING 205
SWIDTH 500 0
DWIDTH 14 0
BBX 3 23 6 1
BITMAP
60
C0
00
C0
C0
C0
C0
C0
C0
C0
C0
C0
C0
C0
C0
C0
C0
C0
C0
C0
C0
C0
C0
ENDCHAR
STARTCHAR 00CE
ENCODING 206
SWIDTH 500 0
DWIDTH 14 0
BBX 6 23 4 1
BITMAP
78
CC
00
30
30
30
30
30
30
30
30
30
30
30
30
30
30
30
30
30
30
30
30
ENDCHAR
STARTCHAR 00CF
ENCODING 207
SWIDTH 500 0
DWIDTH 14 0
BBX 8 23 3 1
BITMAP
E7
E7
00
18
18
18
18
18
18
18
18
18
18
18
18
18
18
18
18
18
18
18
18
ENDCHAR
STARTCHAR 00D0
ENCODING 208
SWIDTH 500 0
DWIDTH 14 0
BBX 12 20 1 1
BITMAP
7E00
7F80
61C0
60E0
6060
6060
6030
6030
6030
FE30
6030
6030
6030
6030
6060
6060
60E0
61C0
7F80
7F00
ENDCHAR
STARTCHAR 00D1
ENCODING 209
SWIDTH 500 0
DWIDTH 14 0
BBX 10 23 2 1
BITMAP
3C00
0700
0000
E0C0
E0C0
E0C0
F0C0
F0C0
D0C0
D8C0
D8C0
C8C0
CCC0
CCC0
C4C0
C6C0
C6C0
C2C0
C3C0
C3C0
C1C0
C1C0
C1C0
ENDCHAR
STARTCHAR 00D2
ENCODING 210
SWIDTH 500 0
DWIDTH 14 0
BBX 12 22 1 2
BITMAP
0C00
0600
0000
0F00
3FC0
30C0
6060
6060
C030
C030
C030
C030
C030
C030
C030
C030
C030
6060
6060
30C0
3FC0
0F00
ENDCHAR
STARTCHAR 00D3
ENCODING 211
SWIDTH 500 0
DWIDTH 14 0
BBX 12 22 1 2
BITMAP
0300
0600
0000
0F00
3FC0
30C0
6060
6060
C030
C030
C030
C030
C030
C030
C030
C030
C030
6060
6060
30C0
3FC0
0F00
ENDCHAR
STARTCHAR 00D4
ENCODING 212
SWIDTH 500 0
DWIDTH 14 0
BBX 12 22 1 2
BITMAP
0F00
1980
0000
0F00
3FC0
30C0
6060
6060
C030
C030
C030
C030
C030
C030
C030
C030
C030
6060
6060
30C0
3FC0
0F00
ENDCHAR
STARTCHAR 00D5
ENCODING 213
SWIDTH 500 0
DWIDTH 14 0
BBX 12 22 1 2
BITMAP
1E80
0380
0000
0F00
3FC0
30C0
6060
6060
C030
C030
C030
C030
C030
C030
C030
C030
C030
6060
6060
30C0
3FC0
0F00
ENDCHAR
STARTCHAR 00D6
ENCODING 214
SWIDTH 500 0
DWIDTH 14 0
BBX 12 22 1 2
BITMAP
39C0
39C0
0000
0F00
3FC0
30C0
6060
6060
C030
C030
C030
C030
C030
C030
C030
C030
C030
6060
6060
30C0
3FC0
0F00
ENDCHAR
STARTCHAR 00D7
ENCODING 215
SWIDTH 1000 0
DWIDTH 28 0
BBX 18 17 5 2
BITMAP
600180
700380
380700
1C0E00
0E1C00
073800
03F000
01E000
01E000
03F000
073800
0E1C00
1C0E00
380700
700380
E001C0
400080
ENDCHAR
STARTCHAR 00D8
ENCODING 216
SWIDTH 500 0
DWIDTH 14 0
BBX 12 23 1 0
BITMAP
0030
0020
0FA0
3FC0
30C0
60E0
60E0
C170
C130
C330
C230
C630
C430
CC30
C830
F830
7060
7060
30C0
3FC0
5F00
4000
C000
ENDCHAR
STARTCHAR 00D9
ENCODING 217
SWIDTH 500 0
DWIDTH 14 0
BBX 10 22 2 2
BITMAP
1800
0C00
0000
C0C0
C0C0
C0C0
C0C0
C0C0
C0C0
C0C0
C0C0
C0C0
C0C0
C0C0
C0C0
C0C0
C0C0
C0C0
C0C0
6180
7F80
1E00
ENDCHAR
STARTCHAR 00DA
ENCODING 218
SWIDTH 500 0
DWIDTH 14 0
BBX 10 22 2 2
BITMAP
0600
0C00
0000
C0C0
C0C0
C0C0
C0C0
C0C0
C0C0
C0C0
C0C0
C0C0
C0C0
C0C0
C0C0
C0C0
C0C0
C0C0
C0C0
6180
7F80
1E00
ENDCHAR
STARTCHAR 00DB
ENCODING 219
SWIDTH 500 0
DWIDTH 14 0
BBX 10 22 2 2
BITMAP
1E00
3300
0000
C0C0
C0C0
C0C0
C0C0
C0C0
C0C0
C0C0
C0C0
C0C0
C0C0
C0C0
C0C0
C0C0
C0C0
C0C0
C0C0
6180
7F80
1E00
ENDCHAR
STARTCHAR 00DC
ENCODING 220
SWIDTH 500 0
DWIDTH 14 0
BBX 10 22 2 2
BITMAP
7380
7380
0000
C0C0
C0C0
C0C0
C0C0
C0C0
C0C0
C0C0
C0C0
C0C0
C0C0
C0C0
C0C0
C0C0
C0C0
C0C0
C0C0
6180
7F80
1E00
ENDCHAR
STARTCHAR 00DD
ENCODING 221
SWIDTH 500 0
DWIDTH 14 0
BBX 12 23 1 1
BITMAP
0300
0600
0000
E070
6060
6060
70E0
30C0
39C0
1980
1980
1F80
0F00
0F00
0600
0600
0600
0600
0600
0600
0600
0600
0600
ENDCHAR
STARTCHAR 00DE
ENCODING 222
SWIDTH 500 0
DWIDTH 14 0
BBX 11 20 2 1
BITMAP
C000
C000
C000
C000
FE00
FF80
C1C0
C0E0
C060
C060
C060
C0E0
C1C0
FF80
FF00
C000
C000
C000
C000
C000
ENDCHAR
STARTCHAR 00DF
ENCODING 223
SWIDTH 500 0
DWIDTH 14 0
BBX 11 20 2 0
BITMAP
1E00
7F80
61C0
C0C0
C0C0
C0C0
C0C0
C180
CF00
CF80
C1C0
C0C0
C060
C060
C060
C060
C0C0
CFC0
CF00
C800
ENDCHAR
STARTCHAR 00E0
ENCODING 224
SWIDTH 500 0
DWIDTH 14 0
BBX 11 17 2 1
BITMAP
1C00
0600
0000
0000
1F00
7F80
61C0
E0C0
00C0
0FC0
3FC0
60C0
C0C0
C0C0
C3C0
FFE0
3CE0
ENDCHAR
STARTCHAR 00E1
ENCODING 225
SWIDTH 500 0
DWIDTH 14 0
BBX 11 17 2 1
BITMAP
0700
0C00
0000
0000
1F00
7F80
61C0
E0C0
00C0
0FC0
3FC0
60C0
C0C0
C0C0
C3C0
FFE0
3CE0
ENDCHAR
STARTCHAR 00E2
ENCODING 226
SWIDTH 500 0
DWIDTH 14 0
BBX 11 17 2 1
BITMAP
0E00
3180
0000
0000
1F00
7F80
61C0
E0C0
00C0
0FC0
3FC0
60C0
C0C0
C0C0
C3C0
FFE0
3CE0
ENDCHAR
STARTCHAR 00E3
ENCODING 227
SWIDTH 500 0
DWIDTH 14 0
BBX 11 18 2 1
BITMAP
1800
2D00
0600
0000
0000
1F00
7F80
E1C0
C0C0
00C0
0FC0
3FC0
60C0
C0C0
C0C0
C3C0
FFE0
3CE0
ENDCHAR
STARTCHAR 00E4
ENCODING 228
SWIDTH 500 0
DWIDTH 14 0
BBX 11 17 2 1
BITMAP
7380
7380
0000
0000
3F00
7F80
E1C0
E0C0
00C0
0FC0
3FC0
60C0
C0C0
C0C0
C3C0
FFE0
3CE0
ENDCHAR
STARTCHAR 00E5
ENCODING 229
SWIDTH 500 0
DWIDTH 14 0
BBX 11 19 2 1
BITMAP
0E00
1100
1100
0E00
0000
0000
1F00
7F80
61C0
E0C0
00C0
0FC0
3FC0
60C0
C0C0
C0C0
C3C0
FFE0
3CE0
ENDCHAR
STARTCHAR 00E6
ENCODING 230
SWIDTH 500 0
DWIDTH 14 0
BBX 12 13 1 2
BITMAP
39C0
7FE0
6760
C630
0630
0630
1FF0
7600
C600
C630
C730
FFE0
7DE0
ENDCHAR
STARTCHAR 00E7
ENCODING 231
SWIDTH 500 0
DWIDTH 14 0
BBX 10 18 2 -3
BITMAP
1F00
3F80
71C0
60C0
C000
C000
C000
C000
C000
C0C0
60C0
7180
3F80
1E00
0800
1E00
0100
1E00
ENDCHAR
STARTCHAR 00E8
ENCODING 232
SWIDTH 500 0
DWIDTH 14 0
BBX 10 17 2 2
BITMAP
1800
0C00
0000
0000
1E00
3F80
6180
E1C0
C0C0
C0C0
FFC0
FFC0
C000
C0C0
61C0
3F80
1F00
ENDCHAR
STARTCHAR 00E9
ENCODING 233
SWIDTH 500 0
DWIDTH 14 0
BBX 10 17 2 2
BITMAP
0600
0C00
0000
0000
1E00
3F80
6180
E1C0
C0C0
C0C0
FFC0
FFC0
C000
C0C0
61C0
3F80
1F00
ENDCHAR
STARTCHAR 00EA
ENCODING 234
SWIDTH 500 0
DWIDTH 14 0
BBX 10 17 2 2
BITMAP
1E00
3300
0000
0000
1E00
3F80
6180
E1C0
C0C0
C0C0
FFC0
FFC0
C000
C0C0
61C0
3F80
1F00
ENDCHAR
STARTCHAR 00EB
ENCODING 235
SWIDTH 500 0
DWIDTH 14 0
BBX 10 17 2 2
BITMAP
7380
7380
0000
0000
1E00
3F80
7380
E1C0
C0C0
C0C0
FFC0
FFC0
C000
C0C0
61C0
3F80
1F00
ENDCHAR
STARTCHAR 00EC
ENCODING 236
SWIDTH 500 0
DWIDTH 14 0
BBX 4 18 4 1
BITMAP
E0
30
00
00
30
30
30
30
30
30
30
30
30
30
30
30
30
30
ENDCHAR
STARTCHAR 00ED
ENCODING 237
SWIDTH 500 0
DWIDTH 14 0
BBX 4 18 6 1
BITMAP
70
C0
00
00
C0
C0
C0
C0
C0
C0
C0
C0
C0
C0
C0
C0
C0
C0
ENDCHAR
STARTCHAR 00EE
ENCODING 238
SWIDTH 500 0
DWIDTH 14 0
BBX 6 18 4 1
BITMAP
78
CC
00
00
30
30
30
30
30
30
30
30
30
30
30
30
30
30
ENDCHAR
STARTCHAR 00EF
ENCODING 239
SWIDTH 500 0
DWIDTH 14 0
BBX 8 18 3 1
BITMAP
E7
E7
00
00
18
18
18
18
18
18
18
18
18
18
18
18
18
18
ENDCHAR
STARTCHAR 00F0
ENCODING 240
SWIDTH 500 0
DWIDTH 14 0
BBX 10 20 2 3
BITMAP
3100
1F00
0E00
1F00
3300
0180
0180
1E80
3FC0
73C0
E1C0
C0C0
C0C0
C0C0
C0C0
C0C0
6080
7180
3F00
1E00
ENDCHAR
STARTCHAR 00F1
ENCODING 241
SWIDTH 500 0
DWIDTH 14 0
BBX 10 19 2 1
BITMAP
1800
2D00
0700
0000
0000
CF00
FF80
F1C0
E0C0
C0C0
C0C0
C0C0
C0C0
C0C0
C0C0
C0C0
C0C0
C0C0
C0C0
ENDCHAR
STARTCHAR 00F2
ENCODING 242
SWIDTH 500 0
DWIDTH 14 0
BBX 10 17 2 2
BITMAP
1800
0C00
0000
0000
1E00
3F00
7180
E0C0
C0C0
C0C0
C0C0
C0C0
C0C0
E1C0
6380
3F00
1E00
ENDCHAR
STARTCHAR 00F3
ENCODING 243
SWIDTH 500 0
DWIDTH 14 0
BBX 10 17 2 2
BITMAP
0600
0C00
0000
0000
1E00
3F00
7180
E0C0
C0C0
C0C0
C0C0
C0C0
C0C0
E1C0
6380
3F00
1E00
ENDCHAR
STARTCHAR 00F4
ENCODING 244
SWIDTH 500 0
DWIDTH 14 0
BBX 10 17 2 2
BITMAP
1E00
3300
0000
0000
1E00
3F00
7180
E0C0
C0C0
C0C0
C0C0
C0C0
C0C0
E1C0
6380
3F00
1E00
ENDCHAR
STARTCHAR 00F5
ENCODING 245
SWIDTH 500 0
DWIDTH 14 0
BBX 10 18 2 2
BITMAP
1800
2D00
0600
0000
0000
1E00
3F00
6180
E0C0
C0C0
C0C0
C0C0
C0C0
C0C0
E1C0
6380
3F00
1E00
ENDCHAR
STARTCHAR 00F6
ENCODING 246
SWIDTH 500 0
DWIDTH 14 0
BBX 10 17 2 2
BITMAP
7380
7380
0000
0000
1E00
3F00
6180
E1C0
C0C0
C0C0
C0C0
C0C0
C0C0
E1C0
6380
3F00
1E00
ENDCHAR
STARTCHAR 00F7
ENCODING 247
SWIDTH 1000 0
DWIDTH 28 0
BBX 20 15 4 3
BITMAP
00E000
00E000
00E000
000000
000000
000000
FFFFF0
FFFFF0
000000
000000
000000
000000
00E000
00E000
00E000
ENDCHAR
STARTCHAR 00F8
ENCODING 248
SWIDTH 500 0
DWIDTH 14 0
BBX 10 17 2 -1
BITMAP
0040
0040
1F80
3F80
7180
E2C0
C2C0
C4C0
CCC0
C8C0
D0C0
D180
6380
7F00
7E00
8000
8000
ENDCHAR
STARTCHAR 00F9
ENCODING 249
SWIDTH 500 0
DWIDTH 14 0
BBX 10 18 2 1
BITMAP
1800
0C00
0000
0000
C0C0
C0C0
C0C0
C0C0
C0C0
C0C0
C0C0
C0C0
C0C0
C0C0
E3C0
7FC0
3EC0
00C0
ENDCHAR
STARTCHAR 00FA
ENCODING 250
SWIDTH 500 0
DWIDTH 14 0
BBX 10 18 2 1
BITMAP
0600
0800
0000
0000
C0C0
C0C0
C0C0
C0C0
C0C0
C0C0
C0C0
C0C0
C0C0
C0C0
E3C0
7FC0
3EC0
00C0
ENDCHAR
STARTCHAR 00FB
ENCODING 251
SWIDTH 500 0
DWIDTH 14 0
BBX 10 18 2 1
BITMAP
1E00
3300
0000
0000
C0C0
C0C0
C0C0
C0C0
C0C0
C0C0
C0C0
C0C0
C0C0
C0C0
E3C0
7FC0
3EC0
00C0
ENDCHAR
STARTCHAR 00FC
ENCODING 252
SWIDTH 500 0
DWIDTH 14 0
BBX 10 18 2 1
BITMAP
7380
7380
0000
0000
C0C0
C0C0
C0C0
C0C0
C0C0
C0C0
C0C0
C0C0
C0C0
C0C0
E3C0
7FC0
3EC0
00C0
ENDCHAR
STARTCHAR 00FD
ENCODING 253
SWIDTH 500 0
DWIDTH 14 0
BBX 11 22 1 -3
BITMAP
0300
0600
0000
0000
E060
60E0
60E0
30C0
30C0
3180
1980
1980
1F00
0F00
0F00
0600
0600
0600
0C00
0C00
7C00
7800
ENDCHAR
STARTCHAR 00FE
ENCODING 254
SWIDTH 500 0
DWIDTH 14 0
BBX 10 24 2 -3
BITMAP
C000
C000
C000
C000
C000
C000
DE00
FF80
F180
E1C0
C0C0
C0C0
C0C0
C0C0
C0C0
E0C0
F180
FF80
DE00
C000
C000
C000
C000
C000
ENDCHAR
STARTCHAR 00FF
ENCODING 255
SWIDTH 500 0
DWIDTH 14 0
BBX 11 22 1 -3
BITMAP
39C0
39C0
0000
0000
E060
60E0
70E0
30C0
30C0
39C0
1980
1980
0F80
0F00
0700
0700
0600
0600
0600
0C00
7C00
7800
ENDCHAR
STARTCHAR 0100
ENCODING 256
SWIDTH 500 0
DWIDTH 14 0
BBX 14 23 0 1
BITMAP
1FE0
0000
0000
0780
0780
0780
0780
0CC0
0CC0
0CC0
1CE0
1860
1860
1860
3FF0
3FF0
3030
3030
7038
6018
6018
6018
E01C
ENDCHAR
STARTCHAR 0101
ENCODING 257
SWIDTH 500 0
DWIDTH 14 0
BBX 12 17 1 1
BITMAP
3FC0
0000
0000
0000
1F80
3FC0
70E0
6060
0060
07E0
3FE0
7060
C060
C060
C1E0
7FF0
3E70
ENDCHAR
STARTCHAR 0102
ENCODING 258
SWIDTH 500 0
DWIDTH 14 0
BBX 12 23 1 1
BITMAP
30C0
0F00
0000
0F00
0F00
0F00
0F00
1980
1980
1980
1980
39C0
30C0
30C0
3FC0
7FE0
6060
6060
6060
E070
E070
C030
C030
ENDCHAR
STARTCHAR 0103
ENCODING 259
SWIDTH 500 0
DWIDTH 14 0
BBX 11 17 2 1
BITMAP
3180
1F00
0000
0000
1F00
7F80
61C0
E0C0
00C0
0FC0
3FC0
60C0
C0C0
C0C0
C3C0
FFE0
3CE0
ENDCHAR
STARTCHAR 0104
ENCODING 260
SWIDTH 500 0
DWIDTH 14 0
BBX 13 24 1 -3
BITMAP
0700
0700
0D00
0D80
0D80
0D80
1980
18C0
18C0
18C0
30C0
3FE0
3FE0
3060
7060
6070
6030
6030
E030
E038
0060
0080
0080
00F8
ENDCHAR
STARTCHAR 0105
ENCODING 261
SWIDTH 500 0
DWIDTH 14 0
BBX 11 18 2 -3
BITMAP
1F00
7F80
61C0
E0C0
00C0
0FC0
3FC0
60C0
C0C0
C0C0
C3C0
FFE0
3CE0
00C0
0080
0100
0120
01C0
ENDCHAR
STARTCHAR 0106
ENCODING 262
SWIDTH 500 0
DWIDTH 14 0
BBX 12 22 1 2
BITMAP
0300
0600
0000
0F00
3FC0
31C0
60E0
6060
C060
C000
C000
C000
C000
C000
C000
C000
C070
6060
6060
30E0
3FC0
0F00
ENDCHAR
STARTCHAR 0107
ENCODING 263
SWIDTH 500 0
DWIDTH 14 0
BBX 10 17 2 2
BITMAP
0600
0C00
0000
0000
1F00
3F80
71C0
E0C0
C000
C000
C000
C000
C000
E0C0
61C0
3F80
1F00
ENDCHAR
STARTCHAR 0108
ENCODING 264
SWIDTH 500 0
DWIDTH 14 0
BBX 12 22 1 2
BITMAP
0F00
1980
0000
0F00
3FC0
31C0
60E0
6060
C060
C000
C000
C000
C000
C000
C000
C000
C070
6060
6060
30E0
3FC0
0F00
ENDCHAR
STARTCHAR 0109
ENCODING 265
SWIDTH 500 0
DWIDTH 14 0
BBX 10 17 2 2
BITMAP
1E00
3300
0000
0000
1F00
3F80
71C0
E0C0
C000
C000
C000
C000
C000
E0C0
61C0
3F80
1F00
ENDCHAR
STARTCHAR 010C
ENCODING 268
SWIDTH 500 0
DWIDTH 14 0
BBX 12 22 1 2
BITMAP
1980
0F00
0000
0F00
3FC0
31C0
60E0
6060
C060
C000
C000
C000
C000
C000
C000
C000
C070
6060
6060
30E0
3FC0
0F00
ENDCHAR
STARTCHAR 010D
ENCODING 269
SWIDTH 500 0
DWIDTH 14 0
BBX 10 17 2 2
BITMAP
3300
1E00
0000
0000
1F00
3F80
71C0
E0C0
C000
C000
C000
C000
C000
E0C0
61C0
3F80
1F00
ENDCHAR
STARTCHAR 010E
ENCODING 270
SWIDTH 500 0
DWIDTH 14 0
BBX 11 23 2 1
BITMAP
6200
1C00
0000
FC00
FF00
C380
C1C0
C0C0
C0C0
C060
C060
C060
C060
C060
C060
C060
C060
C0C0
C0C0
C1C0
C380
FF00
FC00
ENDCHAR
STARTCHAR 010F
ENCODING 271
SWIDTH 500 0
DWIDTH 14 0
BBX 12 22 1 1
BITMAP
0070
0070
01F0
01B0
01A0
01E0
0180
0180
3D80
7F80
6380
E380
C180
C180
C180
C180
C180
C380
6380
7F80
3D80
0180
ENDCHAR
STARTCHAR 0111
ENCODING 273
SWIDTH 500 0
DWIDTH 14 0
BBX 11 20 2 1
BITMAP
00C0
00C0
00C0
07E0
00C0
00C0
1EC0
7FC0
63C0
E1C0
C0C0
C0C0
C0C0
C0C0
C0C0
E1C0
63C0
7FC0
3EC0
00C0
ENDCHAR
STARTCHAR 0112
ENCODING 274
SWIDTH 500 0
DWIDTH 14 0
BBX 10 23 2 1
BITMAP
7F80
0000
0000
FFC0
FFC0
C000
C000
C000
C000
C000
C000
FF80
FF80
C000
C000
C000
C000
C000
C000
C000
C000
FFC0
FFC0
ENDCHAR
STARTCHAR 0113
ENCODING 275
SWIDTH 500 0
DWIDTH 14 0
BBX 12 17 1 2
BITMAP
3FC0
0000
0000
0000
1F00
3FC0
70C0
6060
E060
E060
FFF0
FFF0
C000
6070
70E0
3FC0
1F80
ENDCHAR
STARTCHAR 0118
ENCODING 280
SWIDTH 500 0
DWIDTH 14 0
BBX 10 24 2 -3
BITMAP
FFC0
FFC0
C000
C000
C000
C000
C000
C000
FF80
FF80
C000
C000
C000
C000
C000
C000
C000
C000
FFC0
FFC0
0800
1000
1000
1E00
ENDCHAR
STARTCHAR 0119
ENCODING 281
SWIDTH 500 0
DWIDTH 14 0
BBX 10 18 2 -3
BITMAP
1E00
3F00
6380
4180
C0C0
C0C0
FFC0
FFC0
C000
C0C0
41C0
6180
3F00
1C00
1000
2000
2200
3C00
ENDCHAR
STARTCHAR 011A
ENCODING 282
SWIDTH 500 0
DWIDTH 14 0
BBX 10 23 2 1
BITMAP
2300
1E00
0000
FFC0
FFC0
C000
C000
C000
C000
C000
C000
FF80
FF80
C000
C000
C000
C000
C000
C000
C000
C000
FFC0
FFC0
ENDCHAR
STARTCHAR 011B
ENCODING 283
SWIDTH 500 0
DWIDTH 14 0
BBX 10 17 2 2
BITMAP
3300
1E00
0000
0000
1E00
3F80
6180
E1C0
C0C0
C0C0
FFC0
FFC0
C000
C0C0
61C0
3F80
1F00
ENDCHAR
STARTCHAR 011C
ENCODING 284
SWIDTH 500 0
DWIDTH 14 0
BBX 11 23 2 1
BITMAP
0E00
3100
0000
0F00
3F80
71C0
60C0
60C0
C0E0
C000
C000
C000
C000
C3E0
C3E0
C060
C0E0
60E0
60E0
71E0
3F60
1E60
0060
ENDCHAR
STARTCHAR 011D
ENCODING 285
SWIDTH 500 0
DWIDTH 14 0
BBX 11 21 1 -2
BITMAP
0F00
1180
0000
0000
1F60
3FE0
70E0
E060
C060
C060
C060
E0E0
71E0
3FE0
1F60
0060
0060
6060
70E0
3FC0
1F00
ENDCHAR
STARTCHAR 0124
ENCODING 292
SWIDTH 500 0
DWIDTH 14 0
BBX 10 23 2 1
BITMAP
1E00
3300
0000
C0C0
C0C0
C0C0
C0C0
C0C0
C0C0
C0C0
C0C0
FFC0
FFC0
C0C0
C0C0
C0C0
C0C0
C0C0
C0C0
C0C0
C0C0
C0C0
C0C0
ENDCHAR
STARTCHAR 0125
ENCODING 293
SWIDTH 500 0
DWIDTH 14 0
BBX 10 23 2 1
BITMAP
1E00
3300
0000
C000
C000
C000
C000
C000
C000
CF00
FF80
F1C0
E0C0
C0C0
C0C0
C0C0
C0C0
C0C0
C0C0
C0C0
C0C0
C0C0
C0C0
ENDCHAR
STARTCHAR 0127
ENCODING 295
SWIDTH 500 0
DWIDTH 14 0
BBX 11 20 1 1
BITMAP
6000
6000
6000
FC00
6000
6000
6780
7FC0
78E0
7060
6060
6060
6060
6060
6060
6060
6060
6060
6060
6060
ENDCHAR
STARTCHAR 012A
ENCODING 298
SWIDTH 500 0
DWIDTH 14 0
BBX 8 23 3 1
BITMAP
FF
00
00
18
18
18
18
18
18
18
18
18
18
18
18
18
18
18
18
18
18
18
18
ENDCHAR
STARTCHAR 012B
ENCODING 299
SWIDTH 500 0
DWIDTH 14 0
BBX 8 18 3 1
BITMAP
FF
00
00
00
18
18
18
18
18
18
18
18
18
18
18
18
18
18
ENDCHAR
STARTCHAR 0134
ENCODING 308
SWIDTH 500 0
DWIDTH 14 0
BBX 12 22 1 2
BITMAP
01C0
0330
0000
00C0
00C0
00C0
00C0
00C0
00C0
00C0
00C0
00C0
00C0
00C0
00C0
00C0
00C0
E0C0
60C0
71C0
7F80
1F00
ENDCHAR
STARTCHAR 0135
ENCODING 309
SWIDTH 500 0
DWIDTH 14 0
BBX 8 21 3 -3
BITMAP
1E
33
00
00
0C
0C
0C
0C
0C
0C
0C
0C
0C
0C
0C
0C
0C
0C
0C
FC
F8
ENDCHAR
STARTCHAR 0139
ENCODING 313
SWIDTH 500 0
DWIDTH 14 0
BBX 11 23 2 1
BITMAP
0600
0C00
0000
C000
C000
C000
C000
C000
C000
C000
C000
C000
C000
C000
C000
C000
C000
C000
C000
C000
C000
FFE0
FFE0
ENDCHAR
STARTCHAR 013A
ENCODING 314
SWIDTH 500 0
DWIDTH 14 0
BBX 3 23 6 1
BITMAP
60
C0
00
C0
C0
C0
C0
C0
C0
C0
C0
C0
C0
C0
C0
C0
C0
C0
C0
C0
C0
C0
C0
ENDCHAR
STARTCHAR 013D
ENCODING 317
SWIDTH 500 0
DWIDTH 14 0
BBX 11 22 2 1
BITMAP
0700
0700
C700
C300
C200
C600
C000
C000
C000
C000
C000
C000
C000
C000
C000
C000
C000
C000
C000
C000
FFE0
FFE0
ENDCHAR
STARTCHAR 013E
ENCODING 318
SWIDTH 500 0
DWIDTH 14 0
BBX 6 22 6 1
BITMAP
1C
1C
DC
CC
C8
D8
C0
C0
C0
C0
C0
C0
C0
C0
C0
C0
C0
C0
C0
C0
C0
C0
ENDCHAR
STARTCHAR 0141
ENCODING 321
SWIDTH 500 0
DWIDTH 14 0
BBX 12 20 1 1
BITMAP
3000
3000
3000
3000
3000
3000
3600
3C00
3800
3000
3000
7000
B000
3000
3000
3000
3000
3000
3FF0
3FF0
ENDCHAR
STARTCHAR 0142
ENCODING 322
SWIDTH 500 0
DWIDTH 14 0
BBX 8 20 3 1
BITMAP
18
18
18
18
18
18
1B
1E
1C
18
38
78
D8
98
18
18
18
18
18
18
ENDCHAR
STARTCHAR 0143
ENCODING 323
SWIDTH 500 0
DWIDTH 14 0
BBX 10 23 2 1
BITMAP
0600
0800
0000
E0C0
E0C0
E0C0
F0C0
F0C0
D0C0
D8C0
D8C0
C8C0
CCC0
CCC0
C4C0
C6C0
C6C0
C2C0
C3C0
C3C0
C1C0
C1C0
C1C0
ENDCHAR
STARTCHAR 0144
ENCODING 324
SWIDTH 500 0
DWIDTH 14 0
BBX 10 18 2 1
BITMAP
0600
0800
0000
0000
CF00
FF80
F1C0
E0C0
C0C0
C0C0
C0C0
C0C0
C0C0
C0C0
C0C0
C0C0
C0C0
C0C0
ENDCHAR
STARTCHAR 0147
ENCODING 327
SWIDTH 500 0
DWIDTH 14 0
BBX 10 23 2 1
BITMAP
3300
1E00
0000
E0C0
E0C0
E0C0
F0C0
F0C0
D0C0
D8C0
D8C0
C8C0
CCC0
CCC0
C4C0
C6C0
C6C0
C2C0
C3C0
C3C0
C1C0
C1C0
C1C0
ENDCHAR
STARTCHAR 0148
ENCODING 328
SWIDTH 500 0
DWIDTH 14 0
BBX 10 18 2 1
BITMAP
3300
1E00
0000
0000
CF00
FF80
F1C0
E0C0
C0C0
C0C0
C0C0
C0C0
C0C0
C0C0
C0C0
C0C0
C0C0
C0C0
ENDCHAR
STARTCHAR 014B
ENCODING 331
SWIDTH 500 0
DWIDTH 14 0
BBX 10 18 2 -3
BITMAP
CF00
FF80
F1C0
E0C0
C0C0
C0C0
C0C0
C0C0
C0C0
C0C0
C0C0
C0C0
C0C0
C0C0
00C0
00C0
07C0
0780
ENDCHAR
STARTCHAR 014C
ENCODING 332
SWIDTH 500 0
DWIDTH 14 0
BBX 12 22 1 2
BITMAP
3FC0
0000
0000
0F00
3FC0
30C0
6060
6060
C030
C030
C030
C030
C030
C030
C030
C030
C030
6060
6060
30C0
3FC0
0F00
ENDCHAR
STARTCHAR 014D
ENCODING 333
SWIDTH 500 0
DWIDTH 14 0
BBX 12 17 1 2
BITMAP
3FC0
0000
0000
0000
1F80
3FC0
70E0
6060
C030
C030
C030
C030
C030
6060
70E0
3FC0
1F80
ENDCHAR
STARTCHAR 0150
ENCODING 336
SWIDTH 500 0
DWIDTH 14 0
BBX 12 22 1 2
BITMAP
0EC0
1900
0000
0F00
3FC0
30C0
6060
6060
C030
C030
C030
C030
C030
C030
C030
C030
C030
6060
6060
30C0
3FC0
0F00
ENDCHAR
STARTCHAR 0151
ENCODING 337
SWIDTH 500 0
DWIDTH 14 0
BBX 10 17 2 2
BITMAP
0D80
1300
0000
0000
1E00
3F00
7180
E0C0
C0C0
C0C0
C0C0
C0C0
C0C0
E1C0
6380
3F00
1E00
ENDCHAR
STARTCHAR 0152
ENCODING 338
SWIDTH 500 0
DWIDTH 14 0
BBX 12 20 1 1
BITMAP
1FF0
3FF0
7300
6300
6300
C300
C300
C300
C3F0
C3F0
C300
C300
C300
C300
4300
6300
6300
3F00
1FF0
03F0
ENDCHAR
STARTCHAR 0153
ENCODING 339
SWIDTH 500 0
DWIDTH 14 0
BBX 12 14 1 1
BITMAP
39C0
7FE0
4F60
8630
8630
8630
87F0
8600
8600
8630
8630
4F30
7FE0
39C0
ENDCHAR
STARTCHAR 0154
ENCODING 340
SWIDTH 500 0
DWIDTH 14 0
BBX 11 23 2 1
BITMAP
0600
0800
0000
FE00
FF80
C180
C0C0
C0C0
C0C0
C0C0
C380
FF80
FE00
C600
C700
C300
C300
C380
C180
C1C0
C1C0
C0C0
C0E0
ENDCHAR
STARTCHAR 0155
ENCODING 341
SWIDTH 500 0
DWIDTH 14 0
BBX 7 18 4 1
BITMAP
18
20
00
00
C6
DE
FC
F0
E0
C0
C0
C0
C0
C0
C0
C0
C0
C0
ENDCHAR
STARTCHAR 0158
ENCODING 344
SWIDTH 500 0
DWIDTH 14 0
BBX 11 23 2 1
BITMAP
6200
1C00
0000
FE00
FF80
C180
C0C0
C0C0
C0C0
C0C0
C380
FF80
FE00
C600
C700
C300
C300
C380
C180
C1C0
C1C0
C0C0
C0E0
ENDCHAR
STARTCHAR 0159
ENCODING 345
SWIDTH 500 0
DWIDTH 14 0
BBX 7 18 4 1
BITMAP
8C
70
00
00
C6
DE
FC
F0
E0
C0
C0
C0
C0
C0
C0
C0
C0
C0
ENDCHAR
STARTCHAR 015A
ENCODING 346
SWIDTH 500 0
DWIDTH 14 0
BBX 12 22 1 2
BITMAP
0300
0600
0000
0F80
3FC0
70E0
6060
6060
6000
3000
3800
0E00
0780
01C0
0060
0070
0030
E030
6030
7060
3FE0
0F80
ENDCHAR
STARTCHAR 015B
ENCODING 347
SWIDTH 500 0
DWIDTH 14 0
BBX 10 17 2 2
BITMAP
0600
0C00
0000
0000
3E00
7F80
E180
C1C0
E000
7800
0F00
0180
00C0
C0C0
E1C0
7F80
3F00
ENDCHAR
STARTCHAR 015C
ENCODING 348
SWIDTH 500 0
DWIDTH 14 0
BBX 12 22 1 2
BITMAP
0F00
1980
0000
0F80
3FC0
70E0
6060
6060
6000
3000
3800
1C00
0700
01C0
0060
0060
0030
E030
6030
7070
3FE0
1FC0
ENDCHAR
STARTCHAR 015D
ENCODING 349
SWIDTH 500 0
DWIDTH 14 0
BBX 10 17 2 2
BITMAP
1E00
3300
0000
0000
3E00
7F80
E180
C1C0
E000
7800
0F00
0180
00C0
C0C0
E1C0
7F80
3F00
ENDCHAR
STARTCHAR 015E
ENCODING 350
SWIDTH 500 0
DWIDTH 14 0
BBX 11 24 2 -3
BITMAP
1F00
7F80
E1C0
C0C0
C0C0
C000
6000
3800
1E00
0700
01C0
00C0
0060
C060
C060
E0E0
7FC0
1F00
0000
0E00
0E00
0E00
0600
0C00
ENDCHAR
STARTCHAR 015F
ENCODING 351
SWIDTH 500 0
DWIDTH 14 0
BBX 11 18 2 -3
BITMAP
1F00
3FC0
60C0
6000
3000
0E00
0180
0060
C060
60E0
7FC0
1F80
0000
0E00
0E00
0E00
0600
0C00
ENDCHAR
STARTCHAR 0160
ENCODING 352
SWIDTH 500 0
DWIDTH 14 0
BBX 12 22 1 2
BITMAP
1980
0F00
0000
0F80
3FC0
70E0
6060
6060
6000
3000
3800
0E00
0780
01C0
0060
0070
0030
E030
6030
7060
3FE0
0F80
ENDCHAR
STARTCHAR 0161
ENCODING 353
SWIDTH 500 0
DWIDTH 14 0
BBX 10 17 2 2
BITMAP
3300
1E00
0000
0000
3E00
7F80
E180
C1C0
E000
7800
0F00
0180
00C0
C0C0
E1C0
7F80
3F00
ENDCHAR
STARTCHAR 0162
ENCODING 354
SWIDTH 500 0
DWIDTH 14 0
BBX 12 24 1 -3
BITMAP
FFF0
FFF0
0600
0600
0600
0600
0600
0600
0600
0600
0600
0600
0600
0600
0600
0600
0600
0600
0000
0700
0700
0700
0300
0600
ENDCHAR
STARTCHAR 0163
ENCODING 355
SWIDTH 500 0
DWIDTH 14 0
BBX 8 21 3 -3
BITMAP
30
30
30
FF
FF
30
30
30
30
30
30
30
30
3F
1F
00
1C
1C
1C
0C
18
ENDCHAR
STARTCHAR 0164
ENCODING 356
SWIDTH 500 0
DWIDTH 14 0
BBX 12 23 1 1
BITMAP
1980
0F00
0000
FFF0
FFF0
0600
0600
0600
0600
0600
0600
0600
0600
0600
0600
0600
0600
0600
0600
0600
0600
0600
0600
ENDCHAR
STARTCHAR 0165
ENCODING 357
SWIDTH 500 0
DWIDTH 14 0
BBX 9 21 3 1
BITMAP
0380
0380
0380
0180
0180
3300
3000
3000
FF00
FF00
3000
3000
3000
3000
3000
3000
3000
3000
3000
3F00
1F00
ENDCHAR
STARTCHAR 016A
ENCODING 362
SWIDTH 500 0
DWIDTH 14 0
BBX 10 22 2 2
BITMAP
7F80
0000
0000
C0C0
C0C0
C0C0
C0C0
C0C0
C0C0
C0C0
C0C0
C0C0
C0C0
C0C0
C0C0
C0C0
C0C0
C0C0
C0C0
6180
7F80
1E00
ENDCHAR
STARTCHAR 016B
ENCODING 363
SWIDTH 500 0
DWIDTH 14 0
BBX 10 18 2 1
BITMAP
7F80
0000
0000
0000
C0C0
C0C0
C0C0
C0C0
C0C0
C0C0
C0C0
C0C0
C0C0
C0C0
E3C0
7FC0
3E40
0040
ENDCHAR
STARTCHAR 016C
ENCODING 364
SWIDTH 500 0
DWIDTH 14 0
BBX 10 22 2 2
BITMAP
2100
1E00
0000
C0C0
C0C0
C0C0
C0C0
C0C0
C0C0
C0C0
C0C0
C0C0
C0C0
C0C0
C0C0
C0C0
C0C0
C0C0
C0C0
6180
7F80
1E00
ENDCHAR
STARTCHAR 016D
ENCODING 365
SWIDTH 500 0
DWIDTH 14 0
BBX 10 18 2 1
BITMAP
6100
3E00
0000
0000
C0C0
C0C0
C0C0
C0C0
C0C0
C0C0
C0C0
C0C0
C0C0
C0C0
E3C0
7FC0
3EC0
00C0
ENDCHAR
STARTCHAR 016E
ENCODING 366
SWIDTH 500 0
DWIDTH 14 0
BBX 10 22 2 2
BITMAP
0C00
1200
1C00
C0C0
C0C0
C0C0
C0C0
C0C0
C0C0
C0C0
C0C0
C0C0
C0C0
C0C0
C0C0
C0C0
C0C0
C0C0
C0C0
6180
7F80
1E00
ENDCHAR
STARTCHAR 016F
ENCODING 367
SWIDTH 500 0
DWIDTH 14 0
BBX 10 20 2 1
BITMAP
0C00
1200
1200
1C00
0000
0000
C0C0
C0C0
C0C0
C0C0
C0C0
C0C0
C0C0
C0C0
C0C0
C0C0
E3C0
7FC0
3EC0
00C0
ENDCHAR
STARTCHAR 0170
ENCODING 368
SWIDTH 500 0
DWIDTH 14 0
BBX 10 22 2 2
BITMAP
1D80
3200
0000
C0C0
C0C0
C0C0
C0C0
C0C0
C0C0
C0C0
C0C0
C0C0
C0C0
C0C0
C0C0
C0C0
C0C0
C0C0
C0C0
6180
7F80
1E00
ENDCHAR
STARTCHAR 0171
ENCODING 369
SWIDTH 500 0
DWIDTH 14 0
BBX 10 18 2 1
BITMAP
0D80
3300
0000
0000
C0C0
C0C0
C0C0
C0C0
C0C0
C0C0
C0C0
C0C0
C0C0
C0C0
E3C0
7FC0
3EC0
00C0
ENDCHAR
STARTCHAR 0179
ENCODING 377
SWIDTH 500 0
DWIDTH 14 0
BBX 10 23 2 1
BITMAP
0600
0800
0000
FFC0
FFC0
01C0
0180
0380
0300
0700
0600
0E00
0C00
1C00
1800
1800
3000
3000
6000
6000
C000
FFC0
FFC0
ENDCHAR
STARTCHAR 017A
ENCODING 378
SWIDTH 500 0
DWIDTH 14 0
BBX 10 18 2 1
BITMAP
0600
0C00
0000
0000
7FC0
7FC0
01C0
0380
0300
0600
0E00
1C00
1800
3800
7000
E000
FFC0
FFC0
ENDCHAR
STARTCHAR 017B
ENCODING 379
SWIDTH 500 0
DWIDTH 14 0
BBX 10 23 2 1
BITMAP
0E00
0E00
0000
FFC0
FFC0
00C0
0180
0180
0300
0300
0600
0600
0C00
0C00
1800
1800
3800
3000
7000
6000
E000
FFC0
FFC0
ENDCHAR
STARTCHAR 017C
ENCODING 380
SWIDTH 500 0
DWIDTH 14 0
BBX 10 18 2 1
BITMAP
0E00
0E00
0000
0000
7FC0
7FC0
01C0
0380
0300
0600
0E00
1C00
1800
3800
7000
E000
FFC0
FFC0
ENDCHAR
STARTCHAR 017D
ENCODING 381
SWIDTH 500 0
DWIDTH 14 0
BBX 10 23 2 1
BITMAP
3300
1E00
0000
FFC0
FFC0
01C0
0180
0380
0300
0700
0600
0E00
0C00
1C00
1800
1800
3000
3000
6000
6000
C000
FFC0
FFC0
ENDCHAR
STARTCHAR 017E
ENCODING 382
SWIDTH 500 0
DWIDTH 14 0
BBX 10 18 2 1
BITMAP
3100
0E00
0000
0000
7FC0
7FC0
01C0
0380
0300
0600
0E00
1C00
1800
3800
7000
E000
FFC0
FFC0
ENDCHAR
STARTCHAR 0193
ENCODING 403
SWIDTH 500 0
DWIDTH 14 0
BBX 13 22 1 2
BITMAP
0078
0078
1FC0
3FC0
71C0
60C0
60C0
C0C0
C000
C000
C000
C000
C3E0
C3E0
C060
C060
60E0
60E0
71E0
3F60
1E60
0060
ENDCHAR
STARTCHAR 01C2
ENCODING 450
SWIDTH 500 0
DWIDTH 14 0
BBX 10 24 2 -3
BITMAP
0C00
0C00
0C00
0C00
0C00
FFC0
FFC0
0C00
0C00
0C00
0C00
0C00
0C00
0C00
0C00
FFC0
FFC0
0C00
0C00
0C00
0C00
0C00
0C00
0C00
ENDCHAR
STARTCHAR 01CD
ENCODING 461
SWIDTH 1000 0
DWIDTH 28 0
BBX 18 23 5 1
BITMAP
061800
01E000
000000
01E000
01E000
03F000
033000
033000
073800
061800
0E1C00
0E1C00
0C0C00
1C0E00
1FFE00
1FFE00
380700
300300
700300
700380
600180
E001C0
E001C0
ENDCHAR
STARTCHAR 01CE
ENCODING 462
SWIDTH 1000 0
DWIDTH 28 0
BBX 13 17 8 1
BITMAP
18C0
0F80
0000
0000
1F80
3FE0
7060
6030
0030
0FF0
3FF0
7030
E030
E070
E0F0
FFF8
7F38
ENDCHAR
STARTCHAR 01D0
ENCODING 464
SWIDTH 1000 0
DWIDTH 28 0
BBX 8 18 10 1
BITMAP
C3
3C
00
00
18
18
18
18
18
18
18
18
18
18
18
18
18
18
ENDCHAR
STARTCHAR 01D1
ENCODING 465
SWIDTH 1000 0
DWIDTH 28 0
BBX 18 22 5 2
BITMAP
061800
01E000
000000
03F000
0FFC00
1E1E00
380700
700380
700380
E001C0
E001C0
E001C0
E001C0
E001C0
E001C0
E001C0
700380
700380
380700
1E1E00
0FFC00
03F000
ENDCHAR
STARTCHAR 01D2
ENCODING 466
SWIDTH 1000 0
DWIDTH 28 0
BBX 14 17 7 2
BITMAP
1860
0780
0000
0FC0
1FE0
3870
7038
E03C
E01C
E01C
E01C
E01C
E03C
7038
7870
3FE0
0FC0
ENDCHAR
STARTCHAR 01D4
ENCODING 468
SWIDTH 1000 0
DWIDTH 28 0
BBX 12 18 8 1
BITMAP
30C0
1F00
0000
0000
C030
C030
C030
C030
C030
C030
C030
C030
C030
C070
E1F0
7FF0
3F30
0030
ENDCHAR
STARTCHAR 01D6
ENCODING 470
SWIDTH 1000 0
DWIDTH 28 0
BBX 12 20 8 1
BITMAP
7FE0
7FE0
6060
6060
0000
0000
C030
C030
C030
C030
C030
C030
C030
C030
C030
C070
E1F0
7FF0
3F30
0030
ENDCHAR
STARTCHAR 01D8
ENCODING 472
SWIDTH 1000 0
DWIDTH 28 0
BBX 12 20 8 1
BITMAP
0180
0700
6060
6060
0000
0000
C030
C030
C030
C030
C030
C030
C030
C030
C030
C070
E1F0
7FF0
3F30
0030
ENDCHAR
STARTCHAR 01DA
ENCODING 474
SWIDTH 1000 0
DWIDTH 28 0
BBX 12 20 8 1
BITMAP
18C0
0F00
3060
3060
0000
0000
C030
C030
C030
C030
C030
C030
C030
C030
C030
C070
E1F0
7FF0
3F30
0030
ENDCHAR
STARTCHAR 01DC
ENCODING 476
SWIDTH 1000 0
DWIDTH 28 0
BBX 12 20 8 1
BITMAP
3800
0E00
6060
6060
0000
0000
C030
C030
C030
C030
C030
C030
C030
C030
C030
C070
E1F0
7FF0
3F30
0030
ENDCHAR
STARTCHAR 01F8
ENCODING 504
SWIDTH 500 0
DWIDTH 14 0
BBX 10 23 2 1
BITMAP
1800
0C00
0000
E0C0
E0C0
E0C0
F0C0
F0C0
D0C0
D8C0
D8C0
C8C0
CCC0
CCC0
C4C0
C6C0
C6C0
C2C0
C3C0
C3C0
C1C0
C1C0
C1C0
ENDCHAR
STARTCHAR 01F9
ENCODING 505
SWIDTH 500 0
DWIDTH 14 0
BBX 10 18 2 1
BITMAP
3800
0C00
0000
0000
CF00
FF80
F1C0
E0C0
C0C0
C0C0
C0C0
C0C0
C0C0
C0C0
C0C0
C0C0
C0C0
C0C0
ENDCHAR
STARTCHAR 01FD
ENCODING 509
SWIDTH 500 0
DWIDTH 14 0
BBX 12 17 1 2
BITMAP
0300
0600
0000
0000
39C0
7FE0
6760
C630
0630
0630
1FF0
7600
C600
C630
C730
FFE0
7DE0
ENDCHAR
STARTCHAR 0250
ENCODING 592
SWIDTH 500 0
DWIDTH 14 0
BBX 11 13 1 3
BITMAP
E780
FFC0
78E0
7060
6060
60E0
61C0
7F80
7C00
6000
60C0
3FC0
1F80
ENDCHAR
STARTCHAR 0251
ENCODING 593
SWIDTH 500 0
DWIDTH 14 0
BBX 11 13 2 1
BITMAP
1EC0
3FC0
71C0
60C0
C0C0
C0C0
C0C0
C0C0
C0C0
E0C0
71C0
3FE0
1E60
ENDCHAR
STARTCHAR 0252
ENCODING 594
SWIDTH 500 0
DWIDTH 14 0
BBX 11 14 1 2
BITMAP
CF00
FF80
71C0
60E0
6060
6060
6060
6060
6060
60C0
71C0
7F80
6F00
6000
ENDCHAR
STARTCHAR 0253
ENCODING 595
SWIDTH 500 0
DWIDTH 14 0
BBX 11 20 2 1
BITMAP
1F00
7F80
E1C0
C0C0
C000
C000
CF00
FF80
F1C0
E0E0
C060
C060
C060
C060
C060
E0C0
F1C0
FF80
DF00
C000
ENDCHAR
STARTCHAR 0254
ENCODING 596
SWIDTH 500 0
DWIDTH 14 0
BBX 10 13 2 2
BITMAP
3E00
7F00
E380
C1C0
00C0
00C0
00C0
00C0
00C0
C1C0
E380
7F00
3E00
ENDCHAR
STARTCHAR 0255
ENCODING 597
SWIDTH 500 0
DWIDTH 14 0
BBX 10 15 2 -1
BITMAP
1F00
3F80
71C0
60C0
C000
C000
C380
CFC0
DCC0
D8C0
71C0
7F80
FE00
C000
8000
ENDCHAR
STARTCHAR 0256
ENCODING 598
SWIDTH 500 0
DWIDTH 14 0
BBX 13 23 1 -2
BITMAP
00C0
00C0
00C0
00C0
00C0
00C0
1EC0
3FC0
63C0
E1C0
C0C0
C0C0
C0C0
C0C0
C0C0
E1C0
63C0
7FC0
1EC0
00C0
00C0
00F8
0078
ENDCHAR
STARTCHAR 0257
ENCODING 599
SWIDTH 500 0
DWIDTH 14 0
BBX 13 20 1 1
BITMAP
0078
00F8
00C0
00C0
00C0
00C0
1EC0
3FC0
63C0
E1C0
C0C0
C0C0
C0C0
C0C0
C0C0
E1C0
63C0
7FC0
1EC0
00C0
ENDCHAR
STARTCHAR 0258
ENCODING 600
SWIDTH 500 0
DWIDTH 14 0
BBX 10 13 2 2
BITMAP
1E00
7F00
6180
E1C0
C0C0
C0C0
FFC0
FFC0
00C0
C0C0
E180
7F00
3E00
ENDCHAR
STARTCHAR 0259
ENCODING 601
SWIDTH 500 0
DWIDTH 14 0
BBX 10 13 2 2
BITMAP
3E00
7F00
E180
C1C0
00C0
00C0
00C0
FFC0
FFC0
C0C0
E180
7F00
3E00
ENDCHAR
STARTCHAR 025A
ENCODING 602
SWIDTH 500 0
DWIDTH 14 0
BBX 12 13 1 2
BITMAP
1C00
7E00
6700
C300
C3C0
03C0
0FF0
3DB0
F180
C380
6300
7F00
3C00
ENDCHAR
STARTCHAR 025C
ENCODING 604
SWIDTH 500 0
DWIDTH 14 0
BBX 10 13 2 2
BITMAP
3E00
7F00
E380
0180
0180
0380
1F00
1F80
01C0
00C0
E1C0
FF80
3F00
ENDCHAR
STARTCHAR 025E
ENCODING 606
SWIDTH 500 0
DWIDTH 14 0
BBX 11 13 1 2
BITMAP
0FC0
3FC0
70E0
6060
C060
C060
C7C0
C7C0
C060
E060
70E0
3FC0
1F80
ENDCHAR
STARTCHAR 025F
ENCODING 607
SWIDTH 500 0
DWIDTH 14 0
BBX 10 18 2 -3
BITMAP
0C00
0C00
0C00
0C00
0C00
0C00
0C00
0C00
0C00
FFC0
FFC0
0C00
0C00
0C00
0C00
0C00
FC00
F800
ENDCHAR
STARTCHAR 0260
ENCODING 608
SWIDTH 500 0
DWIDTH 14 0
BBX 13 23 1 -2
BITMAP
0078
00F8
00C0
00C0
00C0
00C0
1EC0
7FC0
61C0
E0C0
C0C0
C0C0
C0C0
C1C0
61C0
7FC0
1EC0
00C0
00C0
60C0
61C0
7F80
1F00
ENDCHAR
STARTCHAR 0261
ENCODING 609
SWIDTH 500 0
DWIDTH 14 0
BBX 11 17 1 -2
BITMAP
1F60
3FE0
70E0
E060
C060
C060
C060
E0E0
71E0
3FE0
1F60
0060
0060
6060
70E0
3FC0
1F00
ENDCHAR
STARTCHAR 0264
ENCODING 612
SWIDTH 500 0
DWIDTH 14 0
BBX 12 13 1 2
BITMAP
E070
F0F0
1980
0F00
0F00
0600
0F00
0F00
1F80
1980
1980
1F80
0F00
ENDCHAR
STARTCHAR 0265
ENCODING 613
SWIDTH 500 0
DWIDTH 14 0
BBX 10 18 2 -3
BITMAP
C0C0
C0C0
C0C0
C0C0
C0C0
C0C0
C0C0
C0C0
C0C0
C1C0
E3C0
7FC0
3CC0
00C0
00C0
00C0
00C0
00C0
ENDCHAR
STARTCHAR 0266
ENCODING 614
SWIDTH 500 0
DWIDTH 14 0
BBX 10 20 2 1
BITMAP
1E00
7F80
61C0
C0C0
C000
C000
CF00
FF80
F1C0
E0C0
C0C0
C0C0
C0C0
C0C0
C0C0
C0C0
C0C0
C0C0
C0C0
C0C0
ENDCHAR
STARTCHAR 0267
ENCODING 615
SWIDTH 500 0
DWIDTH 14 0
BBX 10 24 2 -3
BITMAP
1E00
7F80
61C0
C0C0
C000
C000
CF00
FF80
F1C0
E0C0
C0C0
C0C0
C0C0
C0C0
C0C0
C0C0
C0C0
C0C0
C0C0
C0C0
00C0
00C0
07C0
0780
ENDCHAR
STARTCHAR 0268
ENCODING 616
SWIDTH 500 0
DWIDTH 14 0
BBX 8 20 3 1
BITMAP
18
18
18
00
00
00
18
18
18
18
18
FF
18
18
18
18
18
18
18
18
ENDCHAR
STARTCHAR 026C
ENCODING 620
SWIDTH 500 0
DWIDTH 14 0
BBX 9 20 2 1
BITMAP
0C00
0C00
0C00
0C00
0C00
0C00
7C00
8C00
8C00
EC00
3F80
0C00
0C00
0C00
0C00
0C00
0C00
0C00
0C00
0C00
ENDCHAR
STARTCHAR 026D
ENCODING 621
SWIDTH 500 0
DWIDTH 14 0
BBX 6 24 6 -3
BITMAP
C0
C0
C0
C0
C0
C0
C0
C0
C0
C0
C0
C0
C0
C0
C0
C0
C0
C0
C0
C0
C0
C0
FC
7C
ENDCHAR
STARTCHAR 026E
ENCODING 622
SWIDTH 500 0
DWIDTH 14 0
BBX 11 24 2 -3
BITMAP
C000
C000
C000
C000
C000
C000
FFC0
FFC0
C1C0
C380
C700
CC00
DF00
DFC0
C1C0
C0E0
C060
C060
C060
C060
00E0
31C0
3F80
1F00
ENDCHAR
STARTCHAR 026F
ENCODING 623
SWIDTH 500 0
DWIDTH 14 0
BBX 12 14 1 1
BITMAP
C630
C630
C630
C630
C630
C630
C630
C630
C630
C630
CE30
FFF0
7BF0
0030
ENDCHAR
STARTCHAR 0270
ENCODING 624
SWIDTH 500 0
DWIDTH 14 0
BBX 12 18 1 -3
BITMAP
C630
C630
C630
C630
C630
C630
C630
C630
C630
C630
CE30
FFF0
7BF0
0030
0030
0030
0030
0030
ENDCHAR
STARTCHAR 0271
ENCODING 625
SWIDTH 500 0
DWIDTH 14 0
BBX 12 18 1 -3
BITMAP
DCE0
FFF0
C730
C630
C630
C630
C630
C630
C630
C630
C630
C630
C630
C630
0030
0030
01F0
01E0
ENDCHAR
STARTCHAR 0272
ENCODING 626
SWIDTH 500 0
DWIDTH 14 0
BBX 12 18 0 -3
BITMAP
1BC0
1FE0
1E70
1C30
1830
1830
1830
1830
1830
1830
1830
1830
1830
1830
1800
1800
F800
F000
ENDCHAR
STARTCHAR 0273
ENCODING 627
SWIDTH 500 0
DWIDTH 14 0
BBX 12 18 2 -3
BITMAP
DE00
FF00
F380
E180
C180
C180
C180
C180
C180
C180
C180
C180
C180
C180
0180
0180
01F0
00F0
ENDCHAR
STARTCHAR 0275
ENCODING 629
SWIDTH 500 0
DWIDTH 14 0
BBX 10 13 2 2
BITMAP
1E00
3F00
6180
E1C0
C0C0
C0C0
FFC0
FFC0
C0C0
C0C0
6180
3F00
1E00
ENDCHAR
STARTCHAR 0279
ENCODING 633
SWIDTH 500 0
DWIDTH 14 0
BBX 7 14 3 0
BITMAP
06
06
06
06
06
06
06
06
06
0E
1E
7E
F6
C6
ENDCHAR
STARTCHAR 027A
ENCODING 634
SWIDTH 500 0
DWIDTH 14 0
BBX 7 20 3 0
BITMAP
06
06
06
06
06
06
06
06
06
06
06
06
06
06
06
0E
1E
3E
F6
C6
ENDCHAR
STARTCHAR 027B
ENCODING 635
SWIDTH 500 0
DWIDTH 14 0
BBX 10 17 3 -3
BITMAP
0600
0600
0600
0600
0600
0600
0600
0600
0600
0E00
3E00
F600
E600
8600
0600
07C0
03C0
ENDCHAR
STARTCHAR 027D
ENCODING 637
SWIDTH 500 0
DWIDTH 14 0
BBX 7 17 4 -2
BITMAP
C6
DE
F8
F0
E0
C0
C0
C0
C0
C0
C0
C0
C0
C0
C0
FC
7C
ENDCHAR
STARTCHAR 027E
ENCODING 638
SWIDTH 500 0
DWIDTH 14 0
BBX 6 14 5 1
BITMAP
7C
FC
C0
C0
C0
C0
C0
C0
C0
C0
C0
C0
C0
C0
ENDCHAR
STARTCHAR 0281
ENCODING 641
SWIDTH 500 0
DWIDTH 14 0
BBX 11 14 2 1
BITMAP
C060
C0C0
C1C0
C180
C300
C300
FF00
FF80
C1C0
C0C0
C0C0
C1C0
FF80
FF00
ENDCHAR
STARTCHAR 0282
ENCODING 642
SWIDTH 500 0
DWIDTH 14 0
BBX 10 17 2 -2
BITMAP
3E00
7F80
E180
C1C0
E000
7800
0F00
0180
00C0
C0C0
E1C0
FF80
FF00
C000
C000
F000
7000
ENDCHAR
STARTCHAR 0283
ENCODING 643
SWIDTH 500 0
DWIDTH 14 0
BBX 8 24 3 -3
BITMAP
0F
1F
18
18
18
18
18
18
18
18
18
18
18
18
18
18
18
18
18
18
18
18
F8
F0
ENDCHAR
STARTCHAR 0284
ENCODING 644
SWIDTH 500 0
DWIDTH 14 0
BBX 8 23 3 -3
BITMAP
0F
1F
18
18
18
18
18
18
18
18
18
18
18
18
18
FF
FF
18
18
18
18
F8
F0
ENDCHAR
STARTCHAR 0288
ENCODING 648
SWIDTH 500 0
DWIDTH 14 0
BBX 8 20 3 -3
BITMAP
30
30
30
FF
FF
30
30
30
30
30
30
30
30
30
30
30
30
30
3F
1F
ENDCHAR
STARTCHAR 0289
ENCODING 649
SWIDTH 500 0
DWIDTH 14 0
BBX 12 14 1 1
BITMAP
6060
6060
6060
6060
6060
FFF0
6060
6060
6060
6060
71E0
3FE0
1F60
0060
ENDCHAR
STARTCHAR 028A
ENCODING 650
SWIDTH 500 0
DWIDTH 14 0
BBX 12 13 1 2
BITMAP
F9F0
F9F0
1980
30C0
30C0
6060
6060
6060
6060
7060
70C0
3FC0
1F00
ENDCHAR
STARTCHAR 028B
ENCODING 651
SWIDTH 500 0
DWIDTH 14 0
BBX 10 13 2 3
BITMAP
C180
C180
C0C0
C0C0
C0C0
C0C0
C0C0
C0C0
C1C0
C180
E380
7F00
3C00
ENDCHAR
STARTCHAR 028C
ENCODING 652
SWIDTH 500 0
DWIDTH 14 0
BBX 10 14 2 1
BITMAP
0C00
1E00
1E00
1E00
3300
3300
3300
7380
6180
6180
6180
E0C0
C0C0
C0C0
ENDCHAR
STARTCHAR 028D
ENCODING 653
SWIDTH 500 0
DWIDTH 14 0
BBX 12 14 1 1
BITMAP
30C0
30C0
70E0
79E0
79E0
79E0
6960
6960
4F20
CF30
CF30
CF30
C630
C630
ENDCHAR
STARTCHAR 028E
ENCODING 654
SWIDTH 500 0
DWIDTH 14 0
BBX 11 20 1 1
BITMAP
01E0
03E0
0300
0300
0600
0600
0600
0C00
0E00
0E00
1B00
1B00
1B00
3980
3180
3180
70C0
60C0
60E0
E060
ENDCHAR
STARTCHAR 0290
ENCODING 656
SWIDTH 500 0
DWIDTH 14 0
BBX 12 18 2 -3
BITMAP
FF80
FF80
0380
0700
0600
0C00
1C00
1800
3000
3000
6000
C000
FF80
FF80
0180
0180
01F0
00F0
ENDCHAR
STARTCHAR 0291
ENCODING 657
SWIDTH 500 0
DWIDTH 14 0
BBX 11 16 2 -2
BITMAP
7FC0
7FC0
01C0
0380
0700
0600
0E00
1C00
39C0
3BE0
7360
E660
FFE0
FFC0
0C00
1800
ENDCHAR
STARTCHAR 0292
ENCODING 658
SWIDTH 500 0
DWIDTH 14 0
BBX 11 18 2 -3
BITMAP
7FC0
7FC0
0380
0700
0E00
1C00
7F00
3F80
21C0
00E0
0060
0060
0060
C060
E0E0
71C0
3F80
1F00
ENDCHAR
STARTCHAR 0294
ENCODING 660
SWIDTH 500 0
DWIDTH 14 0
BBX 10 20 2 1
BITMAP
3E00
7F00
E380
C180
00C0
00C0
00C0
00C0
00C0
00C0
01C0
0180
0780
1F00
1C00
1800
1800
1800
1800
1800
ENDCHAR
STARTCHAR 0295
ENCODING 661
SWIDTH 500 0
DWIDTH 14 0
BBX 10 20 2 1
BITMAP
1F00
3F80
71C0
60C0
C000
C000
C000
C000
C000
C000
E000
6000
3800
3E00
0E00
0600
0600
0600
0600
0600
ENDCHAR
STARTCHAR 0298
ENCODING 664
SWIDTH 500 0
DWIDTH 14 0
BBX 12 13 1 2
BITMAP
1F00
30C0
6060
4020
8610
8F10
8F10
8F10
8610
4020
6020
30C0
0F00
ENDCHAR
STARTCHAR 029D
ENCODING 669
SWIDTH 500 0
DWIDTH 14 0
BBX 11 24 0 -3
BITMAP
0300
0300
0300
0000
0000
0000
0180
0180
0180
0180
0180
0180
0180
0180
0180
0180
0180
7D80
FF80
C380
C3C0
E3E0
7F60
3E00
ENDCHAR
STARTCHAR 02A1
ENCODING 673
SWIDTH 500 0
DWIDTH 14 0
BBX 10 20 2 1
BITMAP
3E00
7F00
E380
C180
00C0
00C0
00C0
00C0
00C0
00C0
01C0
0180
0380
1F00
1C00
1800
FF00
1800
1800
1800
ENDCHAR
STARTCHAR 02A2
ENCODING 674
SWIDTH 500 0
DWIDTH 14 0
BBX 10 20 2 1
BITMAP
1F00
3F80
71C0
60C0
C000
C000
C000
C000
C000
C000
E000
6000
7000
3E00
0E00
0600
3FC0
0600
0600
0600
ENDCHAR
STARTCHAR 02C7
ENCODING 711
SWIDTH 500 0
DWIDTH 14 0
BBX 10 3 2 18
BITMAP
E1C0
3300
1E00
ENDCHAR
STARTCHAR 02C8
ENCODING 712
SWIDTH 500 0
DWIDTH 14 0
BBX 2 3 6 21
BITMAP
C0
C0
C0
ENDCHAR
STARTCHAR 02CC
ENCODING 716
SWIDTH 500 0
DWIDTH 14 0
BBX 2 3 6 -3
BITMAP
C0
C0
C0
ENDCHAR
STARTCHAR 02D0
ENCODING 720
SWIDTH 500 0
DWIDTH 14 0
BBX 4 14 5 1
BITMAP
F0
F0
60
60
00
00
00
00
00
00
60
60
F0
F0
ENDCHAR
STARTCHAR 02D1
ENCODING 721
SWIDTH 500 0
DWIDTH 14 0
BBX 4 4 5 10
BITMAP
F0
F0
60
60
ENDCHAR
STARTCHAR 02D8
ENCODING 728
SWIDTH 500 0
DWIDTH 14 0
BBX 10 4 2 17
BITMAP
C0C0
6180
3F00
1E00
ENDCHAR
STARTCHAR 02D9
ENCODING 729
SWIDTH 500 0
DWIDTH 14 0
BBX 3 3 5 18
BITMAP
E0
E0
E0
ENDCHAR
STARTCHAR 02DB
ENCODING 731
SWIDTH 500 0
DWIDTH 14 0
BBX 7 6 3 -1
BITMAP
18
60
E0
C0
C6
7C
ENDCHAR
STARTCHAR 02DC
ENCODING 732
SWIDTH 500 0
DWIDTH 14 0
BBX 10 3 2 18
BITMAP
F840
FFC0
0780
ENDCHAR
STARTCHAR 02DD
ENCODING 733
SWIDTH 500 0
DWIDTH 14 0
BBX 10 3 2 18
BITMAP
39C0
7300
E600
ENDCHAR
STARTCHAR 02DE
ENCODING 734
SWIDTH 500 0
DWIDTH 14 0
BBX 9 6 2 7
BITMAP
1000
F000
5000
1080
0900
0700
ENDCHAR
STARTCHAR 02E5
ENCODING 741
SWIDTH 500 0
DWIDTH 14 0
BBX 7 28 3 -3
BITMAP
FE
FE
06
06
06
06
06
06
06
06
06
06
06
06
06
06
06
06
06
06
06
06
06
06
06
06
06
06
ENDCHAR
STARTCHAR 02E6
ENCODING 742
SWIDTH 500 0
DWIDTH 14 0
BBX 7 28 3 -3
BITMAP
06
06
06
06
06
06
06
FE
FE
06
06
06
06
06
06
06
06
06
06
06
06
06
06
06
06
06
06
06
ENDCHAR
STARTCHAR 02E7
ENCODING 743
SWIDTH 500 0
DWIDTH 14 0
BBX 7 28 3 -3
BITMAP
06
06
06
06
06
06
06
06
06
06
06
06
06
06
FE
FE
06
06
06
06
06
06
06
06
06
06
06
06
ENDCHAR
STARTCHAR 02E8
ENCODING 744
SWIDTH 500 0
DWIDTH 14 0
BBX 7 28 3 -3
BITMAP
06
06
06
06
06
06
06
06
06
06
06
06
06
06
06
06
06
06
06
06
FE
FE
06
06
06
06
06
06
ENDCHAR
STARTCHAR 02E9
ENCODING 745
SWIDTH 500 0
DWIDTH 14 0
BBX 7 28 3 -3
BITMAP
06
06
06
06
06
06
06
06
06
06
06
06
06
06
06
06
06
06
06
06
06
06
06
06
06
06
FE
FE
ENDCHAR
STARTCHAR 0300
ENCODING 768
SWIDTH 500 0
DWIDTH 14 0
BBX 3 2 5 22
BITMAP
C0
60
ENDCHAR
STARTCHAR 0301
ENCODING 769
SWIDTH 500 0
DWIDTH 14 0
BBX 3 2 6 22
BITMAP
60
C0
ENDCHAR
STARTCHAR 0302
ENCODING 770
SWIDTH 500 0
DWIDTH 14 0
BBX 6 2 4 22
BITMAP
78
CC
ENDCHAR
STARTCHAR 0303
ENCODING 771
SWIDTH 500 0
DWIDTH 14 0
BBX 6 2 4 22
BITMAP
F4
1C
ENDCHAR
STARTCHAR 0304
ENCODING 772
SWIDTH 500 0
DWIDTH 14 0
BBX 8 1 3 23
BITMAP
FF
ENDCHAR
STARTCHAR 0306
ENCODING 774
SWIDTH 500 0
DWIDTH 14 0
BBX 8 2 3 22
BITMAP
C3
3C
ENDCHAR
STARTCHAR 0308
ENCODING 776
SWIDTH 500 0
DWIDTH 14 0
BBX 8 2 3 22
BITMAP
E7
E7
ENDCHAR
STARTCHAR 030B
ENCODING 779
SWIDTH 500 0
DWIDTH 14 0
BBX 7 2 4 22
BITMAP
76
C8
ENDCHAR
STARTCHAR 030C
ENCODING 780
SWIDTH 500 0
DWIDTH 14 0
BBX 6 2 4 22
BITMAP
CC
78
ENDCHAR
STARTCHAR 030F
ENCODING 783
SWIDTH 500 0
DWIDTH 14 0
BBX 7 2 3 22
BITMAP
DC
26
ENDCHAR
STARTCHAR 0318
ENCODING 792
SWIDTH 500 0
DWIDTH 14 0
BBX 4 3 4 -3
BITMAP
10
F0
10
ENDCHAR
STARTCHAR 0319
ENCODING 793
SWIDTH 500 0
DWIDTH 14 0
BBX 4 3 6 -3
BITMAP
80
F0
80
ENDCHAR
STARTCHAR 031A
ENCODING 794
SWIDTH 500 0
DWIDTH 14 0
BBX 5 3 8 21
BITMAP
F8
08
08
ENDCHAR
STARTCHAR 031C
ENCODING 796
SWIDTH 500 0
DWIDTH 14 0
BBX 3 3 5 -3
BITMAP
E0
80
60
ENDCHAR
STARTCHAR 031D
ENCODING 797
SWIDTH 500 0
DWIDTH 14 0
BBX 6 3 4 -3
BITMAP
20
20
FC
ENDCHAR
STARTCHAR 031E
ENCODING 798
SWIDTH 500 0
DWIDTH 14 0
BBX 6 3 4 -3
BITMAP
FC
20
20
ENDCHAR
STARTCHAR 031F
ENCODING 799
SWIDTH 500 0
DWIDTH 14 0
BBX 6 3 4 -3
BITMAP
20
FC
20
ENDCHAR
STARTCHAR 0320
ENCODING 800
SWIDTH 500 0
DWIDTH 14 0
BBX 6 1 4 -2
BITMAP
FC
ENDCHAR
STARTCHAR 0324
ENCODING 804
SWIDTH 500 0
DWIDTH 14 0
BBX 8 2 3 -3
BITMAP
E7
E7
ENDCHAR
STARTCHAR 0325
ENCODING 805
SWIDTH 500 0
DWIDTH 14 0
BBX 4 5 5 -3
BITMAP
60
90
90
90
60
ENDCHAR
STARTCHAR 0329
ENCODING 809
SWIDTH 500 0
DWIDTH 14 0
BBX 2 3 6 -3
BITMAP
C0
C0
C0
ENDCHAR
STARTCHAR 032A
ENCODING 810
SWIDTH 500 0
DWIDTH 14 0
BBX 6 3 4 -3
BITMAP
FC
84
84
ENDCHAR
STARTCHAR 032C
ENCODING 812
SWIDTH 500 0
DWIDTH 14 0
BBX 6 3 4 -3
BITMAP
84
78
78
ENDCHAR
STARTCHAR 032F
ENCODING 815
SWIDTH 500 0
DWIDTH 14 0
BBX 8 3 3 -3
BITMAP
3C
66
C3
ENDCHAR
STARTCHAR 0330
ENCODING 816
SWIDTH 500 0
DWIDTH 14 0
BBX 6 2 4 -2
BITMAP
E0
9C
ENDCHAR
STARTCHAR 0334
ENCODING 820
SWIDTH 500 0
DWIDTH 14 0
BBX 6 3 4 9
BITMAP
E0
B4
18
ENDCHAR
STARTCHAR 0339
ENCODING 825
SWIDTH 500 0
DWIDTH 14 0
BBX 3 3 6 -3
BITMAP
E0
20
C0
ENDCHAR
STARTCHAR 033A
ENCODING 826
SWIDTH 500 0
DWIDTH 14 0
BBX 6 3 4 -3
BITMAP
84
84
FC
ENDCHAR
STARTCHAR 033B
ENCODING 827
SWIDTH 500 0
DWIDTH 14 0
BBX 6 3 4 -3
BITMAP
FC
84
FC
ENDCHAR
STARTCHAR 033C
ENCODING 828
SWIDTH 500 0
DWIDTH 14 0
BBX 10 2 2 -3
BITMAP
7380
CCC0
ENDCHAR
STARTCHAR 033D
ENCODING 829
SWIDTH 500 0
DWIDTH 14 0
BBX 6 2 4 22
BITMAP
FC
FC
ENDCHAR
STARTCHAR 0361
ENCODING 865
SWIDTH 500 0
DWIDTH 14 0
BBX 12 3 1 21
BITMAP
1F80
E070
8010
ENDCHAR
STARTCHAR 0391
ENCODING 913
SWIDTH 1000 0
DWIDTH 28 0
BBX 18 20 5 1
BITMAP
01E000
01E000
03F000
033000
033000
073800
061800
0E1C00
0E1C00
0C0C00
1C0E00
1FFE00
1FFE00
380700
300300
700380
700380
600180
E001C0
E001C0
ENDCHAR
STARTCHAR 0392
ENCODING 914
SWIDTH 1000 0
DWIDTH 28 0
BBX 15 20 7 1
BITMAP
FFE0
FFF8
C01C
C006
C006
C006
C00E
C01C
FFF0
FFF0
C01C
C00C
C006
C006
C006
C006
C00E
C01C
FFF8
FFE0
ENDCHAR
STARTCHAR 0393
ENCODING 915
SWIDTH 1000 0
DWIDTH 28 0
BBX 15 20 7 1
BITMAP
FFFE
FFFE
C000
C000
C000
C000
C000
C000
C000
C000
C000
C000
C000
C000
C000
C000
C000
C000
C000
C000
ENDCHAR
STARTCHAR 0394
ENCODING 916
SWIDTH 1000 0
DWIDTH 28 0
BBX 20 20 4 1
BITMAP
00F000
00F000
01F800
01F800
019800
039C00
030C00
070E00
070E00
0E0700
0E0700
0C0300
1C0380
1C0380
3801C0
3801C0
3000C0
7000E0
7FFFE0
FFFFF0
ENDCHAR
STARTCHAR 0395
ENCODING 917
SWIDTH 1000 0
DWIDTH 28 0
BBX 15 20 7 1
BITMAP
FFFC
FFFC
C000
C000
C000
C000
C000
C000
FFF8
FFF8
C000
C000
C000
C000
C000
C000
C000
C000
FFFE
FFFE
ENDCHAR
STARTCHAR 0396
ENCODING 918
SWIDTH 1000 0
DWIDTH 28 0
BBX 16 20 6 1
BITMAP
7FFE
7FFE
000E
001C
0038
0070
0070
00E0
01C0
0380
0380
0700
0E00
1E00
1C00
3800
7000
F000
FFFF
FFFF
ENDCHAR
STARTCHAR 0397
ENCODING 919
SWIDTH 1000 0
DWIDTH 28 0
BBX 16 20 6 1
BITMAP
C003
C003
C003
C003
C003
C003
C003
C003
FFFF
FFFF
C003
C003
C003
C003
C003
C003
C003
C003
C003
C003
ENDCHAR
STARTCHAR 0398
ENCODING 920
SWIDTH 1000 0
DWIDTH 28 0
BBX 18 21 5 1
BITMAP
03F000
0FFC00
1C0E00
380700
300300
600180
600180
C000C0
C000C0
C000C0
CFFCC0
CFFCC0
C000C0
C000C0
600180
600180
700380
380700
1C0E00
0FFC00
03F000
ENDCHAR
STARTCHAR 0399
ENCODING 921
SWIDTH 1000 0
DWIDTH 28 0
BBX 2 20 13 1
BITMAP
C0
C0
C0
C0
C0
C0
C0
C0
C0
C0
C0
C0
C0
C0
C0
C0
C0
C0
C0
C0
ENDCHAR
STARTCHAR 039A
ENCODING 922
SWIDTH 1000 0
DWIDTH 28 0
BBX 16 20 6 1
BITMAP
C01E
C03C
C078
C0F0
C1E0
C3C0
C700
CE00
DF00
FF00
F380
E1C0
C0E0
C0F0
C070
C038
C01C
C01E
C00F
C007
ENDCHAR
STARTCHAR 039B
ENCODING 923
SWIDTH 1000 0
DWIDTH 28 0
BBX 18 20 5 1
BITMAP
01E000
01E000
01E000
03F000
033000
073800
073800
061800
0E1C00
0E1C00
0C0C00
1C0E00
180600
380700
380700
300300
700380
700380
E001C0
E001C0
ENDCHAR
STARTCHAR 039C
ENCODING 924
SWIDTH 1000 0
DWIDTH 28 0
BBX 20 20 4 1
BITMAP
F000F0
F000F0
F000F0
F801F0
D801B0
D803B0
CC0330
CC0330
CE0730
C60630
C60E30
C70E30
C30C30
C39C30
C39830
C19830
C1F830
C0F030
C0F030
C0F030
ENDCHAR
STARTCHAR 039D
ENCODING 925
SWIDTH 1000 0
DWIDTH 28 0
BBX 16 20 6 1
BITMAP
F003
F003
F803
DC03
DC03
CE03
C603
C703
C383
C183
C1C3
C0E3
C063
C073
C03B
C01B
C01F
C00F
C007
C007
ENDCHAR
STARTCHAR 039E
ENCODING 926
SWIDTH 1000 0
DWIDTH 28 0
BBX 16 20 6 1
BITMAP
7FFF
7FFF
0000
0000
0000
0000
0000
0000
7FFE
7FFE
0000
0000
0000
0000
0000
0000
0000
0000
FFFF
FFFF
ENDCHAR
STARTCHAR 039F
ENCODING 927
SWIDTH 1000 0
DWIDTH 28 0
BBX 18 21 5 1
BITMAP
03F000
0FFC00
1C0E00
380700
300300
600180
600180
C000C0
C000C0
C000C0
C000C0
C000C0
C000C0
C000C0
600180
600180
700380
380700
1C0E00
0FFC00
03F000
ENDCHAR
STARTCHAR 03A0
ENCODING 928
SWIDTH 1000 0
DWIDTH 28 0
BBX 16 20 6 1
BITMAP
FFFF
FFFF
C003
C003
C003
C003
C003
C003
C003
C003
C003
C003
C003
C003
C003
C003
C003
C003
C003
C003
ENDCHAR
STARTCHAR 03A1
ENCODING 929
SWIDTH 1000 0
DWIDTH 28 0
BBX 14 20 7 1
BITMAP
FFC0
FFF0
C038
C01C
C00C
C00C
C00C
C01C
C038
FFF0
FFC0
C000
C000
C000
C000
C000
C000
C000
C000
C000
ENDCHAR
STARTCHAR 03A3
ENCODING 931
SWIDTH 1000 0
DWIDTH 28 0
BBX 16 20 6 1
BITMAP
FFFF
FFFF
7000
3800
1C00
0E00
0700
0380
01C0
00E0
01C0
0380
0700
0E00
1C00
3800
7000
E000
FFFF
FFFF
ENDCHAR
STARTCHAR 03A4
ENCODING 932
SWIDTH 1000 0
DWIDTH 28 0
BBX 18 20 5 1
BITMAP
FFFFC0
FFFFC0
00C000
00C000
00C000
00C000
00C000
00C000
00C000
00C000
00C000
00C000
00C000
00C000
00C000
00C000
00C000
00C000
00C000
00C000
ENDCHAR
STARTCHAR 03A5
ENCODING 933
SWIDTH 1000 0
DWIDTH 28 0
BBX 18 20 5 1
BITMAP
F003C0
700380
380700
380700
1C0E00
0E1C00
0E1C00
073800
033000
01E000
01E000
00C000
00C000
00C000
00C000
00C000
00C000
00C000
00C000
00C000
ENDCHAR
STARTCHAR 03A6
ENCODING 934
SWIDTH 1000 0
DWIDTH 28 0
BBX 18 20 5 1
BITMAP
00C000
00C000
00C000
07F800
1FFE00
38C700
60C380
E0C1C0
C0C0C0
C0C0C0
C0C0C0
C0C0C0
E0C1C0
70C180
38C700
1FFE00
07F800
00C000
00C000
00C000
ENDCHAR
STARTCHAR 03A7
ENCODING 935
SWIDTH 1000 0
DWIDTH 28 0
BBX 18 20 5 1
BITMAP
700380
380700
3C0F00
1C0E00
0E1C00
073800
073800
03F000
01E000
00C000
01E000
03F000
073800
0F3C00
0E1C00
1C0E00
380700
780780
F00380
E001C0
ENDCHAR
STARTCHAR 03A8
ENCODING 936
SWIDTH 1000 0
DWIDTH 28 0
BBX 16 20 6 1
BITMAP
C183
C183
C183
C183
C183
C183
C183
C183
C183
C183
E187
6186
799E
3FFC
0FF0
0180
0180
0180
0180
0180
ENDCHAR
STARTCHAR 03A9
ENCODING 937
SWIDTH 1000 0
DWIDTH 28 0
BBX 20 21 4 1
BITMAP
01F800
0FFE00
1E0780
3801C0
7000E0
600060
E00070
C00030
C00030
C00030
C00030
C00030
E00070
600060
3000C0
3801C0
0E0700
070E00
030C00
FF0FF0
FF0FF0
ENDCHAR
STARTCHAR 03B1
ENCODING 945
SWIDTH 1000 0
DWIDTH 28 0
BBX 17 15 5 1
BITMAP
008000
07E380
0FF300
1C7700
383600
703E00
603C00
603800
C03800
C07000
C07980
C1D980
E39B80
7F1F00
3C0E00
ENDCHAR
STARTCHAR 03B2
ENCODING 946
SWIDTH 1000 0
DWIDTH 28 0
BBX 16 25 5 -3
BITMAP
0078
01FE
01C6
0303
0703
0603
0E03
0C07
0C06
19DC
19F0
1818
380C
3006
3006
3006
3006
780E
7E1C
67F8
61F0
6000
6000
6000
E000
ENDCHAR
STARTCHAR 03B3
ENCODING 947
SWIDTH 1000 0
DWIDTH 28 0
BBX 16 19 6 -3
BITMAP
1C00
3E02
7F07
E30E
431C
01B8
01B0
01E0
01E0
01C0
0180
0180
0380
0300
0700
0700
0700
0700
0600
ENDCHAR
STARTCHAR 03B4
ENCODING 948
SWIDTH 1000 0
DWIDTH 28 0
BBX 14 21 7 1
BITMAP
0780
1FE0
18F0
183C
1C1C
0C00
0700
0380
07C0
1FE0
3860
7030
6030
C030
C030
C030
C060
C0E0
61C0
7F80
1E00
ENDCHAR
STARTCHAR 03B5
ENCODING 949
SWIDTH 1000 0
DWIDTH 28 0
BBX 12 14 8 2
BITMAP
1FC0
3FF0
6070
6000
6000
3700
3F80
7780
C000
C000
C060
E1E0
7FC0
3F00
ENDCHAR
STARTCHAR 03B6
ENCODING 950
SWIDTH 1000 0
DWIDTH 28 0
BBX 14 25 8 -3
BITMAP
081C
1C7C
30F8
31F0
3FC0
1F00
0E00
1C00
1800
3800
3000
6000
6000
C000
C000
C000
C000
7F00
07C0
00E0
0060
2060
78E0
3FC0
0F80
ENDCHAR
STARTCHAR 03B7
ENCODING 951
SWIDTH 1000 0
DWIDTH 28 0
BBX 15 18 6 -3
BITMAP
1838
7CFC
E786
C706
0706
0606
0E0E
0C0C
0C0C
1C0C
181C
1818
3818
3018
0038
0038
0030
0030
ENDCHAR
STARTCHAR 03B8
ENCODING 952
SWIDTH 1000 0
DWIDTH 28 0
BBX 14 21 7 1
BITMAP
03E0
07F0
0E18
1C18
380C
300C
700C
600C
600C
FFFC
FFFC
C01C
C018
C038
C038
C030
C070
60E0
71C0
3F80
1F00
ENDCHAR
STARTCHAR 03B9
ENCODING 953
SWIDTH 1000 0
DWIDTH 28 0
BBX 9 14 9 1
BITMAP
0C00
1C00
1800
3800
3000
7000
6000
6000
C000
C180
C380
C700
7E00
3C00
ENDCHAR
STARTCHAR 03BA
ENCODING 954
SWIDTH 1000 0
DWIDTH 28 0
BBX 14 14 7 2
BITMAP
1C0C
183C
18F8
19E0
3F80
3E00
3E00
3300
7300
6300
618C
E19C
E1F8
C0E0
ENDCHAR
STARTCHAR 03BB
ENCODING 955
SWIDTH 1000 0
DWIDTH 28 0
BBX 15 21 6 1
BITMAP
0780
1FC0
3CE0
3060
0060
0060
0060
0060
00E0
01E0
01E0
03F0
0730
0630
0E30
1C30
1818
3818
701C
E00C
E00E
ENDCHAR
STARTCHAR 03BC
ENCODING 956
SWIDTH 1000 0
DWIDTH 28 0
BBX 19 18 5 -3
BITMAP
0E0600
0C0600
0C0600
0C0C00
1C0C00
180C00
180C00
181800
381800
381860
3838E0
3C68C0
37EF80
738700
600000
600000
600000
E00000
ENDCHAR
STARTCHAR 03BD
ENCODING 957
SWIDTH 1000 0
DWIDTH 28 0
BBX 13 14 8 1
BITMAP
E038
6038
6038
3038
3030
3070
3070
30E0
30E0
31C0
6780
7E00
7C00
E000
ENDCHAR
STARTCHAR 03BE
ENCODING 958
SWIDTH 1000 0
DWIDTH 28 0
BBX 13 25 7 -3
BITMAP
0C78
07F8
07F0
0C00
1800
3000
3000
3800
1EF0
07F0
1EF0
3000
6000
C000
C000
E000
F800
7FC0
1FE0
01F0
0030
2030
3070
3FE0
0F80
ENDCHAR
STARTCHAR 03BF
ENCODING 959
SWIDTH 1000 0
DWIDTH 28 0
BBX 12 14 8 2
BITMAP
0FC0
1FE0
3870
7030
6030
C030
C030
C030
C070
C060
C0E0
61C0
3F80
1F00
ENDCHAR
STARTCHAR 03C0
ENCODING 960
SWIDTH 1000 0
DWIDTH 28 0
BBX 16 15 7 2
BITMAP
0002
7FFF
FFFC
CC60
9C60
18C0
18C0
38C0
30C0
3180
7182
6186
618E
E1FC
E0F0
ENDCHAR
STARTCHAR 03C1
ENCODING 961
SWIDTH 1000 0
DWIDTH 28 0
BBX 14 18 6 -2
BITMAP
03E0
07F0
0E18
1C0C
180C
300C
300C
300C
700C
7018
7838
6C70
6FE0
67C0
6000
E000
E000
E000
ENDCHAR
STARTCHAR 03C2
ENCODING 962
SWIDTH 500 0
DWIDTH 14 0
BBX 11 17 2 -2
BITMAP
1F00
7F80
71C0
C0E0
C040
C000
C000
6000
3000
1800
0C00
0600
0300
0300
C700
FE00
7C00
ENDCHAR
STARTCHAR 03C3
ENCODING 963
SWIDTH 1000 0
DWIDTH 28 0
BBX 15 14 8 1
BITMAP
07FE
1FFC
3860
7030
6030
E030
C030
C030
C070
C060
C0E0
61C0
7F80
1E00
ENDCHAR
STARTCHAR 03C4
ENCODING 964
SWIDTH 1000 0
DWIDTH 28 0
BBX 15 15 7 1
BITMAP
0004
3FFE
FFF8
6300
0700
0600
0E00
0C00
0C00
1800
1800
1830
18F0
0FE0
0780
ENDCHAR
STARTCHAR 03C5
ENCODING 965
SWIDTH 1000 0
DWIDTH 28 0
BBX 15 14 6 2
BITMAP
3E18
7E1C
E60C
C606
0C06
0C06
1806
1806
300C
300C
3018
3870
1FE0
0FC0
ENDCHAR
STARTCHAR 03C6
ENCODING 966
SWIDTH 1000 0
DWIDTH 28 0
BBX 16 23 6 -3
BITMAP
0030
0070
0060
0060
0060
07F0
1FFC
38CE
70C6
6183
C183
C183
C183
C303
E306
630E
3B7C
1FF0
0700
0600
0E00
0E00
0C00
ENDCHAR
STARTCHAR 03C7
ENCODING 967
SWIDTH 1000 0
DWIDTH 28 0
BBX 15 19 6 -3
BITMAP
0400
1E0E
7F1C
6318
0338
0370
03E0
01C0
01C0
0380
0380
0780
0F80
1CC0
18C4
38C6
70CC
707C
E070
ENDCHAR
STARTCHAR 03C8
ENCODING 968
SWIDTH 1000 0
DWIDTH 28 0
BBX 16 23 6 -3
BITMAP
0030
0070
0060
0060
0060
08C4
3CCE
38C6
61C7
E183
C183
C183
C383
C307
E306
630E
3F7C
1FF0
0700
0600
0E00
0C00
0C00
ENDCHAR
STARTCHAR 03C9
ENCODING 969
SWIDTH 1000 0
DWIDTH 28 0
BBX 18 14 5 2
BITMAP
040300
0E0380
1C0180
386180
7060C0
60E0C0
E0E0C0
C0C0C0
C0C0C0
C1C1C0
C1C180
E3E380
7E7F00
3C3C00
ENDCHAR
STARTCHAR 0401
ENCODING 1025
SWIDTH 1000 0
DWIDTH 28 0
BBX 15 23 7 1
BITMAP
3030
3030
0000
FFFC
FFFC
C000
C000
C000
C000
C000
C000
FFF8
FFF8
C000
C000
C000
C000
C000
C000
C000
C000
FFFE
FFFE
ENDCHAR
STARTCHAR 0410
ENCODING 1040
SWIDTH 1000 0
DWIDTH 28 0
BBX 18 20 5 1
BITMAP
01E000
01E000
03F000
033000
033000
073800
061800
0E1C00
0E1C00
0C0C00
1C0E00
1FFE00
1FFE00
380700
300300
700380
700380
600180
E001C0
E001C0
ENDCHAR
STARTCHAR 0411
ENCODING 1041
SWIDTH 1000 0
DWIDTH 28 0
BBX 16 20 7 1
BITMAP
FFFE
FFFE
C000
C000
C000
C000
C000
C000
FFF0
FFFC
C01E
C006
C003
C003
C003
C003
C006
C00E
FFFC
FFF0
ENDCHAR
STARTCHAR 0412
ENCODING 1042
SWIDTH 1000 0
DWIDTH 28 0
BBX 15 20 7 1
BITMAP
FFE0
FFF8
C01C
C006
C006
C006
C00E
C01C
FFF0
FFF0
C01C
C00C
C006
C006
C006
C006
C00E
C01C
FFF8
FFE0
ENDCHAR
STARTCHAR 0413
ENCODING 1043
SWIDTH 1000 0
DWIDTH 28 0
BBX 15 20 7 1
BITMAP
FFFE
FFFE
C000
C000
C000
C000
C000
C000
C000
C000
C000
C000
C000
C000
C000
C000
C000
C000
C000
C000
ENDCHAR
STARTCHAR 0414
ENCODING 1044
SWIDTH 1000 0
DWIDTH 28 0
BBX 19 22 4 -1
BITMAP
03FF80
03FF80
030180
030180
030180
030180
030180
030180
070180
070180
070180
060180
0E0180
0E0180
1E0180
1C0180
3C0180
380180
FFFFE0
FFFFE0
C00060
C00060
ENDCHAR
STARTCHAR 0415
ENCODING 1045
SWIDTH 1000 0
DWIDTH 28 0
BBX 15 20 7 1
BITMAP
FFFC
FFFC
C000
C000
C000
C000
C000
C000
FFF8
FFF8
C000
C000
C000
C000
C000
C000
C000
C000
FFFE
FFFE
ENDCHAR
STARTCHAR 0416
ENCODING 1046
SWIDTH 1000 0
DWIDTH 28 0
BBX 22 20 3 1
BITMAP
703038
703030
303030
303030
383070
183060
1C30E0
0E31C0
07FF80
03FF00
073380
063180
0E31C0
0C30C0
1C30E0
383070
383070
703038
603018
E0301C
ENDCHAR
STARTCHAR 0417
ENCODING 1047
SWIDTH 1000 0
DWIDTH 28 0
BBX 16 21 6 1
BITMAP
07E0
1FF8
3C1C
700E
6006
0006
0006
000C
001C
03F0
03F8
001C
0006
0003
0003
0003
E003
E006
781E
3FFC
0FE0
ENDCHAR
STARTCHAR 0418
ENCODING 1048
SWIDTH 1000 0
DWIDTH 28 0
BBX 16 20 6 1
BITMAP
C003
C003
C003
C007
C00F
C01F
C03B
C073
C0E3
C1C3
C383
C703
DE03
FC03
F803
F003
E003
C003
C003
C003
ENDCHAR
STARTCHAR 0419
ENCODING 1049
SWIDTH 1000 0
DWIDTH 28 0
BBX 16 23 6 1
BITMAP
1818
0FF0
07E0
C003
C003
C003
C007
C00F
C01F
C03B
C073
C1E3
C3C3
C783
CF03
DE03
FC03
F803
F003
E003
C003
C003
C003
ENDCHAR
STARTCHAR 041A
ENCODING 1050
SWIDTH 1000 0
DWIDTH 28 0
BBX 16 20 6 1
BITMAP
C00E
C00E
C00C
C01C
C018
C038
C070
C1E0
DFC0
FF80
F9C0
C0E0
C0E0
C070
C038
C038
C01C
C00E
C00F
C007
ENDCHAR
STARTCHAR 041B
ENCODING 1051
SWIDTH 1000 0
DWIDTH 28 0
BBX 19 20 3 1
BITMAP
00FFE0
00FFE0
00C060
00C060
00C060
00C060
00C060
00C060
00C060
00C060
00C060
00C060
008060
018060
018060
E18060
E30060
730060
7E0060
3C0060
ENDCHAR
STARTCHAR 041C
ENCODING 1052
SWIDTH 1000 0
DWIDTH 28 0
BBX 20 20 4 1
BITMAP
F000F0
F000F0
F000F0
F801F0
D801B0
D803B0
CC0330
CC0330
CE0730
C60630
C60E30
C70E30
C30C30
C39C30
C39830
C19830
C1F830
C0F030
C0F030
C0F030
ENDCHAR
STARTCHAR 041D
ENCODING 1053
SWIDTH 1000 0
DWIDTH 28 0
BBX 16 20 6 1
BITMAP
C003
C003
C003
C003
C003
C003
C003
C003
FFFF
FFFF
C003
C003
C003
C003
C003
C003
C003
C003
C003
C003
ENDCHAR
STARTCHAR 041E
ENCODING 1054
SWIDTH 1000 0
DWIDTH 28 0
BBX 18 21 5 1
BITMAP
03F000
0FFC00
1C0E00
380700
300300
600180
600180
C000C0
C000C0
C000C0
C000C0
C000C0
C000C0
C000C0
600180
600180
700380
380700
1C0E00
0FFC00
03F000
ENDCHAR
STARTCHAR 041F
ENCODING 1055
SWIDTH 1000 0
DWIDTH 28 0
BBX 16 20 6 1
BITMAP
FFFF
FFFF
C003
C003
C003
C003
C003
C003
C003
C003
C003
C003
C003
C003
C003
C003
C003
C003
C003
C003
ENDCHAR
STARTCHAR 0420
ENCODING 1056
SWIDTH 1000 0
DWIDTH 28 0
BBX 14 20 7 1
BITMAP
FFC0
FFF0
C038
C01C
C00C
C00C
C00C
C01C
C038
FFF0
FFC0
C000
C000
C000
C000
C000
C000
C000
C000
C000
ENDCHAR
STARTCHAR 0421
ENCODING 1057
SWIDTH 1000 0
DWIDTH 28 0
BBX 18 21 5 1
BITMAP
03F000
0FFC00
1E1E00
380700
300300
700380
600180
E00000
C00000
C00000
C00000
C00000
C00000
C00000
4001C0
600180
700380
300700
1C0F00
0FFC00
03F000
ENDCHAR
STARTCHAR 0422
ENCODING 1058
SWIDTH 1000 0
DWIDTH 28 0
BBX 18 20 5 1
BITMAP
FFFFC0
FFFFC0
00C000
00C000
00C000
00C000
00C000
00C000
00C000
00C000
00C000
00C000
00C000
00C000
00C000
00C000
00C000
00C000
00C000
00C000
ENDCHAR
STARTCHAR 0423
ENCODING 1059
SWIDTH 1000 0
DWIDTH 28 0
BBX 17 20 6 1
BITMAP
E00380
700300
300700
380600
180E00
1C0E00
0C0C00
0E1C00
061800
073800
033000
03B000
01F000
01E000
00E000
00C000
01C000
018000
7F8000
7E0000
ENDCHAR
STARTCHAR 0424
ENCODING 1060
SWIDTH 1000 0
DWIDTH 28 0
BBX 18 20 5 1
BITMAP
00C000
00C000
00C000
07F800
1FFE00
38C700
70C380
E0C1C0
C0C0C0
C0C0C0
C0C0C0
C0C0C0
E0C1C0
70C380
38C700
1FFE00
07F800
00C000
00C000
00C000
ENDCHAR
STARTCHAR 0425
ENCODING 1061
SWIDTH 1000 0
DWIDTH 28 0
BBX 18 20 5 1
BITMAP
700380
380700
3C0F00
1C0E00
0E1C00
073800
073800
03F000
01E000
00C000
01E000
03F000
073800
0F3C00
0E1C00
1C0E00
380700
780780
F00380
E001C0
ENDCHAR
STARTCHAR 0426
ENCODING 1062
SWIDTH 1000 0
DWIDTH 28 0
BBX 18 22 6 -1
BITMAP
C00600
C00600
C00600
C00600
C00600
C00600
C00600
C00600
C00600
C00600
C00600
C00600
C00600
C00600
C00600
C00600
C00600
C00600
FFFFC0
FFFFC0
0000C0
0000C0
ENDCHAR
STARTCHAR 0427
ENCODING 1063
SWIDTH 1000 0
DWIDTH 28 0
BBX 14 20 7 1
BITMAP
C00C
C00C
C00C
C00C
C00C
C00C
C00C
C00C
C00C
C01C
E03C
707C
7FEC
1F8C
000C
000C
000C
000C
000C
000C
ENDCHAR
STARTCHAR 0428
ENCODING 1064
SWIDTH 1000 0
DWIDTH 28 0
BBX 20 20 4 1
BITMAP
C06030
C06030
C06030
C06030
C06030
C06030
C06030
C06030
C06030
C06030
C06030
C06030
C06030
C06030
C06030
C06030
C06030
C06030
FFFFF0
FFFFF0
ENDCHAR
STARTCHAR 0429
ENCODING 1065
SWIDTH 1000 0
DWIDTH 28 0
BBX 22 22 4 -1
BITMAP
C0C060
C0C060
C0C060
C0C060
C0C060
C0C060
C0C060
C0C060
C0C060
C0C060
C0C060
C0C060
C0C060
C0C060
C0C060
C0C060
C0C060
C0C060
FFFFFC
FFFFFC
00000C
00000C
ENDCHAR
STARTCHAR 042A
ENCODING 1066
SWIDTH 1000 0
DWIDTH 28 0
BBX 19 20 4 1
BITMAP
FE0000
FE0000
060000
060000
060000
060000
060000
060000
07FE00
07FF80
0601C0
0600E0
060060
060060
060060
060060
0600E0
0601C0
07FF80
07FE00
ENDCHAR
STARTCHAR 042B
ENCODING 1067
SWIDTH 1000 0
DWIDTH 28 0
BBX 18 20 5 1
BITMAP
C000C0
C000C0
C000C0
C000C0
C000C0
C000C0
C000C0
C000C0
FFC0C0
FFF0C0
C078C0
C018C0
C00CC0
C00CC0
C00CC0
C00CC0
C018C0
C078C0
FFF0C0
FF80C0
ENDCHAR
STARTCHAR 042C
ENCODING 1068
SWIDTH 1000 0
DWIDTH 28 0
BBX 15 20 7 1
BITMAP
C000
C000
C000
C000
C000
C000
C000
C000
FFE0
FFF8
C01C
C00C
C006
C006
C006
C006
C00E
C01C
FFF8
FFE0
ENDCHAR
STARTCHAR 042D
ENCODING 1069
SWIDTH 1000 0
DWIDTH 28 0
BBX 18 21 6 1
BITMAP
07E000
1FF800
3C1E00
700700
E00300
E00180
000180
0000C0
0000C0
3F08C0
3FF8C0
21F8C0
0000C0
0000C0
000180
C00180
E00380
700700
3C0E00
1FFC00
07F000
ENDCHAR
STARTCHAR 042E
ENCODING 1070
SWIDTH 1000 0
DWIDTH 28 0
BBX 21 21 4 1
BITMAP
003F00
C0FF80
C1E1C0
C18060
C30030
C30030
C70030
C60018
C60018
FE0018
FE0018
C60018
C60018
C60018
C70038
C30030
C30070
C180E0
C0E1C0
C07F80
C03F00
ENDCHAR
STARTCHAR 042F
ENCODING 1071
SWIDTH 1000 0
DWIDTH 28 0
BBX 15 20 6 1
BITMAP
0FFE
3FFE
3806
6006
6006
6006
6006
3806
3FFE
0FFE
0306
0706
0606
0E06
1C06
1C06
3806
7806
7006
E006
ENDCHAR
STARTCHAR 0430
ENCODING 1072
SWIDTH 1000 0
DWIDTH 28 0
BBX 13 14 8 2
BITMAP
1FC0
7FE0
7060
6030
0030
07F0
3FF0
7030
E030
C030
C070
E1F0
7FB8
3E18
ENDCHAR
STARTCHAR 0431
ENCODING 1073
SWIDTH 1000 0
DWIDTH 28 0
BBX 14 20 7 1
BITMAP
0038
01F0
07E0
1F00
3C00
3800
7000
6FE0
FFF0
F038
E018
C00C
C00C
C00C
C00C
601C
6018
3878
1FF0
0FC0
ENDCHAR
STARTCHAR 0432
ENCODING 1074
SWIDTH 1000 0
DWIDTH 28 0
BBX 11 14 8 1
BITMAP
FF00
FF80
C1C0
C0C0
C0C0
C1C0
FF80
FF80
C0C0
C060
C060
C0E0
FFC0
FF80
ENDCHAR
STARTCHAR 0433
ENCODING 1075
SWIDTH 1000 0
DWIDTH 28 0
BBX 11 14 9 1
BITMAP
FFE0
FFE0
C000
C000
C000
C000
C000
C000
C000
C000
C000
C000
C000
C000
ENDCHAR
STARTCHAR 0434
ENCODING 1076
SWIDTH 1000 0
DWIDTH 28 0
BBX 15 16 6 -1
BITMAP
07F8
07F8
0618
0618
0618
0E18
0E18
0C18
0C18
1C18
1818
3818
FFFE
FFFE
C006
C006
ENDCHAR
STARTCHAR 0435
ENCODING 1077
SWIDTH 1000 0
DWIDTH 28 0
BBX 14 14 7 2
BITMAP
1FE0
3FF0
7030
6018
E018
FFFC
FFFC
C000
E000
E01C
7038
3878
1FF0
0FC0
ENDCHAR
STARTCHAR 0436
ENCODING 1078
SWIDTH 1000 0
DWIDTH 28 0
BBX 18 14 5 1
BITMAP
60C180
70C380
70C300
38C700
18CE00
1FFE00
0FFC00
0DEC00
1CCE00
18C600
38C700
70C380
70C380
E0C1C0
ENDCHAR
STARTCHAR 0437
ENCODING 1079
SWIDTH 1000 0
DWIDTH 28 0
BBX 12 15 8 1
BITMAP
0600
3FC0
7FE0
E0E0
0060
0060
00C0
0FC0
0FC0
0060
0030
E030
7070
7FE0
1F80
ENDCHAR
STARTCHAR 0438
ENCODING 1080
SWIDTH 1000 0
DWIDTH 28 0
BBX 12 14 8 1
BITMAP
C030
C030
C070
C0F0
C1F0
C3B0
C730
CE30
DC30
F830
F030
E030
C030
C030
ENDCHAR
STARTCHAR 0439
ENCODING 1081
SWIDTH 1000 0
DWIDTH 28 0
BBX 12 19 8 1
BITMAP
6060
30C0
3FC0
0F00
0000
C030
C030
C070
C0F0
C1F0
C3B0
C730
CE30
DC30
F830
F030
E030
C030
C030
ENDCHAR
STARTCHAR 043A
ENCODING 1082
SWIDTH 1000 0
DWIDTH 28 0
BBX 13 14 8 1
BITMAP
C060
C0E0
C0E0
C1C0
C3C0
CF80
FE00
FF00
C380
C180
C1C0
C0E0
C070
C078
ENDCHAR
STARTCHAR 043B
ENCODING 1083
SWIDTH 1000 0
DWIDTH 28 0
BBX 15 14 5 1
BITMAP
03FE
03FE
0386
0386
0306
0306
0306
0306
0306
0706
C706
E606
7E06
3C06
ENDCHAR
STARTCHAR 043C
ENCODING 1084
SWIDTH 1000 0
DWIDTH 28 0
BBX 14 14 7 1
BITMAP
F03C
F03C
F03C
F87C
D86C
D86C
DCEC
CCCC
CCCC
CDCC
C78C
C78C
C78C
C30C
ENDCHAR
STARTCHAR 043D
ENCODING 1085
SWIDTH 1000 0
DWIDTH 28 0
BBX 12 14 8 1
BITMAP
C030
C030
C030
C030
C030
FFF0
FFF0
C030
C030
C030
C030
C030
C030
C030
ENDCHAR
STARTCHAR 043E
ENCODING 1086
SWIDTH 1000 0
DWIDTH 28 0
BBX 14 14 7 2
BITMAP
0FC0
3FF0
7038
6018
E01C
C00C
C00C
C00C
C00C
E01C
6018
7870
3FE0
0FC0
ENDCHAR
STARTCHAR 043F
ENCODING 1087
SWIDTH 1000 0
DWIDTH 28 0
BBX 12 14 8 1
BITMAP
FFF0
FFF0
C030
C030
C030
C030
C030
C030
C030
C030
C030
C030
C030
C030
ENDCHAR
STARTCHAR 0440
ENCODING 1088
SWIDTH 1000 0
DWIDTH 28 0
BBX 13 18 8 -2
BITMAP
DFC0
FFE0
F070
E030
C018
C018
C018
C018
C018
E038
E030
F870
DFE0
CF80
C000
C000
C000
C000
ENDCHAR
STARTCHAR 0441
ENCODING 1089
SWIDTH 1000 0
DWIDTH 28 0
BBX 14 15 7 1
BITMAP
0300
1FE0
3FF0
7038
6018
E000
C000
C000
C000
C000
E01C
6038
3878
1FF0
0FC0
ENDCHAR
STARTCHAR 0442
ENCODING 1090
SWIDTH 1000 0
DWIDTH 28 0
BBX 12 14 8 1
BITMAP
FFF0
FFF0
0600
0600
0600
0600
0600
0600
0600
0600
0600
0600
0600
0600
ENDCHAR
STARTCHAR 0443
ENCODING 1091
SWIDTH 1000 0
DWIDTH 28 0
BBX 14 18 8 -3
BITMAP
C01C
E018
6038
7030
3070
3860
18E0
1CE0
0CC0
0DC0
0780
0780
0300
0700
0600
0E00
FC00
F800
ENDCHAR
STARTCHAR 0444
ENCODING 1092
SWIDTH 1000 0
DWIDTH 28 0
BBX 18 24 5 -3
BITMAP
00C000
00C000
00C000
00C000
00C000
00C000
3EFF00
7FFF00
61E180
E0C180
C0C0C0
C0C0C0
C0C0C0
C0C0C0
C0C0C0
C0C0C0
60C180
61E380
3FFF00
1EDE00
00C000
00C000
00C000
00C000
ENDCHAR
STARTCHAR 0445
ENCODING 1093
SWIDTH 1000 0
DWIDTH 28 0
BBX 16 14 6 1
BITMAP
700E
381C
1C38
0E70
07E0
03C0
03C0
03C0
07E0
0E70
1C38
381C
780E
F00F
ENDCHAR
STARTCHAR 0446
ENCODING 1094
SWIDTH 1000 0
DWIDTH 28 0
BBX 14 16 8 -1
BITMAP
C030
C030
C030
C030
C030
C030
C030
C030
C030
C030
C030
C030
FFFC
FFFC
000C
000C
ENDCHAR
STARTCHAR 0447
ENCODING 1095
SWIDTH 1000 0
DWIDTH 28 0
BBX 12 14 8 1
BITMAP
C030
C030
C030
C030
C030
C030
E0F0
7FF0
3F30
0030
0030
0030
0030
0030
ENDCHAR
STARTCHAR 0448
ENCODING 1096
SWIDTH 1000 0
DWIDTH 28 0
BBX 18 14 5 1
BITMAP
C0C0C0
C0C0C0
C0C0C0
C0C0C0
C0C0C0
C0C0C0
C0C0C0
C0C0C0
C0C0C0
C0C0C0
C0C0C0
C0C0C0
FFFFC0
FFFFC0
ENDCHAR
STARTCHAR 0449
ENCODING 1097
SWIDTH 1000 0
DWIDTH 28 0
BBX 20 16 5 -1
BITMAP
C0C180
C0C180
C0C180
C0C180
C0C180
C0C180
C0C180
C0C180
C0C180
C0C180
C0C180
C0C180
FFFFF0
FFFFF0
000030
000030
ENDCHAR
STARTCHAR 044A
ENCODING 1098
SWIDTH 1000 0
DWIDTH 28 0
BBX 15 14 6 1
BITMAP
F800
F800
1800
1800
1FF0
1FF8
180C
1806
1806
1806
1806
180C
1FFC
1FF0
ENDCHAR
STARTCHAR 044B
ENCODING 1099
SWIDTH 1000 0
DWIDTH 28 0
BBX 16 14 6 1
BITMAP
C003
C003
C003
C003
FF83
FFC3
C0E3
C033
C033
C033
C033
C0E3
FFC3
FF83
ENDCHAR
STARTCHAR 044C
ENCODING 1100
SWIDTH 1000 0
DWIDTH 28 0
BBX 12 14 8 1
BITMAP
C000
C000
C000
C000
FF80
FFE0
C060
C030
C030
C030
C030
C060
FFE0
FF80
ENDCHAR
STARTCHAR 044D
ENCODING 1101
SWIDTH 1000 0
DWIDTH 28 0
BBX 14 14 7 2
BITMAP
1FE0
3FF0
7038
6018
001C
1C0C
1FCC
01CC
000C
E01C
7018
7870
3FE0
0FC0
ENDCHAR
STARTCHAR 044E
ENCODING 1102
SWIDTH 1000 0
DWIDTH 28 0
BBX 18 15 5 1
BITMAP
003800
C0FE00
C1FF00
C38380
C70180
C600C0
FE00C0
FE00C0
C600C0
C600C0
C701C0
C30180
C38300
C1FF00
C07C00
ENDCHAR
STARTCHAR 044F
ENCODING 1103
SWIDTH 1000 0
DWIDTH 28 0
BBX 12 14 8 1
BITMAP
1FF0
3FF0
7030
6030
6030
7030
3FF0
1FF0
0C30
1C30
3830
3030
7030
E030
ENDCHAR
STARTCHAR 0451
ENCODING 1105
SWIDTH 1000 0
DWIDTH 28 0
BBX 14 18 7 1
BITMAP
3030
3030
0000
0000
1FE0
3FF0
7038
6018
C00C
FFFC
FFFC
C000
C000
E01C
601C
3838
1FF0
0FC0
ENDCHAR
STARTCHAR 1E3E
ENCODING 7742
SWIDTH 500 0
DWIDTH 14 0
BBX 12 23 1 1
BITMAP
0300
0600
0000
E070
E070
E070
F0F0
F0F0
F0F0
F0F0
D0B0
D1B0
D9B0
D9B0
D9B0
D9B0
CB30
CF30
CF30
CF30
CF30
C630
C630
ENDCHAR
STARTCHAR 1E3F
ENCODING 7743
SWIDTH 500 0
DWIDTH 14 0
BBX 12 18 1 1
BITMAP
0300
0600
0000
0000
DDE0
FFF0
C730
C630
C630
C630
C630
C630
C630
C630
C630
C630
C630
C630
ENDCHAR
STARTCHAR 1F70
ENCODING 8048
SWIDTH 500 0
DWIDTH 14 0
BBX 11 17 2 1
BITMAP
1800
0C00
0000
0000
1EC0
3FC0
71C0
60C0
C0C0
C0C0
C0C0
C0C0
C0C0
E0C0
71C0
3FE0
1E60
ENDCHAR
STARTCHAR 1F71
ENCODING 8049
SWIDTH 500 0
DWIDTH 14 0
BBX 11 17 2 1
BITMAP
0700
0C00
0000
0000
1EC0
3FC0
71C0
60C0
C0C0
C0C0
C0C0
C0C0
C0C0
E0C0
71C0
3FE0
1E60
ENDCHAR
STARTCHAR 1F72
ENCODING 8050
SWIDTH 500 0
DWIDTH 14 0
BBX 10 17 2 2
BITMAP
1800
0400
0000
0000
1F00
3F80
71C0
6000
6000
7000
3E00
7E00
E000
C000
E1C0
7FC0
3F00
ENDCHAR
STARTCHAR 1F73
ENCODING 8051
SWIDTH 500 0
DWIDTH 14 0
BBX 10 17 2 2
BITMAP
0700
0C00
0000
0000
1F00
3F80
71C0
6000
6000
7000
3E00
7E00
E000
C000
E1C0
7FC0
3F00
ENDCHAR
STARTCHAR 2010
ENCODING 8208
SWIDTH 1000 0
DWIDTH 28 0
BBX 8 2 10 10
BITMAP
FF
FF
ENDCHAR
STARTCHAR 2013
ENCODING 8211
SWIDTH 500 0
DWIDTH 14 0
BBX 6 2 4 10
BITMAP
FC
FC
ENDCHAR
STARTCHAR 2014
ENCODING 8212
SWIDTH 1000 0
DWIDTH 28 0
BBX 24 2 2 10
BITMAP
FFFFFF
FFFFFF
ENDCHAR
STARTCHAR 2015
ENCODING 8213
SWIDTH 1000 0
DWIDTH 28 0
BBX 24 2 2 10
BITMAP
FFFFFF
FFFFFF
ENDCHAR
STARTCHAR 2016
ENCODING 8214
SWIDTH 1000 0
DWIDTH 28 0
BBX 8 28 10 -3
BITMAP
C3
C3
C3
C3
C3
C3
C3
C3
C3
C3
C3
C3
C3
C3
C3
C3
C3
C3
C3
C3
C3
C3
C3
C3
C3
C3
C3
C3
ENDCHAR
STARTCHAR 2018
ENCODING 8216
SWIDTH 1000 0
DWIDTH 28 0
BBX 4 7 22 16
BITMAP
30
60
60
C0
F0
F0
F0
ENDCHAR
STARTCHAR 2019
ENCODING 8217
SWIDTH 1000 0
DWIDTH 28 0
BBX 4 7 2 16
BITMAP
F0
F0
F0
30
60
60
C0
ENDCHAR
STARTCHAR 201C
ENCODING 8220
SWIDTH 1000 0
DWIDTH 28 0
BBX 9 7 17 16
BITMAP
3180
6300
6300
C600
F780
F780
F780
ENDCHAR
STARTCHAR 201D
ENCODING 8221
SWIDTH 1000 0
DWIDTH 28 0
BBX 9 7 2 16
BITMAP
F780
F780
F780
3180
6300
6300
C600
ENDCHAR
STARTCHAR 2020
ENCODING 8224
SWIDTH 1000 0
DWIDTH 28 0
BBX 14 25 7 -2
BITMAP
0780
0780
0780
0780
0300
F33C
FFFC
FFFC
7338
0700
0780
0780
0780
0300
0300
0300
0300
0300
0300
0300
0300
0300
0300
0300
0300
ENDCHAR
STARTCHAR 2021
ENCODING 8225
SWIDTH 1000 0
DWIDTH 28 0
BBX 12 27 8 -3
BITMAP
0F00
0F00
0F00
0600
E670
FFF0
F6F0
0600
0F00
0600
0600
0600
0600
0600
0600
0600
0600
0600
0600
E670
FFF0
FFF0
E670
0600
0F00
0F00
0F00
ENDCHAR
STARTCHAR 2022
ENCODING 8226
SWIDTH 500 0
DWIDTH 14 0
BBX 6 6 4 8
BITMAP
78
FC
FC
FC
FC
78
ENDCHAR
STARTCHAR 2025
ENCODING 8229
SWIDTH 1000 0
DWIDTH 28 0
BBX 18 3 5 9
BITMAP
E001C0
E001C0
E001C0
ENDCHAR
STARTCHAR 2026
ENCODING 8230
SWIDTH 1000 0
DWIDTH 28 0
BBX 22 3 3 9
BITMAP
E0701C
E0701C
E0701C
ENDCHAR
STARTCHAR 2030
ENCODING 8240
SWIDTH 1000 0
DWIDTH 28 0
BBX 25 25 1 -2
BITMAP
00018000
1C018000
3E030000
77060000
63060000
630C0000
63180000
63180000
63300000
77300000
3E600000
1CC00000
00C00000
018E0E00
019F1F00
033BBB80
0631B180
0631B180
0C31B180
1831B180
183BBB80
301F1F00
300E0E00
60000000
C0000000
ENDCHAR
STARTCHAR 2032
ENCODING 8242
SWIDTH 1000 0
DWIDTH 28 0
BBX 3 7 2 16
BITMAP
60
60
60
40
C0
C0
80
ENDCHAR
STARTCHAR 2033
ENCODING 8243
SWIDTH 1000 0
DWIDTH 28 0
BBX 8 7 2 16
BITMAP
63
62
66
46
C4
C4
8C
ENDCHAR
STARTCHAR 203B
ENCODING 8251
SWIDTH 1000 0
DWIDTH 28 0
BBX 22 23 3 0
BITMAP
803004
C0780C
607818
303030
180060
0C00C0
060180
030300
018600
60CC18
F0783C
F0303C
607818
00CC00
018600
030300
060180
0C00C0
183060
307830
607818
C0300C
800004
ENDCHAR
STARTCHAR 203C
ENCODING 8252
SWIDTH 500 0
DWIDTH 14 0
BBX 8 22 3 0
BITMAP
E7
E7
E7
E7
E7
E7
E7
E7
E7
E7
E7
E7
E7
E7
E7
E7
E7
00
00
E7
E7
E7
ENDCHAR
STARTCHAR 203E
ENCODING 8254
SWIDTH 1000 0
DWIDTH 28 0
BBX 28 1 0 24
BITMAP
FFFFFFF0
ENDCHAR
STARTCHAR 203F
ENCODING 8255
SWIDTH 500 0
DWIDTH 14 0
BBX 10 3 2 -2
BITMAP
8040
C0C0
3F00
ENDCHAR
STARTCHAR 2042
ENCODING 8258
SWIDTH 500 0
DWIDTH 14 0
BBX 12 17 1 2
BITMAP
0600
1680
0D00
0600
1D00
1680
0600
0000
0000
2040
2040
AF50
79E0
30C0
EF70
AF50
2040
ENDCHAR
STARTCHAR 2047
ENCODING 8263
SWIDTH 500 0
DWIDTH 14 0
BBX 12 22 1 0
BITMAP
38E0
79E0
4DB0
CFB0
CFB0
8F30
0C30
1830
1860
3860
3060
30C0
60C0
60C0
60C0
60C0
60C0
0000
0000
71C0
71C0
71C0
ENDCHAR
STARTCHAR 2048
ENCODING 8264
SWIDTH 500 0
DWIDTH 14 0
BBX 12 22 0 0
BITMAP
3C70
7E70
7770
6370
E370
E370
0370
0370
0670
0670
0C70
0C70
1870
1870
1830
1820
1820
0000
0000
3870
3870
3870
ENDCHAR
STARTCHAR 2049
ENCODING 8265
SWIDTH 500 0
DWIDTH 14 0
BBX 11 22 2 0
BITMAP
E380
E7C0
EEE0
EC60
EC60
EC60
E060
E060
E0C0
E0C0
E180
E180
E300
E300
6300
4300
4300
0000
0000
E700
E700
E700
ENDCHAR
STARTCHAR 2051
ENCODING 8273
SWIDTH 1000 0
DWIDTH 28 0
BBX 8 22 10 0
BITMAP
18
18
DB
F7
3C
3C
F7
DB
18
18
00
00
00
18
18
DB
F6
18
76
DB
18
18
ENDCHAR
STARTCHAR 20AC
ENCODING 8364
SWIDTH 500 0
DWIDTH 14 0
BBX 12 19 1 2
BITMAP
0780
1FC0
18E0
3860
3060
3000
3000
FF80
FF80
7000
7000
FF80
FF80
3000
3070
3060
38E0
1FC0
0F80
ENDCHAR
STARTCHAR 2103
ENCODING 8451
SWIDTH 1000 0
DWIDTH 28 0
BBX 24 22 1 1
BITMAP
380000
C60000
820FC0
823FF0
C67038
38E01C
01C00E
01C006
018000
038000
038000
038000
038000
038000
038000
038007
01C007
01C00E
00E01C
00783C
003FF0
000FC0
ENDCHAR
STARTCHAR 210F
ENCODING 8463
SWIDTH 500 0
DWIDTH 14 0
BBX 12 20 1 1
BITMAP
1C00
1800
1980
7F80
7800
3800
31E0
37F0
3C30
3830
7030
7030
6030
6060
6060
E060
E060
C0E0
C0C0
C0C0
ENDCHAR
STARTCHAR 2113
ENCODING 8467
SWIDTH 500 0
DWIDTH 14 0
BBX 12 19 1 2
BITMAP
03C0
07E0
0E60
0C60
1C60
1860
1860
3860
30C0
30C0
30C0
3180
3380
3300
3E20
1C30
7870
FFE0
8780
ENDCHAR
STARTCHAR 2116
ENCODING 8470
SWIDTH 1000 0
DWIDTH 28 0
BBX 25 21 2 0
BITMAP
E0600000
E0600000
F0600000
F0600000
F8600000
D8600000
DC61E000
CC63F000
CC633000
C6621800
C6661800
C7661800
C3661800
C3E61800
C1E61800
C1E61800
C0E61800
C0E61380
C0E33380
C063F380
0001E000
ENDCHAR
STARTCHAR 2121
ENCODING 8481
SWIDTH 1000 0
DWIDTH 28 0
BBX 26 20 1 1
BITMAP
FFC00000
FFC00000
0C000000
0C000000
0C000000
0C3F1800
0C3F1800
0C301800
0C301800
0C301800
0C301800
0C3F1800
0C3F1800
0C301800
0C301800
0C301800
0C301800
0C301800
0C3F9FC0
0C3F9FC0
ENDCHAR
STARTCHAR 2127
ENCODING 8487
SWIDTH 500 0
DWIDTH 14 0
BBX 12 19 1 2
BITMAP
FFF0
FFF0
0F00
1F80
39C0
30C0
6060
6060
C030
C030
C030
C030
C030
C030
6060
60E0
71E0
3FC0
0F00
ENDCHAR
STARTCHAR 212B
ENCODING 8491
SWIDTH 1000 0
DWIDTH 28 0
BBX 18 23 5 1
BITMAP
01E000
021000
021000
021000
01E000
000000
01E000
01E000
01E000
033000
033000
061800
061800
0C0C00
0C0C00
1FFE00
1FFE00
380300
300300
700380
600180
E001C0
E001C0
ENDCHAR
STARTCHAR 2135
ENCODING 8501
SWIDTH 500 0
DWIDTH 14 0
BBX 12 20 1 2
BITMAP
3040
60C0
60C0
6060
60F0
71B0
31B0
3B00
1E00
7F00
6380
61C0
60E0
6070
3030
3030
3030
7030
E060
0040
ENDCHAR
STARTCHAR 2153
ENCODING 8531
SWIDTH 500 0
DWIDTH 14 0
BBX 13 25 1 -1
BITMAP
3020
F020
B060
3040
30C0
3080
3180
3100
3300
3200
3600
3400
04E0
0D20
0B10
1B10
1010
3030
20C0
6030
4008
C308
C308
8198
80F0
ENDCHAR
STARTCHAR 2154
ENCODING 8532
SWIDTH 500 0
DWIDTH 14 0
BBX 13 25 1 -1
BITMAP
3830
7C20
C460
C440
0440
0C80
1880
3180
6100
4300
C200
FE00
04E0
0520
0F10
0B10
1810
1030
30C0
2030
2008
6308
4308
C198
00F0
ENDCHAR
STARTCHAR 2155
ENCODING 8533
SWIDTH 500 0
DWIDTH 14 0
BBX 14 25 0 -2
BITMAP
1818
7810
5830
1820
1860
1840
18C0
1880
1980
1980
1900
1B00
02F8
0780
0580
0D80
09F0
1988
1188
1004
3004
2004
618C
41F8
C0F0
ENDCHAR
STARTCHAR 2160
ENCODING 8544
SWIDTH 1000 0
DWIDTH 28 0
BBX 2 20 13 1
BITMAP
C0
C0
C0
C0
C0
C0
C0
C0
C0
C0
C0
C0
C0
C0
C0
C0
C0
C0
C0
C0
ENDCHAR
STARTCHAR 2161
ENCODING 8545
SWIDTH 1000 0
DWIDTH 28 0
BBX 10 20 9 1
BITMAP
C0C0
C0C0
C0C0
C0C0
C0C0
C0C0
C0C0
C0C0
C0C0
C0C0
C0C0
C0C0
C0C0
C0C0
C0C0
C0C0
C0C0
C0C0
C0C0
C0C0
ENDCHAR
STARTCHAR 2162
ENCODING 8546
SWIDTH 1000 0
DWIDTH 28 0
BBX 16 20 6 1
BITMAP
C183
C183
C183
C183
C183
C183
C183
C183
C183
C183
C183
C183
C183
C183
C183
C183
C183
C183
C183
C183
ENDCHAR
STARTCHAR 2163
ENCODING 8547
SWIDTH 1000 0
DWIDTH 28 0
BBX 20 20 4 1
BITMAP
CE0030
CE0070
C60070
C70060
C700E0
C300E0
C380C0
C381C0
C181C0
C1C180
C1C380
C0C380
C0E300
C06700
C06700
C07600
C03E00
C03C00
C03C00
C01C00
ENDCHAR
STARTCHAR 2164
ENCODING 8548
SWIDTH 1000 0
DWIDTH 28 0
BBX 18 20 5 1
BITMAP
E001C0
E001C0
700380
700380
300300
380700
380700
180E00
1C0E00
0C0C00
0E1C00
0E1C00
061800
073800
073800
033000
03F000
01E000
01E000
01E000
ENDCHAR
STARTCHAR 2165
ENCODING 8549
SWIDTH 1000 0
DWIDTH 28 0
BBX 20 20 4 1
BITMAP
C00730
E00730
E00630
600E30
700E30
700C30
301C30
381C30
381830
183830
1C3830
1C3030
0C7030
0E7030
066030
06E030
07C030
03C030
03C030
038030
ENDCHAR
STARTCHAR 2166
ENCODING 8550
SWIDTH 1000 0
DWIDTH 28 0
BBX 23 20 2 1
BITMAP
E01CC6
601CC6
601CC6
7018C6
7038C6
3038C6
3030C6
3830C6
1870C6
1870C6
1C60C6
1C60C6
0CE0C6
0CC0C6
0EC0C6
07C0C6
07C0C6
0780C6
0780C6
0380C6
ENDCHAR
STARTCHAR 2167
ENCODING 8551
SWIDTH 1000 0
DWIDTH 28 0
BBX 24 20 2 1
BITMAP
E03333
E03333
603333
607333
706333
706333
306333
30E333
30C333
38C333
18C333
19C333
19C333
1D8333
0D8333
0D8333
0F8333
0F0333
070333
070333
ENDCHAR
STARTCHAR 2168
ENCODING 8552
SWIDTH 1000 0
DWIDTH 28 0
BBX 21 20 4 1
BITMAP
C38070
C380E0
C1C1C0
C0C1C0
C0E380
C07380
C07700
C03E00
C01E00
C01C00
C01E00
C03E00
C07700
C06380
C0E380
C1C1C0
C1C0E0
C380E0
C70070
C70038
ENDCHAR
STARTCHAR 2169
ENCODING 8553
SWIDTH 1000 0
DWIDTH 28 0
BBX 18 20 5 1
BITMAP
700380
380700
3C0F00
1C0E00
0E1C00
073800
073800
03F000
01E000
00C000
01E000
03F000
073800
0F3C00
0E1C00
1C0E00
380700
780780
F00380
E001C0
ENDCHAR
STARTCHAR 216A
ENCODING 8554
SWIDTH 1000 0
DWIDTH 28 0
BBX 21 20 3 1
BITMAP
700E18
380E18
1C1C18
1C1818
0E3818
0E7018
077018
03E018
03C018
01C018
03C018
03E018
077018
0E3018
0E3818
1C1C18
381C18
380E18
700718
E00718
ENDCHAR
STARTCHAR 216B
ENCODING 8555
SWIDTH 1000 0
DWIDTH 28 0
BBX 22 20 3 1
BITMAP
E0318C
70718C
30618C
38E18C
18C18C
1DC18C
0D818C
0F818C
07018C
07018C
0F018C
0F818C
1D818C
19C18C
38E18C
30E18C
70718C
60718C
E0398C
C0398C
ENDCHAR
STARTCHAR 2170
ENCODING 8560
SWIDTH 1000 0
DWIDTH 28 0
BBX 3 20 13 1
BITMAP
E0
E0
E0
00
00
00
C0
C0
C0
C0
C0
C0
C0
C0
C0
C0
C0
C0
C0
C0
ENDCHAR
STARTCHAR 2171
ENCODING 8561
SWIDTH 1000 0
DWIDTH 28 0
BBX 10 20 9 1
BITMAP
C0C0
C0C0
C0C0
0000
0000
0000
C0C0
C0C0
C0C0
C0C0
C0C0
C0C0
C0C0
C0C0
C0C0
C0C0
C0C0
C0C0
C0C0
C0C0
ENDCHAR
STARTCHAR 2172
ENCODING 8562
SWIDTH 1000 0
DWIDTH 28 0
BBX 16 20 6 1
BITMAP
C183
C183
C183
0000
0000
0000
6186
6186
6186
6186
6186
6186
6186
6186
6186
6186
6186
6186
6186
6186
ENDCHAR
STARTCHAR 2173
ENCODING 8563
SWIDTH 1000 0
DWIDTH 28 0
BBX 17 20 6 1
BITMAP
C00000
C00000
C00000
000000
000000
000000
CE0180
C60380
C70300
C70700
C30700
C38600
C18E00
C18C00
C1CC00
C0DC00
C0F800
C07800
C07000
C07000
ENDCHAR
STARTCHAR 2174
ENCODING 8564
SWIDTH 1000 0
DWIDTH 28 0
BBX 14 14 7 1
BITMAP
C00C
E01C
6018
7038
7038
3070
3870
1860
1CE0
0CC0
0FC0
0FC0
0780
0780
ENDCHAR
STARTCHAR 2175
ENCODING 8565
SWIDTH 1000 0
DWIDTH 28 0
BBX 17 20 5 1
BITMAP
000180
000180
000180
000000
000000
000000
C03980
E03180
607180
607180
706180
30E180
38C180
18C180
19C180
1D8180
0F8180
0F0180
070180
070180
ENDCHAR
STARTCHAR 2176
ENCODING 8566
SWIDTH 1000 0
DWIDTH 28 0
BBX 20 20 4 1
BITMAP
000630
000630
000630
000000
000000
000000
C06630
C06630
E0E630
60C630
60C630
71C630
318630
318630
3B8630
1B0630
1B0630
0E0630
0E0630
0E0630
ENDCHAR
STARTCHAR 2177
ENCODING 8567
SWIDTH 1000 0
DWIDTH 28 0
BBX 22 20 3 1
BITMAP
00066C
00066C
00066C
000000
000000
000000
C076CC
E066CC
6066CC
60E6CC
70C6CC
30C6CC
3186CC
3986CC
1986CC
1B06CC
0F06CC
0F06CC
0E06CC
0606CC
ENDCHAR
STARTCHAR 2178
ENCODING 8568
SWIDTH 1000 0
DWIDTH 28 0
BBX 18 20 5 1
BITMAP
C00000
C00000
C00000
000000
000000
000000
C70380
C30380
C38700
C1CE00
C0FC00
C07C00
C07800
C07800
C0FC00
C1CE00
C38700
C38700
C70380
CE01C0
ENDCHAR
STARTCHAR 2179
ENCODING 8569
SWIDTH 1000 0
DWIDTH 28 0
BBX 16 14 6 1
BITMAP
700E
381C
1C38
0E70
07E0
03C0
03C0
03C0
07E0
0E70
1C38
381C
780E
F00F
ENDCHAR
STARTCHAR 217A
ENCODING 8570
SWIDTH 1000 0
DWIDTH 28 0
BBX 18 20 5 1
BITMAP
0000C0
0000C0
0000C0
000000
000000
000000
7038C0
7038C0
3870C0
1CE0C0
0FC0C0
0780C0
0780C0
0780C0
0FC0C0
1CE0C0
3870C0
7870C0
7038C0
E01CC0
ENDCHAR
STARTCHAR 217B
ENCODING 8571
SWIDTH 1000 0
DWIDTH 28 0
BBX 20 20 4 1
BITMAP
000330
000330
000330
000000
000000
000000
606630
70E630
39C630
198630
1F8630
0F0630
070630
0F0630
1F8630
198630
39C630
70E630
606630
E07630
ENDCHAR
STARTCHAR 2190
ENCODING 8592
SWIDTH 1000 0
DWIDTH 28 0
BBX 24 10 2 6
BITMAP
070000
0E0000
1C0000
700000
FFFFFF
FFFFFF
700000
1C0000
0E0000
070000
ENDCHAR
STARTCHAR 2191
ENCODING 8593
SWIDTH 1000 0
DWIDTH 28 0
BBX 10 24 9 0
BITMAP
0C00
1E00
1E00
3F00
6D80
EDC0
CCC0
8C40
0C00
0C00
0C00
0C00
0C00
0C00
0C00
0C00
0C00
0C00
0C00
0C00
0C00
0C00
0C00
0C00
ENDCHAR
STARTCHAR 2192
ENCODING 8594
SWIDTH 1000 0
DWIDTH 28 0
BBX 24 10 2 6
BITMAP
0000E0
000070
000038
00000E
FFFFFF
FFFFFF
00000E
000038
000070
0000E0
ENDCHAR
STARTCHAR 2193
ENCODING 8595
SWIDTH 1000 0
DWIDTH 28 0
BBX 10 24 9 -2
BITMAP
0C00
0C00
0C00
0C00
0C00
0C00
0C00
0C00
0C00
0C00
0C00
0C00
0C00
0C00
0C00
0C00
8C40
CCC0
EDC0
6D80
3F00
1E00
1E00
0C00
ENDCHAR
STARTCHAR 2194
ENCODING 8596
SWIDTH 500 0
DWIDTH 14 0
BBX 12 10 1 6
BITMAP
30C0
30C0
6060
6060
FFF0
FFF0
6060
6060
30C0
30C0
ENDCHAR
STARTCHAR 2196
ENCODING 8598
SWIDTH 500 0
DWIDTH 14 0
BBX 11 21 2 1
BITMAP
3000
3800
7E00
7F00
5980
D8C0
CC00
8C00
8C00
0600
0600
0700
0300
0300
0180
0180
0180
00C0
00C0
00E0
0040
ENDCHAR
STARTCHAR 2197
ENCODING 8599
SWIDTH 500 0
DWIDTH 14 0
BBX 11 21 1 1
BITMAP
0180
0380
0FC0
1FC0
3340
6360
0660
0620
0E20
0C00
0C00
1C00
1800
1800
3000
3000
3000
6000
6000
E000
4000
ENDCHAR
STARTCHAR 2198
ENCODING 8600
SWIDTH 500 0
DWIDTH 14 0
BBX 11 21 1 1
BITMAP
C000
6000
6000
6000
3000
3000
3800
1800
1800
0C00
0C00
0C20
0620
0660
0660
6360
3BC0
1FC0
07C0
0380
0080
ENDCHAR
STARTCHAR 2199
ENCODING 8601
SWIDTH 500 0
DWIDTH 14 0
BBX 11 21 2 1
BITMAP
0060
00C0
00C0
00C0
0180
0180
0380
0300
0300
0700
0600
8600
8C00
CC00
CC00
D8C0
7B80
7F00
7C00
3800
2000
ENDCHAR
STARTCHAR 21C4
ENCODING 8644
SWIDTH 500 0
DWIDTH 14 0
BBX 10 21 2 0
BITMAP
0600
0300
0180
0080
FFC0
FFC0
01C0
0180
0300
0600
0000
1800
3000
6000
E000
FFC0
FFC0
C000
6000
3000
1800
ENDCHAR
STARTCHAR 21D2
ENCODING 8658
SWIDTH 1000 0
DWIDTH 28 0
BBX 25 15 2 3
BITMAP
0000C000
0000E000
00007000
FFFFF800
FFFFFC00
00000E00
00000700
00000380
00000700
00000E00
FFFFFC00
FFFFF800
00007000
0000E000
0000C000
ENDCHAR
STARTCHAR 21D4
ENCODING 8660
SWIDTH 1000 0
DWIDTH 28 0
BBX 26 15 1 3
BITMAP
01806000
03003000
06001800
0FFFFC00
1FFFFE00
30000300
60000180
C00000C0
60000180
30000300
1FFFFE00
0FFFFC00
06001800
03003000
01806000
ENDCHAR
STARTCHAR 21E6
ENCODING 8678
SWIDTH 500 0
DWIDTH 14 0
BBX 12 9 1 6
BITMAP
0800
1800
2800
4FF0
8010
4FF0
2800
1800
0800
ENDCHAR
STARTCHAR 21E7
ENCODING 8679
SWIDTH 500 0
DWIDTH 14 0
BBX 10 22 2 0
BITMAP
0C00
1E00
1200
2100
6180
4080
F3C0
1200
1200
1200
1200
1200
1200
1200
1200
1200
1200
1200
1200
1200
1200
1E00
ENDCHAR
STARTCHAR 21E8
ENCODING 8680
SWIDTH 500 0
DWIDTH 14 0
BBX 12 9 1 6
BITMAP
0100
0180
0140
FF20
8010
FF20
0140
0180
0100
ENDCHAR
STARTCHAR 21E9
ENCODING 8681
SWIDTH 500 0
DWIDTH 14 0
BBX 10 22 2 -1
BITMAP
1E00
1200
1200
1200
1200
1200
1200
1200
1200
1200
1200
1200
1200
1200
1200
F3C0
4080
4180
2100
1200
1E00
0C00
ENDCHAR
STARTCHAR 2200
ENCODING 8704
SWIDTH 1000 0
DWIDTH 28 0
BBX 22 24 3 -3
BITMAP
C0000C
C0000C
600018
600018
300030
300030
380070
180060
1FFFE0
0FFFC0
0C00C0
060180
060180
030300
030300
018600
018600
00CC00
00CC00
007800
007800
003000
003000
002000
ENDCHAR
STARTCHAR 2202
ENCODING 8706
SWIDTH 1000 0
DWIDTH 28 0
BBX 14 22 6 0
BITMAP
03C0
0FF0
1C30
0818
0018
001C
000C
000C
000C
0F8C
1FEC
38FC
607C
E03C
C038
C038
C038
C070
E070
71E0
3FC0
1F00
ENDCHAR
STARTCHAR 2203
ENCODING 8707
SWIDTH 1000 0
DWIDTH 28 0
BBX 20 21 4 0
BITMAP
FFFFF0
FFFFF0
000030
000030
000030
000030
000030
000030
000030
FFFFF0
FFFFF0
000030
000030
000030
000030
000030
000030
000030
000030
FFFFF0
FFFFF0
ENDCHAR
STARTCHAR 2205
ENCODING 8709
SWIDTH 500 0
DWIDTH 14 0
BBX 12 16 1 3
BITMAP
0060
0060
0FC0
3FC0
71E0
61E0
C330
C730
C630
CC30
CC30
7860
38E0
3FC0
7F00
6000
ENDCHAR
STARTCHAR 2207
ENCODING 8711
SWIDTH 1000 0
DWIDTH 28 0
BBX 22 21 3 -2
BITMAP
FFFFFC
7FFFF8
700018
300030
380030
180060
1C0060
0C00C0
0E00C0
060180
070180
030300
038300
018600
01C600
00CC00
00EC00
007800
007800
003000
001000
ENDCHAR
STARTCHAR 2208
ENCODING 8712
SWIDTH 1000 0
DWIDTH 28 0
BBX 22 21 3 0
BITMAP
01FFFC
07FFFC
1E0000
380000
300000
600000
400000
C00000
C00000
FFFFFC
FFFFFC
C00000
C00000
C00000
400000
600000
300000
380000
1E0000
07FFFC
01FFFC
ENDCHAR
STARTCHAR 2209
ENCODING 8713
SWIDTH 500 0
DWIDTH 14 0
BBX 12 20 1 1
BITMAP
00C0
00C0
03F0
0FF0
1D80
3180
6180
6300
C300
FFF0
FFF0
C600
E600
E600
7600
3400
3C00
0FF0
0FF0
0800
ENDCHAR
STARTCHAR 220B
ENCODING 8715
SWIDTH 1000 0
DWIDTH 28 0
BBX 22 21 3 0
BITMAP
FFFE00
FFFF80
0001E0
000070
000030
000018
000008
00000C
00000C
FFFFFC
FFFFFC
00000C
00000C
00000C
000008
000018
000030
000070
0001E0
FFFF80
FFFE00
ENDCHAR
STARTCHAR 2212
ENCODING 8722
SWIDTH 500 0
DWIDTH 14 0
BBX 12 2 1 10
BITMAP
FFF0
FFF0
ENDCHAR
STARTCHAR 2213
ENCODING 8723
SWIDTH 500 0
DWIDTH 14 0
BBX 12 20 1 0
BITMAP
FFF0
FFF0
0000
0000
0000
0600
0600
0600
0600
0600
0600
FFF0
FFF0
0600
0600
0600
0600
0600
0600
0600
ENDCHAR
STARTCHAR 221A
ENCODING 8730
SWIDTH 1000 0
DWIDTH 28 0
BBX 27 27 1 -2
BITMAP
0001FFE0
00030000
00030000
00030000
00060000
00060000
00060000
000C0000
000C0000
000C0000
00180000
00180000
00180000
10300000
18300000
18200000
3C600000
3C600000
6C400000
66C00000
46C00000
C7800000
43800000
03800000
01000000
01000000
01000000
ENDCHAR
STARTCHAR 221D
ENCODING 8733
SWIDTH 1000 0
DWIDTH 28 0
BBX 23 11 2 5
BITMAP
1F00F8
3FC3FC
70E70E
E07E04
C03C00
C01800
C03C00
E06606
70C70E
3F81FC
1F00F8
ENDCHAR
STARTCHAR 221E
ENCODING 8734
SWIDTH 1000 0
DWIDTH 28 0
BBX 24 11 2 5
BITMAP
1F00F8
3FC3FC
70E706
E07E07
C03C03
C01803
C03C03
E07E07
70E70E
3FC3FC
1F00F8
ENDCHAR
STARTCHAR 221F
ENCODING 8735
SWIDTH 1000 0
DWIDTH 28 0
BBX 23 23 3 0
BITMAP
C00000
C00000
C00000
C00000
C00000
C00000
C00000
C00000
C00000
C00000
C00000
C00000
C00000
C00000
C00000
C00000
C00000
C00000
C00000
C00000
C00000
FFFFFE
FFFFFE
ENDCHAR
STARTCHAR 2220
ENCODING 8736
SWIDTH 1000 0
DWIDTH 28 0
BBX 23 22 2 1
BITMAP
000004
00000E
00001C
000038
000070
0000E0
0001C0
000380
000600
000C00
001800
003000
006000
00C000
018000
030000
060000
0C0000
180000
300000
7FFFFE
FFFFFE
ENDCHAR
STARTCHAR 2225
ENCODING 8741
SWIDTH 1000 0
DWIDTH 28 0
BBX 15 25 6 -1
BITMAP
0042
00C6
00C6
00C6
018C
018C
018C
0318
0318
0618
0630
0630
0C30
0C60
0C60
18C0
18C0
18C0
3180
3180
3180
6300
6300
C300
4000
ENDCHAR
STARTCHAR 2226
ENCODING 8742
SWIDTH 500 0
DWIDTH 14 0
BBX 12 24 1 -1
BITMAP
0630
0630
0620
0460
0C60
0C60
0C60
E8C0
78C0
38C0
1CC0
1E80
1780
3380
31C0
31E0
3170
2320
6300
6300
6200
4600
C600
C600
ENDCHAR
STARTCHAR 2227
ENCODING 8743
SWIDTH 1000 0
DWIDTH 28 0
BBX 22 24 3 0
BITMAP
002000
003000
003000
007800
007800
00CC00
00CC00
018600
018600
030300
030300
060180
060180
0C00C0
0C00C0
1C0060
180060
380060
300030
300030
600018
600018
C0000C
C0000C
ENDCHAR
STARTCHAR 2228
ENCODING 8744
SWIDTH 1000 0
DWIDTH 28 0
BBX 22 24 3 -3
BITMAP
C0000C
C0000C
600018
600018
300030
300030
180070
180060
1800E0
0C00C0
0C00C0
060180
060180
030300
030300
018600
018600
00CC00
00CC00
007800
007800
003000
003000
002000
ENDCHAR
STARTCHAR 2229
ENCODING 8745
SWIDTH 1000 0
DWIDTH 28 0
BBX 22 22 3 0
BITMAP
01FE00
07FF80
1F03E0
380070
300030
600018
600018
E0001C
C0000C
C0000C
C0000C
C0000C
C0000C
C0000C
C0000C
C0000C
C0000C
C0000C
C0000C
C0000C
C0000C
C0000C
ENDCHAR
STARTCHAR 222A
ENCODING 8746
SWIDTH 1000 0
DWIDTH 28 0
BBX 22 22 3 0
BITMAP
C0000C
C0000C
C0000C
C0000C
C0000C
C0000C
C0000C
C0000C
C0000C
C0000C
C0000C
C0000C
C0000C
C0000C
E0001C
600018
600018
300030
380070
1E01E0
07FF80
01FE00
ENDCHAR
STARTCHAR 222B
ENCODING 8747
SWIDTH 1000 0
DWIDTH 28 0
BBX 14 25 7 -2
BITMAP
0070
00F8
0198
018C
018C
0180
0100
0300
0300
0300
0300
0300
0300
0300
0300
0300
0300
0300
0600
0600
C600
C600
E600
7C00
3800
ENDCHAR
STARTCHAR 222C
ENCODING 8748
SWIDTH 1000 0
DWIDTH 28 0
BBX 24 25 2 -2
BITMAP
00703C
00F87E
01CC66
018C63
018C43
0180C0
0180C0
0180C0
0100C0
0300C0
0300C0
0300C0
0300C0
0300C0
0300C0
0300C0
030180
030180
030180
030180
C63180
C63180
663300
7C1F00
380E00
ENDCHAR
STARTCHAR 222E
ENCODING 8750
SWIDTH 1000 0
DWIDTH 28 0
BBX 14 25 7 -2
BITMAP
0070
00F8
0198
018C
018C
0180
0100
0300
0300
0FC0
0B40
1320
1320
1320
1B60
0FC0
0300
0300
0600
0600
C600
C600
E600
7C00
3800
ENDCHAR
STARTCHAR 2234
ENCODING 8756
SWIDTH 1000 0
DWIDTH 28 0
BBX 18 18 5 2
BITMAP
00C000
01E000
01E000
00C000
000000
000000
000000
000000
000000
000000
000000
000000
000000
000000
600180
F003C0
F003C0
600180
ENDCHAR
STARTCHAR 2235
ENCODING 8757
SWIDTH 1000 0
DWIDTH 28 0
BBX 18 18 5 2
BITMAP
600180
F003C0
F003C0
600180
000000
000000
000000
000000
000000
000000
000000
000000
000000
000000
00C000
01E000
01E000
00C000
ENDCHAR
STARTCHAR 223D
ENCODING 8765
SWIDTH 1000 0
DWIDTH 28 0
BBX 24 11 2 5
BITMAP
1F00F8
3F81FC
70870E
E00E07
C00C03
C01803
C03003
E07007
70E10E
3FC1FC
1F00F8
ENDCHAR
STARTCHAR 2243
ENCODING 8771
SWIDTH 500 0
DWIDTH 14 0
BBX 12 9 1 6
BITMAP
7C10
FFF0
83F0
0000
0000
0000
0000
FFF0
FFF0
ENDCHAR
STARTCHAR 2245
ENCODING 8773
SWIDTH 500 0
DWIDTH 14 0
BBX 12 14 1 4
BITMAP
3800
FE10
C7F0
01E0
0000
0000
0000
FFF0
FFF0
0000
0000
0000
FFF0
FFF0
ENDCHAR
STARTCHAR 2248
ENCODING 8776
SWIDTH 500 0
DWIDTH 14 0
BBX 12 10 1 6
BITMAP
3800
FE10
C7F0
01E0
0000
0000
0000
FC10
FFF0
03E0
ENDCHAR
STARTCHAR 2252
ENCODING 8786
SWIDTH 1000 0
DWIDTH 28 0
BBX 20 18 4 1
BITMAP
0E0000
0E0000
0E0000
000000
000000
FFFFF0
FFFFF0
000000
000000
000000
FFFFF0
FFFFF0
000000
000000
000000
000700
000700
000700
ENDCHAR
STARTCHAR 2260
ENCODING 8800
SWIDTH 1000 0
DWIDTH 28 0
BBX 20 20 4 1
BITMAP
000600
000600
000E00
000C00
001C00
001800
FFFFF0
FFFFF0
003000
006000
006000
00C000
FFFFF0
FFFFF0
018000
038000
030000
070000
060000
0E0000
ENDCHAR
STARTCHAR 2261
ENCODING 8801
SWIDTH 1000 0
DWIDTH 28 0
BBX 20 14 4 4
BITMAP
FFFFF0
FFFFF0
000000
000000
000000
000000
FFFFF0
FFFFF0
000000
000000
000000
000000
FFFFF0
FFFFF0
ENDCHAR
STARTCHAR 2262
ENCODING 8802
SWIDTH 500 0
DWIDTH 14 0
BBX 12 20 1 1
BITMAP
00C0
00C0
0180
0180
FFF0
FFF0
0300
0300
0700
FFF0
FFF0
0600
0C00
0C00
0C00
FFF0
FFF0
1800
3800
3000
ENDCHAR
STARTCHAR 2266
ENCODING 8806
SWIDTH 1000 0
DWIDTH 28 0
BBX 20 22 4 0
BITMAP
000010
0000F0
0007C0
003E00
01F000
0F8000
7C0000
F80000
1F0000
03E000
007C00
000F80
0001F0
000030
000000
000000
FFFFF0
FFFFF0
000000
000000
FFFFF0
FFFFF0
ENDCHAR
STARTCHAR 2267
ENCODING 8807
SWIDTH 1000 0
DWIDTH 28 0
BBX 20 22 4 0
BITMAP
800000
F00000
3E0000
07C000
00F800
001F00
0003E0
0001F0
000F80
007C00
03E000
1F0000
F80000
C00000
000000
000000
FFFFF0
FFFFF0
000000
000000
FFFFF0
FFFFF0
ENDCHAR
STARTCHAR 226A
ENCODING 8810
SWIDTH 1000 0
DWIDTH 28 0
BBX 22 25 3 -2
BITMAP
000E1C
001C38
003870
0070C0
00E180
01C300
038600
070C00
0E1800
183000
30E000
61C000
C38000
61C000
30E000
183000
0E1800
070C00
038600
01C300
00E180
0070C0
003870
001C38
000E1C
ENDCHAR
STARTCHAR 226B
ENCODING 8811
SWIDTH 1000 0
DWIDTH 28 0
BBX 22 25 3 -2
BITMAP
E1C000
70E000
387000
0C3800
061C00
030E00
018700
00C380
0061C0
003860
001C30
000E18
00070C
000E18
001C30
003860
0061C0
00C380
018700
030E00
061C00
0C3800
387000
70E000
E1C000
ENDCHAR
STARTCHAR 2276
ENCODING 8822
SWIDTH 500 0
DWIDTH 14 0
BBX 12 21 1 0
BITMAP
0030
00F0
03C0
0F00
3C00
F000
7800
1E00
07C0
80F0
E030
7800
1E00
0780
01E0
00F0
03C0
0F00
7C00
F000
8000
ENDCHAR
STARTCHAR 2277
ENCODING 8823
SWIDTH 500 0
DWIDTH 14 0
BBX 12 21 1 0
BITMAP
C000
F000
3C00
0F00
03C0
00F0
01E0
0780
3E00
F810
C070
01E0
0780
1E00
7800
F000
3C00
0F00
03E0
0070
0010
ENDCHAR
STARTCHAR 2282
ENCODING 8834
SWIDTH 1000 0
DWIDTH 28 0
BBX 22 21 3 0
BITMAP
01FFFC
07FFFC
1F0000
380000
300000
600000
600000
C00000
C00000
C00000
C00000
C00000
C00000
C00000
600000
600000
300000
380000
1E0000
07FFFC
01FFFC
ENDCHAR
STARTCHAR 2283
ENCODING 8835
SWIDTH 1000 0
DWIDTH 28 0
BBX 22 21 3 0
BITMAP
FFFE00
FFFF80
0003E0
000070
000030
000018
000018
00000C
00000C
00000C
00000C
00000C
00000C
00000C
000018
000018
000030
000070
0001E0
FFFF80
FFFE00
ENDCHAR
STARTCHAR 2284
ENCODING 8836
SWIDTH 500 0
DWIDTH 14 0
BBX 12 20 1 1
BITMAP
00C0
00C0
03F0
0FF0
1D80
3180
6180
6300
C300
C300
C300
C600
C600
E600
6600
7400
3C00
0FF0
0FF0
0C00
ENDCHAR
STARTCHAR 2285
ENCODING 8837
SWIDTH 500 0
DWIDTH 14 0
BBX 12 21 1 0
BITMAP
0100
0300
FF00
FF00
03C0
02C0
0660
0660
0630
0630
0C30
0C30
0C30
0C70
1860
18E0
1BC0
FF80
FE00
3000
3000
ENDCHAR
STARTCHAR 2286
ENCODING 8838
SWIDTH 1000 0
DWIDTH 28 0
BBX 22 21 3 0
BITMAP
07FFFC
1FFFFC
380000
700000
600000
C00000
C00000
C00000
C00000
C00000
600000
600000
380000
1FFFFC
07FFFC
000000
000000
000000
000000
FFFFFC
FFFFFC
ENDCHAR
STARTCHAR 2287
ENCODING 8839
SWIDTH 1000 0
DWIDTH 28 0
BBX 22 21 3 0
BITMAP
FFFF80
FFFFE0
000070
000038
000018
00000C
00000C
00000C
00000C
00000C
000018
000038
000070
FFFFE0
FFFF80
000000
000000
000000
000000
FFFFFC
FFFFFC
ENDCHAR
STARTCHAR 228A
ENCODING 8842
SWIDTH 500 0
DWIDTH 14 0
BBX 12 20 1 0
BITMAP
0FF0
3FF0
7000
6000
C000
C000
C000
C000
C000
6000
7000
3FF0
0FF0
0000
0000
0300
FFF0
FFF0
0C00
0C00
ENDCHAR
STARTCHAR 228B
ENCODING 8843
SWIDTH 500 0
DWIDTH 14 0
BBX 12 20 1 0
BITMAP
FF00
FFC0
00E0
0060
0030
0030
0030
0030
0030
0060
00E0
FFC0
FF00
0000
0000
0300
FFF0
FFF0
0C00
0C00
ENDCHAR
STARTCHAR 2295
ENCODING 8853
SWIDTH 500 0
DWIDTH 14 0
BBX 12 12 1 5
BITMAP
0F00
30C0
4460
8420
8410
8410
BFD0
8410
4430
4460
30C0
0F80
ENDCHAR
STARTCHAR 2296
ENCODING 8854
SWIDTH 500 0
DWIDTH 14 0
BBX 12 13 1 4
BITMAP
0F00
30C0
6060
4020
8010
8010
BFD0
8010
8010
4020
6060
30C0
0F00
ENDCHAR
STARTCHAR 2297
ENCODING 8855
SWIDTH 500 0
DWIDTH 14 0
BBX 12 12 1 5
BITMAP
0F00
30C0
4060
50A0
9990
8F10
8610
8F10
59B0
4060
30C0
0F80
ENDCHAR
STARTCHAR 22A5
ENCODING 8869
SWIDTH 1000 0
DWIDTH 28 0
BBX 24 23 2 0
BITMAP
001800
001800
001800
001800
001800
001800
001800
001800
001800
001800
001800
001800
001800
001800
001800
001800
001800
001800
001800
001800
001800
FFFFFF
FFFFFF
ENDCHAR
STARTCHAR 22BF
ENCODING 8895
SWIDTH 1000 0
DWIDTH 28 0
BBX 23 23 2 1
BITMAP
000002
000006
00000E
00001E
00003E
000076
0000E6
0001C6
000386
000706
000E06
001C06
003806
007006
00E006
01C006
038006
070006
0E0006
1C0006
380006
7FFFFE
FFFFFE
ENDCHAR
STARTCHAR 22DA
ENCODING 8922
SWIDTH 500 0
DWIDTH 14 0
BBX 12 24 1 -2
BITMAP
0010
00F0
03E0
1F00
7800
F800
1F00
03C0
00F0
0010
0000
FFF0
FFF0
0000
8000
F000
3C00
0F80
01F0
01E0
0F80
7C00
F000
8000
ENDCHAR
STARTCHAR 22DB
ENCODING 8923
SWIDTH 500 0
DWIDTH 14 0
BBX 12 24 1 -2
BITMAP
8000
F000
7C00
0F80
01E0
01F0
0F80
3C00
F000
8000
0000
FFF0
FFF0
0000
0010
00F0
03C0
1F00
7800
F800
1F00
03E0
00F0
0010
ENDCHAR
STARTCHAR 2305
ENCODING 8965
SWIDTH 500 0
DWIDTH 14 0
BBX 12 13 1 3
BITMAP
FFF0
FFF0
0000
0600
0600
0F00
0F00
1980
39C0
30C0
70E0
6060
E070
ENDCHAR
STARTCHAR 2306
ENCODING 8966
SWIDTH 500 0
DWIDTH 14 0
BBX 12 17 1 2
BITMAP
FFF0
FFF0
0000
0000
FFF0
FFF0
0000
0600
0600
0F00
0F00
1980
39C0
30C0
70E0
6060
E070
ENDCHAR
STARTCHAR 2312
ENCODING 8978
SWIDTH 1000 0
DWIDTH 28 0
BBX 26 5 1 17
BITMAP
00FFC000
07FFF800
3F003F00
78000780
C00000C0
ENDCHAR
STARTCHAR 2318
ENCODING 8984
SWIDTH 1000 0
DWIDTH 28 0
BBX 24 24 2 -1
BITMAP
3C003C
460062
8300C1
8300C1
8300C1
C300C3
7FFFFE
3FFFFC
0300C0
0300C0
0300C0
0300C0
0300C0
0300C0
0300C0
0300C0
3FFFFC
7FFFFE
C300C3
8300C1
8300C1
8300C1
460063
3C003E
ENDCHAR
STARTCHAR 23BE
ENCODING 9150
SWIDTH 1000 0
DWIDTH 28 0
BBX 15 28 13 -3
BITMAP
FFFE
8000
8000
8000
8000
8000
8000
8000
8000
8000
8000
8000
8000
8000
8000
8000
8000
8000
8000
8000
8000
8000
8000
8000
8000
8000
8000
8000
ENDCHAR
STARTCHAR 23BF
ENCODING 9151
SWIDTH 1000 0
DWIDTH 28 0
BBX 15 28 13 -3
BITMAP
8000
8000
8000
8000
8000
8000
8000
8000
8000
8000
8000
8000
8000
8000
8000
8000
8000
8000
8000
8000
8000
8000
8000
8000
8000
8000
8000
FFFE
ENDCHAR
STARTCHAR 23C0
ENCODING 9152
SWIDTH 1000 0
DWIDTH 28 0
BBX 21 28 3 -3
BITMAP
002000
002000
002000
007000
03FE00
0C2180
1820C0
302060
602020
402010
402010
802008
802008
802008
802008
802008
802008
402010
402010
602030
302060
1820C0
0C2180
03FE00
007000
002000
002000
002000
ENDCHAR
STARTCHAR 23C1
ENCODING 9153
SWIDTH 1000 0
DWIDTH 28 0
BBX 28 28 0 -3
BITMAP
FFFFFFF0
00040000
00040000
000F0000
007DE000
01843000
03040C00
04040600
0C040200
08040300
08040100
10040180
10040080
10040080
10040080
10040080
10040080
08040100
08040300
0C040200
06040600
03041C00
01843000
007FE000
000E0000
00040000
00040000
00040000
ENDCHAR
STARTCHAR 23C2
ENCODING 9154
SWIDTH 1000 0
DWIDTH 28 0
BBX 28 28 0 -3
BITMAP
00040000
00040000
00040000
000E0000
007FC000
01843000
03040800
06040400
04040600
08040300
08040100
10040180
10040080
10040080
10040080
10040080
10040080
08040100
08040300
0C040200
04040600
02040C00
01843800
0075E000
000F0000
00040000
00040000
FFFFFFF0
ENDCHAR
STARTCHAR 23C3
ENCODING 9155
SWIDTH 1000 0
DWIDTH 28 0
BBX 23 28 2 -3
BITMAP
001000
001000
001000
001000
001000
003800
003800
005400
00D600
009200
019300
011100
031180
021080
041040
0C1060
081020
181030
101010
301008
201008
401004
C01006
FFFFFE
001000
001000
001000
001000
ENDCHAR
STARTCHAR 23C4
ENCODING 9156
SWIDTH 1000 0
DWIDTH 28 0
BBX 28 28 0 -3
BITMAP
FFFFFFF0
00040000
00040000
00040000
00040000
000E0000
000F0000
00150000
00358000
00248000
0064C000
00446000
00C42000
00843000
01841000
01041800
02040800
06040400
04040600
0C040200
08040300
18040100
10040080
3FFFFFC0
00040000
00040000
00040000
00040000
ENDCHAR
STARTCHAR 23C5
ENCODING 9157
SWIDTH 1000 0
DWIDTH 28 0
BBX 28 28 0 -3
BITMAP
00040000
00040000
00040000
00040000
00040000
000E0000
000E0000
00150000
00358000
00248000
0064C000
00444000
00C42000
00843000
01841000
01041800
02040800
06040400
04040600
0C040200
08040300
18040100
10040080
3FFFFFC0
00040000
00040000
00040000
FFFFFFF0
ENDCHAR
STARTCHAR 23C6
ENCODING 9158
SWIDTH 1000 0
DWIDTH 28 0
BBX 23 28 2 -3
BITMAP
001000
001000
001000
001000
001000
001000
001000
001000
001000
001000
001000
3F1000
C1D000
003000
001800
001706
0011F8
001000
001000
001000
001000
001000
001000
001000
001000
001000
001000
001000
ENDCHAR
STARTCHAR 23C7
ENCODING 9159
SWIDTH 1000 0
DWIDTH 28 0
BBX 28 28 0 -3
BITMAP
FFFFFFF0
00040000
00040000
00040000
00040000
00040000
00040000
00040000
00040000
00040000
00040000
0FC40000
30740000
000C0000
00070040
0005C1C0
00043F00
00040000
00040000
00040000
00040000
00040000
00040000
00040000
00040000
00040000
00040000
00040000
ENDCHAR
STARTCHAR 23C8
ENCODING 9160
SWIDTH 1000 0
DWIDTH 28 0
BBX 28 28 0 -3
BITMAP
00040000
00040000
00040000
00040000
00040000
00040000
00040000
00040000
00040000
00040000
00040000
0FC40000
30740000
201C0000
00060040
0005C1C0
00047F00
00040000
00040000
00040000
00040000
00040000
00040000
00040000
00040000
00040000
00040000
FFFFFFF0
ENDCHAR
STARTCHAR 23C9
ENCODING 9161
SWIDTH 1000 0
DWIDTH 28 0
BBX 28 28 0 -3
BITMAP
FFFFFFF0
00040000
00040000
00040000
00040000
00040000
00040000
00040000
00040000
00040000
00040000
00040000
00040000
00040000
00040000
00040000
00040000
00040000
00040000
00040000
00040000
00040000
00040000
00040000
00040000
00040000
00040000
00040000
ENDCHAR
STARTCHAR 23CA
ENCODING 9162
SWIDTH 1000 0
DWIDTH 28 0
BBX 28 28 0 -3
BITMAP
00040000
00040000
00040000
00040000
00040000
00040000
00040000
00040000
00040000
00040000
00040000
00040000
00040000
00040000
00040000
00040000
00040000
00040000
00040000
00040000
00040000
00040000
00040000
00040000
00040000
00040000
00040000
FFFFFFF0
ENDCHAR
STARTCHAR 23CB
ENCODING 9163
SWIDTH 1000 0
DWIDTH 28 0
BBX 15 28 0 -3
BITMAP
FFFE
0002
0002
0002
0002
0002
0002
0002
0002
0002
0002
0002
0002
0002
0002
0002
0002
0002
0002
0002
0002
0002
0002
0002
0002
0002
0002
0002
ENDCHAR
STARTCHAR 23CC
ENCODING 9164
SWIDTH 1000 0
DWIDTH 28 0
BBX 15 28 0 -3
BITMAP
0002
0002
0002
0002
0002
0002
0002
0002
0002
0002
0002
0002
0002
0002
0002
0002
0002
0002
0002
0002
0002
0002
0002
0002
0002
0002
0002
FFFE
ENDCHAR
STARTCHAR 23CE
ENCODING 9166
SWIDTH 1000 0
DWIDTH 28 0
BBX 23 23 2 -2
BITMAP
0003FE
000306
000306
000306
000306
000306
000306
00C306
01C306
03C306
06C306
08FE06
300006
600006
C00006
C0000C
60000C
300018
08FFF0
06C000
03C000
01C000
004000
ENDCHAR
STARTCHAR 2423
ENCODING 9251
SWIDTH 1000 0
DWIDTH 28 0
BBX 22 6 3 -1
BITMAP
C0000C
C0000C
C0000C
C0000C
FFFFFC
FFFFFC
ENDCHAR
STARTCHAR 2460
ENCODING 9312
SWIDTH 1000 0
DWIDTH 28 0
BBX 26 26 1 -2
BITMAP
007F0000
01C0E000
06001000
0C000C00
180C0600
303C0300
207C0100
404C0080
400C0080
C00C0080
800C0040
800C0040
800C0040
800C0040
800C0040
800C0040
400C0080
400C0080
400C0080
200C0100
300C0300
180C0600
0C000C00
06001800
01C0E000
003F0000
ENDCHAR
STARTCHAR 2461
ENCODING 9313
SWIDTH 1000 0
DWIDTH 28 0
BBX 27 27 0 -3
BITMAP
003F8000
00C07000
03001800
04000400
081F8200
103FC100
2070E080
60E070C0
40E03040
40C03040
80003020
80006020
8000E020
8003C020
80070020
801C0020
80380020
40300040
40600040
60E000C0
20FFF080
10FFF100
18000200
0C000400
03001800
01C07000
003F8000
ENDCHAR
STARTCHAR 2462
ENCODING 9314
SWIDTH 1000 0
DWIDTH 28 0
BBX 27 26 1 -2
BITMAP
003F8000
00C07000
03001800
04000600
081F0300
107FC100
20E0C080
40C06040
40C06040
C0006040
80006020
8000C020
801F8020
801FC020
8000E020
80007020
C0003040
41C03040
41C03040
20E0E080
307FC100
181F8300
0C000600
02001800
01C07000
003F8000
ENDCHAR
STARTCHAR 2463
ENCODING 9315
SWIDTH 1000 0
DWIDTH 28 0
BBX 27 26 1 -2
BITMAP
003F8000
01C07000
07001800
0C000600
18070300
30070100
200F0080
400F0040
401B0040
C03B0040
80330020
80630020
80E30020
80C30020
81830020
83830020
43FFF040
43FFF040
40030040
20030080
10030100
18030300
0C000600
02001800
01C07000
003F8000
ENDCHAR
STARTCHAR 2464
ENCODING 9316
SWIDTH 1000 0
DWIDTH 28 0
BBX 27 26 0 -2
BITMAP
003F8000
00C07000
01001800
06000600
08000300
107FE100
207FE080
40600040
40600040
40600040
806F0020
807FC020
8070E020
80E06020
80003020
80003020
C0003040
40003040
40E07040
2070E080
303FC100
181F8300
0C000600
02001800
01C07000
003F8000
ENDCHAR
STARTCHAR 2465
ENCODING 9317
SWIDTH 1000 0
DWIDTH 28 0
BBX 26 26 1 -3
BITMAP
007F0000
03C0E000
06001800
0C000C00
181F0600
303F8300
6071C100
40C0E080
40C00080
C1C00080
819F0040
81BF8040
81F1C040
81E0E040
81C06040
81C06040
41C06080
40C06080
40E0C080
20F1C100
107F8300
181F0600
0C000C00
06001800
01C0E000
007F0000
ENDCHAR
STARTCHAR 2466
ENCODING 9318
SWIDTH 1000 0
DWIDTH 28 0
BBX 27 27 0 -3
BITMAP
003F8000
01C07000
03001800
0C000400
18000200
10FFF100
20FFF080
600070C0
40006040
4000E040
8000C020
8001C020
80018020
80038020
80030020
80030020
80070020
40060040
400E0040
600E00C0
200C0080
101C0100
081C0200
04000400
03001800
01C07000
003F8000
ENDCHAR
STARTCHAR 2467
ENCODING 9319
SWIDTH 1000 0
DWIDTH 28 0
BBX 26 27 1 -3
BITMAP
007F0000
01C0E000
06001000
0C000C00
183F0600
307F8200
20E1C100
61806080
41806080
41806080
81806040
80E1C040
807F8040
807F8040
81C1E040
83806040
83003040
43003080
43003080
63C07180
21E0E100
10FFC200
183F0600
0C000C00
02001000
01C0E000
003F0000
ENDCHAR
STARTCHAR 2468
ENCODING 9320
SWIDTH 1000 0
DWIDTH 28 0
BBX 26 26 1 -3
BITMAP
007F0000
03C0E000
06001800
0C000C00
183F0600
307F8300
60E3C100
41C1C080
4180E080
C180E080
8180E040
81C1E040
80E3E040
807FE040
803E6040
80006040
40006080
40C0C080
40C0C080
20E18100
107F8300
183E0600
0C000C00
06001800
01C0E000
007F0000
ENDCHAR
STARTCHAR 2469
ENCODING 9321
SWIDTH 1000 0
DWIDTH 28 0
BBX 26 27 1 -3
BITMAP
003F0000
00C0E000
03001000
04000C00
08000600
1303C200
2707E100
470E7080
430C3080
43181880
83181840
83181840
83181840
83181840
83181840
83181840
83181840
43181880
430C3080
630E7180
2307E100
1303C200
18000600
0C000C00
06001000
01C0E000
007F0000
ENDCHAR
STARTCHAR 246A
ENCODING 9322
SWIDTH 1000 0
DWIDTH 28 0
BBX 27 27 0 -3
BITMAP
003F8000
00C07000
03001800
04000400
08000200
10C03100
21C07080
23C0F0C0
42C0B040
40C03040
80C03020
80C03020
80C03020
80C03020
80C03020
80C03020
80C03020
40C03040
40C03040
60C030C0
20C03080
10C03100
18000200
0C000400
03001800
01C07000
003F8000
ENDCHAR
STARTCHAR 246B
ENCODING 9323
SWIDTH 1000 0
DWIDTH 28 0
BBX 27 27 1 -3
BITMAP
003F8000
00C07000
03001800
04000400
08000200
1303C100
270FF080
670C3880
431C1840
43181840
83001820
83003820
83003020
83006020
8301C020
83038020
83070020
430E0040
430C0040
631C00C0
231FF880
131FF900
18000200
0C000400
03001800
01C07000
003F8000
ENDCHAR
STARTCHAR 246C
ENCODING 9324
SWIDTH 1000 0
DWIDTH 28 0
BBX 26 27 1 -3
BITMAP
003F0000
00C0E000
03001000
04000C00
08000600
1307C200
270FE100
471C7080
43183080
43003080
83003040
83006040
8303E040
8303E040
83003040
83001840
83001840
43181880
43181880
631C3180
230FF100
1307C200
18000600
0C000C00
06001000
01C0E000
007F0000
ENDCHAR
STARTCHAR 246D
ENCODING 9325
SWIDTH 1000 0
DWIDTH 28 0
BBX 26 27 1 -3
BITMAP
003F0000
00C0E000
03001000
04000C00
08000600
1300E200
2700E100
4701E080
4301E080
43036080
83076040
83066040
830E6040
831C6040
83186040
83386040
833FFC40
433FFC80
43006080
63006180
23006100
13006200
18000600
0C000C00
06001000
01C0E000
007F0000
ENDCHAR
STARTCHAR 246E
ENCODING 9326
SWIDTH 1000 0
DWIDTH 28 0
BBX 26 27 1 -3
BITMAP
003F0000
00C0E000
03001000
04000C00
08000600
131FF200
271FF100
471C0080
431C0080
431C0080
831C0040
831BC040
831FF040
831C3040
83003840
83001840
83001840
43001880
43181880
631C3180
230FE100
1307C200
18000600
0C000C00
06001000
01C0E000
007F0000
ENDCHAR
STARTCHAR 246F
ENCODING 9327
SWIDTH 1000 0
DWIDTH 28 0
BBX 26 27 1 -3
BITMAP
003F0000
00C0E000
03001000
04000C00
08000600
1307C200
270FE100
471C7080
431C3080
43180080
83380040
833BC040
833FE040
833C6040
83303040
83303040
83303040
43303080
43187080
631C6180
230FE100
13078200
18000600
0C000C00
06001000
01C0E000
007F0000
ENDCHAR
STARTCHAR 2470
ENCODING 9328
SWIDTH 1000 0
DWIDTH 28 0
BBX 27 27 1 -3
BITMAP
003F8000
00C07000
03001800
04000400
08000200
119FF900
239FF880
27803880
45803040
41807040
81806020
81806020
8180E020
8180C020
8181C020
81818020
81818020
41838040
41838040
618300C0
21830080
11870100
18000200
0C000400
03001800
01C07000
003F8000
ENDCHAR
STARTCHAR 2471
ENCODING 9329
SWIDTH 1000 0
DWIDTH 28 0
BBX 26 27 1 -3
BITMAP
003F0000
00C0E000
03001000
04000C00
08000600
13078200
270FE100
471C7080
43183080
43183080
83183040
830C6040
8307C040
830FE040
831C3040
83301840
83301840
43301880
43301880
63187180
231FF100
1307C200
18000600
0C000C00
06001000
01C0E000
007F0000
ENDCHAR
STARTCHAR 2472
ENCODING 9330
SWIDTH 1000 0
DWIDTH 28 0
BBX 26 27 1 -3
BITMAP
003F0000
00C0E000
03001000
04000C00
08000600
1303C200
270FE100
470C7080
43183080
43181880
83181840
83181840
83183840
830C7840
830FF840
8307B840
83003840
43003080
43187080
631C7180
230FE100
1307C200
18000600
0C000C00
06001000
01C0E000
007F0000
ENDCHAR
STARTCHAR 2473
ENCODING 9331
SWIDTH 1000 0
DWIDTH 28 0
BBX 26 27 1 -3
BITMAP
007F0000
01C0E000
06001000
0C000C00
19E0F600
33F1FA00
23399900
66199C80
461B0C80
C61B0C80
803B0C40
80330C40
80730C40
80E30C40
80C30C40
81830C40
83830C40
43030C80
43019C80
66019980
27F9F900
17F8F200
18000600
0C000C00
02001000
01C0E000
003F0000
ENDCHAR
STARTCHAR 24D0
ENCODING 9424
SWIDTH 1000 0
DWIDTH 28 0
BBX 26 26 1 -2
BITMAP
003F8000
01C0E000
06001800
0C000C00
18000600
30000300
20000100
401F0080
407F8080
C061C080
80C0C040
8000C040
801FC040
807CC040
80E0C040
80C0C040
80C3C080
40FFE080
403CE080
20000100
30000300
18000600
0C000C00
06001800
01C0E000
003F0000
ENDCHAR
STARTCHAR 24D1
ENCODING 9425
SWIDTH 1000 0
DWIDTH 28 0
BBX 27 26 0 -3
BITMAP
003F8000
01C07000
07001800
0C000600
18600300
30600100
20600080
40600040
40600040
C0678040
8078E020
80706020
80603020
80603020
80603020
80603020
40603040
40706040
4078C040
206F8080
10000100
18000300
0C000600
02001800
01C07000
003F8000
ENDCHAR
STARTCHAR 24D2
ENCODING 9426
SWIDTH 1000 0
DWIDTH 28 0
BBX 26 26 1 -3
BITMAP
007F0000
03C0E000
06001800
0C000C00
18000600
30000300
60000100
403E0080
407F8080
C0E1C080
81C0C040
81800040
81800040
81800040
81C0C040
80E1C040
407F8080
403E0080
40000080
20000100
10000300
18000600
0C000C00
06001800
01C0E000
007F0000
ENDCHAR
STARTCHAR 24D3
ENCODING 9427
SWIDTH 1000 0
DWIDTH 28 0
BBX 27 26 1 -3
BITMAP
003F8000
01C07000
07001800
0C000600
1800C300
3000C100
2000C080
4000C040
4000C040
C03CC040
80E3C020
80C1C020
8180C020
8180C020
8180C020
8180C020
4180C040
40C1C040
4063C040
203CC080
10000100
18000300
0C000600
02001800
01C07000
003F8000
ENDCHAR
STARTCHAR 24D4
ENCODING 9428
SWIDTH 1000 0
DWIDTH 28 0
BBX 26 26 1 -2
BITMAP
007F0000
01C0E000
06001800
0C000C00
18000600
30000300
20000100
403E0080
407F8080
C0E18080
81C0C040
81C0C040
81FFC040
81FFE040
81C00040
81C0C040
80E1C080
407F8080
403F0080
20000100
30000300
18000600
0C000C00
06001800
01C0E000
003F0000
ENDCHAR
STARTCHAR 24D5
ENCODING 9429
SWIDTH 1000 0
DWIDTH 28 0
BBX 26 27 1 -3
BITMAP
007F0000
03C0E000
06001000
0C000C00
18000600
300F8200
201F8100
60180080
40180080
C0180080
80180040
80FF8040
80FF8040
80180040
80180040
80180040
80180040
40180080
40180080
60180180
20180100
10180200
18000600
0C000C00
02001000
01C0E000
003F0000
ENDCHAR
STARTCHAR 24D6
ENCODING 9430
SWIDTH 1000 0
DWIDTH 28 0
BBX 26 27 1 -3
BITMAP
007F0000
01C0E000
06001000
0C000C00
18000600
30000200
201EC100
6063C080
4061C080
C0C0C080
80C0C040
80C0C040
80C0C040
8061C040
8063C040
801EC040
8000C040
40C0C080
4040C080
60618180
203F0100
10000200
18000600
0C000C00
02001000
01C0E000
003F0000
ENDCHAR
STARTCHAR 24D7
ENCODING 9431
SWIDTH 1000 0
DWIDTH 28 0
BBX 27 26 1 -2
BITMAP
003F8000
00C07000
03001800
04000600
08000300
10600100
20600080
40600040
40600040
40600040
80678020
807FC020
8078E020
80706020
80606020
80606020
C0606040
40606040
40606040
20606080
30606100
18000300
0C000600
02001800
01C07000
003F8000
ENDCHAR
STARTCHAR 24D8
ENCODING 9432
SWIDTH 1000 0
DWIDTH 28 0
BBX 27 27 1 -3
BITMAP
003F8000
01C07000
07001800
0C000400
18000200
300E0100
200E0080
600E0080
40000040
40000040
800C0020
800C0020
800C0020
800C0020
800C0020
800C0020
800C0020
400C0040
400C0040
600C00C0
200C0080
100C0100
08000200
04000400
03001800
01C07000
003F8000
ENDCHAR
STARTCHAR 24D9
ENCODING 9433
SWIDTH 1000 0
DWIDTH 28 0
BBX 26 26 1 -2
BITMAP
007F0000
01C0E000
06001000
0C060C00
18060600
30000300
60000100
40000080
40060080
C0060080
80060040
80060040
80060040
80060040
80060040
80060040
40060080
40060080
40060080
20060100
307E0300
187C0600
0C000C00
06001800
01C0E000
003F0000
ENDCHAR
STARTCHAR 24DA
ENCODING 9434
SWIDTH 1000 0
DWIDTH 28 0
BBX 27 26 1 -2
BITMAP
003F8000
00C07000
03001800
04000600
08000300
10600100
20600080
40600040
40600040
40600040
8061C020
80638020
80670020
806E0020
807E0020
807F0020
C0730040
40618040
4060C040
2060E080
30607100
18000300
0C000600
02001800
01C07000
003F8000
ENDCHAR
STARTCHAR 24DB
ENCODING 9435
SWIDTH 1000 0
DWIDTH 28 0
BBX 26 27 1 -3
BITMAP
007F0000
01C0E000
06001000
0C000C00
18000600
300C0200
200C0100
600C0080
400C0080
C00C0080
800C0040
800C0040
800C0040
800C0040
800C0040
800C0040
800C0040
400C0080
400C0080
600C0180
200C0100
100C0200
18000600
0C000C00
02001000
01C0E000
003F0000
ENDCHAR
STARTCHAR 24DC
ENCODING 9436
SWIDTH 1000 0
DWIDTH 28 0
BBX 26 27 1 -3
BITMAP
003F0000
01C0E000
02001000
04000C00
08000600
10000200
20000100
60000080
4379E080
43FFF080
838E3040
830C3040
830C3040
830C3040
830C3040
830C3040
830C3040
430C3080
430C3080
60000180
20000100
10000200
18000600
0C000C00
06001000
01C0E000
007F0000
ENDCHAR
STARTCHAR 24DD
ENCODING 9437
SWIDTH 1000 0
DWIDTH 28 0
BBX 26 27 1 -3
BITMAP
003F0000
01C0E000
02001000
04000C00
08000600
10000200
20000100
60000080
40CF0080
40FF8080
80F1C040
80E0C040
80C0C040
80C0C040
80C0C040
80C0C040
80C0C040
40C0C080
40C0C080
60000180
20000100
10000200
18000600
0C000C00
06001000
01C0E000
007F0000
ENDCHAR
STARTCHAR 24DE
ENCODING 9438
SWIDTH 1000 0
DWIDTH 28 0
BBX 26 27 1 -3
BITMAP
007F0000
01C0E000
06001000
0C000C00
18000600
30000200
20000100
601E0080
407F8080
40E1C080
81C0C040
8180E040
81806040
81806040
81806040
81C0C040
80E1C040
407F8080
403F0080
60000180
20000100
10000200
18000600
0C000C00
02001000
01C0E000
003F0000
ENDCHAR
STARTCHAR 24DF
ENCODING 9439
SWIDTH 1000 0
DWIDTH 28 0
BBX 27 27 0 -3
BITMAP
003F8000
00C07000
03001800
04000400
08000200
10000100
20000080
606780C0
4078E040
40706040
80603020
80603020
80603020
80603020
80603020
80706020
8078E020
40678040
40600040
606000C0
20600080
10000100
18000200
0C000400
03001800
01C07000
003F8000
ENDCHAR
STARTCHAR 24E0
ENCODING 9440
SWIDTH 1000 0
DWIDTH 28 0
BBX 27 27 1 -3
BITMAP
003F8000
00C07000
03001800
04000400
08000200
10000100
20000080
603CC0C0
40E3C040
40C1C040
8180C020
8180C020
8180C020
8180C020
8180C020
80C1C020
80E3C020
403CC040
4000C040
6000C0C0
2000C080
10000100
18000200
0C000400
03001800
01C07000
003F8000
ENDCHAR
STARTCHAR 24E1
ENCODING 9441
SWIDTH 1000 0
DWIDTH 28 0
BBX 26 27 1 -3
BITMAP
003F0000
01C0E000
06001000
0C000C00
18000600
30000200
20000100
60000080
4018C080
C01BC080
801F0040
801E0040
80180040
80180040
80180040
80180040
80180040
40180080
40180080
60180180
20000100
10000200
18000600
0C000C00
02001000
01C0E000
003F0000
ENDCHAR
STARTCHAR 24E2
ENCODING 9442
SWIDTH 1000 0
DWIDTH 28 0
BBX 26 26 1 -2
BITMAP
003F0000
01C0E000
02001800
0C000C00
18000600
10000300
20000100
40000080
401E0080
40618080
80618040
80700040
803E0040
801F8040
8003C040
80C0C040
C0C0C080
40618080
403F0080
20000100
30000300
18000600
0C000C00
06001800
01C0E000
007F0000
ENDCHAR
STARTCHAR 24E3
ENCODING 9443
SWIDTH 1000 0
DWIDTH 28 0
BBX 28 27 0 -3
BITMAP
003FC000
01E03000
03000C00
0C000200
18000100
30000080
200C0040
600C0040
400C0020
C07F8020
807F8010
800C0010
800C0010
800C0010
800C0010
800C0010
800C0010
400C0020
400C0020
200FC060
2007C040
10000080
08000100
04000200
03000C00
00C03000
003FC000
ENDCHAR
STARTCHAR 24E4
ENCODING 9444
SWIDTH 1000 0
DWIDTH 28 0
BBX 26 27 1 -3
BITMAP
003F0000
01C0E000
02001000
04000C00
08000600
10000200
20000100
60000080
40C0C080
40C0C080
80C0C040
80C0C040
80C0C040
80C0C040
80C0C040
80C0C040
80E3C040
407FC080
403CC080
60000180
20000100
10000200
18000600
0C000C00
06001000
01C0E000
007F0000
ENDCHAR
STARTCHAR 24E5
ENCODING 9445
SWIDTH 1000 0
DWIDTH 28 0
BBX 26 26 1 -3
BITMAP
007F0000
03C0E000
06001800
0C000C00
18000600
30000300
60000100
40000080
41806080
C1C0E080
80C0C040
80E1C040
80618040
80638040
80330040
80330040
401E0080
401E0080
400C0080
20000100
10000300
18000600
0C000C00
06001800
01C0E000
007F0000
ENDCHAR
STARTCHAR 24E6
ENCODING 9446
SWIDTH 1000 0
DWIDTH 28 0
BBX 26 26 1 -3
BITMAP
007F0000
03C0E000
06001800
0C000C00
18000600
30000300
60000100
40000080
4E0C1C80
C61E1880
861E1840
831E3040
83123040
83333040
81B36040
81A16040
41E1E080
40E1C080
40E1C080
20000100
10000300
18000600
0C000C00
06001800
01C0E000
007F0000
ENDCHAR
STARTCHAR 24E7
ENCODING 9447
SWIDTH 1000 0
DWIDTH 28 0
BBX 26 27 1 -3
BITMAP
003F0000
01C0E000
02001000
04000C00
08000600
10000200
20000100
60000080
41C0E080
40E1C080
80738040
80370040
801E0040
801C0040
801E0040
80330040
80618040
40C0C080
41C0E080
60000180
20000100
10000200
18000600
0C000C00
06001000
01C0E000
007F0000
ENDCHAR
STARTCHAR 24E8
ENCODING 9448
SWIDTH 1000 0
DWIDTH 28 0
BBX 26 26 1 -2
BITMAP
003F0000
01C0E000
02001000
04000C00
18000600
10000300
20000100
40C06080
40C06080
4060C080
8060C040
80318040
80318040
801B0040
801B0040
800E0040
C00E0080
400C0080
400C0080
20F80100
30F00300
18000600
0C000C00
06001800
01C0E000
007F0000
ENDCHAR
STARTCHAR 24E9
ENCODING 9449
SWIDTH 1000 0
DWIDTH 28 0
BBX 26 27 1 -3
BITMAP
003F0000
00C0E000
03001000
04000C00
08000600
10000200
20000100
60000080
40FFC080
40FFC080
80018040
80030040
80060040
800C0040
80180040
80700040
80E00040
40FFC080
40FFC080
60000180
20000100
10000200
18000600
0C000C00
06001000
01C0E000
007F0000
ENDCHAR
STARTCHAR 24EB
ENCODING 9451
SWIDTH 1000 0
DWIDTH 28 0
BBX 26 27 1 -3
BITMAP
003F0000
01FFE000
03FFF000
07FFFC00
0FFFFE00
1E7FCE00
3C7F8F00
787F0F80
7A7F4F80
7E7FCF80
FE7FCFC0
FE7FCFC0
FE7FCFC0
FE7FCFC0
FE7FCFC0
FE7FCFC0
FE7FCFC0
7E7FCF80
7E7FCF80
7E7FCF80
3E7FCF00
1E7FCE00
1FFFFE00
0FFFFC00
07FFF000
01FFE000
007F0000
ENDCHAR
STARTCHAR 24EC
ENCODING 9452
SWIDTH 1000 0
DWIDTH 28 0
BBX 26 27 1 -3
BITMAP
007F0000
01FFE000
03FFF000
0FFFFC00
1FFFFE00
1CFC1E00
30F9CF00
70F3E780
7CF3E780
7CE3E780
FCFFE7C0
FCFFC7C0
FCFF8FC0
FCFF1FC0
FCFE3FC0
FCFC7FC0
FCF8FFC0
7CF9FF80
7CF1FF80
7CF3FF80
3CE00700
1CE00600
1FFFFE00
0FFFFC00
07FFF000
01FFE000
007F0000
ENDCHAR
STARTCHAR 24ED
ENCODING 9453
SWIDTH 1000 0
DWIDTH 28 0
BBX 26 27 1 -3
BITMAP
007F0000
01FFE000
03FFF000
0FFFFC00
1FFFFE00
1CF83E00
38F01F00
70F38F80
7CE7CF80
7CFFCF80
FCFFCFC0
FCFF9FC0
FCFC1FC0
FCFC3FC0
FCFFCFC0
FCFFE7C0
FCFFE7C0
7CE7E780
7CE7E780
7CE3CF80
3CF00F00
1CF83E00
1FFFFE00
0FFFFC00
07FFF000
01FFE000
007F0000
ENDCHAR
STARTCHAR 24EE
ENCODING 9454
SWIDTH 1000 0
DWIDTH 28 0
BBX 26 27 1 -3
BITMAP
007F0000
01FFE000
03FFF000
0FFFFC00
1FFFFE00
1CFF8E00
38FF8F00
70FF0F80
74FE0F80
7CFE4F80
FCFC4FC0
FCF8CFC0
FCF1CFC0
FCF3CFC0
FCE3CFC0
FCC7CFC0
FCC003C0
7CC00380
7CFFCF80
7CFFCF80
3CFFCF00
1CFFCE00
1FFFFE00
0FFFFC00
07FFF000
01FFE000
007F0000
ENDCHAR
STARTCHAR 24EF
ENCODING 9455
SWIDTH 1000 0
DWIDTH 28 0
BBX 26 27 1 -3
BITMAP
007F0000
01FFE000
03FFF000
0FFFFC00
1FFFFE00
1CF00E00
38F00F00
70F3FF80
74F3FF80
7CF3FF80
FCF3FFC0
FCF03FC0
FCF00FC0
FCF3CFC0
FCFFE7C0
FCFFE7C0
FCFFE7C0
7CFFE780
7CE7C780
7CF3CF80
3CF01F00
1CFC3E00
1FFFFE00
0FFFFC00
07FFF000
01FFE000
007F0000
ENDCHAR
STARTCHAR 24F0
ENCODING 9456
SWIDTH 1000 0
DWIDTH 28 0
BBX 26 27 1 -3
BITMAP
007F0000
01FFE000
03FFF000
0FFFFC00
1FFFFE00
1CFC3E00
38F80F00
70F1CF80
74F3C780
7CF3FF80
FCE7FFC0
FCE63FC0
FCE40FC0
FCE3CFC0
FCE7E7C0
FCE7E7C0
FCE7E7C0
7CE7E780
7CF3E780
7CF1CF80
3CF81F00
1CFC3E00
1FFFFE00
0FFFFC00
07FFF000
01FFE000
007F0000
ENDCHAR
STARTCHAR 24F1
ENCODING 9457
SWIDTH 1000 0
DWIDTH 28 0
BBX 27 27 0 -3
BITMAP
003F8000
00FFF000
03FFF800
07FFFC00
0FFFFE00
1E380300
3C380380
383FF3C0
7A3FE7C0
7E3FE7C0
FE3FCFE0
FE3FCFE0
FE3FCFE0
FE3F9FE0
FE3F9FE0
FE3F9FE0
FE3F1FE0
7E3F3FC0
7E3F3FC0
7E3F3FC0
3E3E3F80
1E3E7F00
1FFFFE00
0FFFFC00
03FFF800
01FFF000
003F8000
ENDCHAR
STARTCHAR 24F2
ENCODING 9458
SWIDTH 1000 0
DWIDTH 28 0
BBX 26 27 1 -3
BITMAP
007F0000
01FFE000
03FFF000
0FFFFC00
1FFFFE00
1CFC3E00
38F00F00
70E38780
74E7C780
7CE7C780
FCE7C7C0
FCF38FC0
FCF81FC0
FCF01FC0
FCE3CFC0
FCC7E7C0
FCC7E7C0
7CC7E780
7CC7E780
7CE3CF80
3CE00F00
1CF83E00
1FFFFE00
0FFFFC00
07FFF000
01FFE000
007F0000
ENDCHAR
STARTCHAR 24F3
ENCODING 9459
SWIDTH 1000 0
DWIDTH 28 0
BBX 26 27 1 -3
BITMAP
007F0000
01FFE000
03FFF000
0FFFFC00
1FFFFE00
1CFC3E00
38F01F00
70F3CF80
74E7CF80
7CE7E780
FCE7E7C0
FCE7E7C0
FCE3E7C0
FCF1C7C0
FCF007C0
FCFC67C0
FCFFE7C0
7CFFCF80
7CE3CF80
7CF38F80
3CF01F00
1CFC3E00
1FFFFE00
0FFFFC00
07FFF000
01FFE000
007F0000
ENDCHAR
STARTCHAR 24F4
ENCODING 9460
SWIDTH 1000 0
DWIDTH 28 0
BBX 27 27 0 -3
BITMAP
003F8000
01FFF000
03FFF800
0FFFFC00
1E1F8600
1C0F0300
3CC73380
79E733C0
79E679C0
79E679C0
FFE679E0
FFCE79E0
FF8E79E0
FF9E79E0
FF3E79E0
FE7E79E0
FE7E79E0
7CFE79C0
7CFF79C0
79FF33C0
38073380
18078700
0FFFFE00
07FFFC00
03FFF800
01FFF000
003F8000
ENDCHAR
STARTCHAR 24F5
ENCODING 9461
SWIDTH 1000 0
DWIDTH 28 0
BBX 27 26 0 -3
BITMAP
003F8000
01C07000
021F9C00
0CE07600
19801B00
32060580
241E0280
4C3E0340
48260140
980601A0
900600A0
900600A0
900600A0
900600A0
900600A0
980601E0
C8060140
4C060340
64060280
32060580
39801900
18E07200
0E1FC400
03001800
01C06000
003F8000
ENDCHAR
STARTCHAR 24F6
ENCODING 9462
SWIDTH 1000 0
DWIDTH 28 0
BBX 27 26 1 -3
BITMAP
003F8000
01C07000
023F8C00
0CE0E600
19003300
321F0980
243FC480
4C70E240
48606240
98E06120
90006120
9000C120
90038120
900E0120
90180120
90300160
C8600240
487FE2C0
64FFE480
32000980
39001300
18C06600
0E3F8C00
07001800
01C06000
003F8000
ENDCHAR
STARTCHAR 24F7
ENCODING 9463
SWIDTH 1000 0
DWIDTH 28 0
BBX 26 27 1 -3
BITMAP
003F8000
01C0E000
02001000
0C3F0C00
19C0E600
13003200
241F0900
487F8480
58E1C680
50C0C280
B000C340
A0018140
A01F0140
A01F8140
A001C140
A0006140
B0006340
50C06280
58E0E680
687FC480
243F0900
13003300
19C0E600
0C3F8C00
03001800
01C0E000
003F8000
ENDCHAR
STARTCHAR 24F8
ENCODING 9464
SWIDTH 1000 0
DWIDTH 28 0
BBX 26 26 1 -3
BITMAP
003F8000
01C0E000
063F1800
0DC0EC00
1B003600
34070B00
28070580
580F0680
501B0280
B03B0340
A0730140
A0630140
A0C30140
A1830140
A3830140
B3FFE340
D3FFE280
58030680
48030480
24030900
33003200
19C0E400
0C3F8800
06001000
01C0E000
007F0000
ENDCHAR
STARTCHAR 24F9
ENCODING 9465
SWIDTH 1000 0
DWIDTH 28 0
BBX 27 27 1 -3
BITMAP
003F8000
01C06000
033F9800
0CE0E400
19803200
12000900
247FC480
4C7FC640
48600240
58600240
90600120
906F0120
907FC120
9070C120
90006120
90006120
D8006260
48606240
4C70C6C0
643FC480
321F0980
11803300
18E0E600
0C3F8C00
03001800
01C06000
003F8000
ENDCHAR
STARTCHAR 24FA
ENCODING 9466
SWIDTH 1000 0
DWIDTH 28 0
BBX 26 27 1 -3
BITMAP
003F8000
01C0E000
023F1800
0DC0CC00
1B003600
161F1B00
2C3F8D00
5871C680
5060C280
50C002C0
A0C00140
A0DE0140
A0FF8140
A0E18140
A0C0C140
A0C0C140
90C0C240
5040C280
58618680
683F8580
241E0900
13003200
19C0E400
0C3F0C00
02001000
01C0E000
007F8000
ENDCHAR
STARTCHAR 24FB
ENCODING 9467
SWIDTH 1000 0
DWIDTH 28 0
BBX 26 27 1 -3
BITMAP
003F0000
01C0E000
02001000
0C3F0800
19C0E400
13003200
24000900
48FFC500
58FFC680
5001C280
B0018340
A0030140
A0030140
A0070140
A0060140
A00E0140
B00C03C0
500C0280
581C0680
68180500
24380B00
13003200
19C0E400
0C3F8800
06003000
01C0E000
007F0000
ENDCHAR
STARTCHAR 24FC
ENCODING 9468
SWIDTH 1000 0
DWIDTH 28 0
BBX 26 27 1 -3
BITMAP
003F8000
01C0E000
023F1800
0DC0CC00
1B003600
16001A00
2C3E0D00
587F8680
50E0C280
50C0C280
A0C0C140
A0E1C140
A07F8140
A07F8140
A0E1C140
A1806140
91806240
51806280
59C0E680
68FFC580
243F0900
13003200
19C0E600
0C3F0C00
02001000
01C0E000
007F8000
ENDCHAR
STARTCHAR 24FD
ENCODING 9469
SWIDTH 1000 0
DWIDTH 28 0
BBX 26 27 1 -3
BITMAP
003F8000
01C0E000
02001000
0C3F0C00
19C0E600
13003200
241F0900
487F8480
5871C680
50C04280
B0C06340
A0C06140
A0C06140
A061E140
A07F6140
A01EE140
B000E340
50E0C280
5861C680
687F8580
241F0900
13003200
19C0E600
0C3F8C00
02001000
01C0E000
007F8000
ENDCHAR
STARTCHAR 24FE
ENCODING 9470
SWIDTH 1000 0
DWIDTH 28 0
BBX 27 27 0 -3
BITMAP
003FC000
00C07000
031F9C00
04E06600
09801B00
13000D80
2661E680
4DE3F340
49E33140
48661960
906618A0
906618A0
906618A0
906618A0
906618A0
906618A0
C8661920
48633140
6C63F340
6461E2C0
32000480
19801900
0CE07200
061F8400
03001800
01E07000
003F8000
ENDCHAR
STARTCHAR 2500
ENCODING 9472
SWIDTH 1000 0
DWIDTH 28 0
BBX 28 1 0 10
BITMAP
FFFFFFF0
ENDCHAR
STARTCHAR 2501
ENCODING 9473
SWIDTH 1000 0
DWIDTH 28 0
BBX 28 3 0 9
BITMAP
FFFFFFF0
FFFFFFF0
FFFFFFF0
ENDCHAR
STARTCHAR 2502
ENCODING 9474
SWIDTH 1000 0
DWIDTH 28 0
BBX 1 28 13 -3
BITMAP
80
80
80
80
80
80
80
80
80
80
80
80
80
80
80
80
80
80
80
80
80
80
80
80
80
80
80
80
ENDCHAR
STARTCHAR 2503
ENCODING 9475
SWIDTH 1000 0
DWIDTH 28 0
BBX 3 28 12 -3
BITMAP
E0
E0
E0
E0
E0
E0
E0
E0
E0
E0
E0
E0
E0
E0
E0
E0
E0
E0
E0
E0
E0
E0
E0
E0
E0
E0
E0
E0
ENDCHAR
STARTCHAR 250C
ENCODING 9484
SWIDTH 1000 0
DWIDTH 28 0
BBX 15 14 13 -3
BITMAP
FFFE
8000
8000
8000
8000
8000
8000
8000
8000
8000
8000
8000
8000
8000
ENDCHAR
STARTCHAR 250F
ENCODING 9487
SWIDTH 1000 0
DWIDTH 28 0
BBX 16 15 12 -3
BITMAP
FFFF
FFFF
FFFF
E000
E000
E000
E000
E000
E000
E000
E000
E000
E000
E000
E000
ENDCHAR
STARTCHAR 2510
ENCODING 9488
SWIDTH 1000 0
DWIDTH 28 0
BBX 15 14 0 -3
BITMAP
FFFE
0002
0002
0002
0002
0002
0002
0002
0002
0002
0002
0002
0002
0002
ENDCHAR
STARTCHAR 2513
ENCODING 9491
SWIDTH 1000 0
DWIDTH 28 0
BBX 16 15 0 -3
BITMAP
FFFF
FFFF
FFFF
0007
0007
0007
0007
0007
0007
0007
0007
0007
0007
0007
0007
ENDCHAR
STARTCHAR 2514
ENCODING 9492
SWIDTH 1000 0
DWIDTH 28 0
BBX 15 15 13 10
BITMAP
8000
8000
8000
8000
8000
8000
8000
8000
8000
8000
8000
8000
8000
8000
FFFE
ENDCHAR
STARTCHAR 2517
ENCODING 9495
SWIDTH 1000 0
DWIDTH 28 0
BBX 16 16 12 9
BITMAP
E000
E000
E000
E000
E000
E000
E000
E000
E000
E000
E000
E000
E000
FFFF
FFFF
FFFF
ENDCHAR
STARTCHAR 2518
ENCODING 9496
SWIDTH 1000 0
DWIDTH 28 0
BBX 15 15 0 10
BITMAP
0002
0002
0002
0002
0002
0002
0002
0002
0002
0002
0002
0002
0002
0002
FFFE
ENDCHAR
STARTCHAR 251B
ENCODING 9499
SWIDTH 1000 0
DWIDTH 28 0
BBX 16 16 0 9
BITMAP
0007
0007
0007
0007
0007
0007
0007
0007
0007
0007
0007
0007
0007
FFFF
FFFF
FFFF
ENDCHAR
STARTCHAR 251C
ENCODING 9500
SWIDTH 1000 0
DWIDTH 28 0
BBX 15 28 13 -3
BITMAP
8000
8000
8000
8000
8000
8000
8000
8000
8000
8000
8000
8000
8000
8000
FFFE
8000
8000
8000
8000
8000
8000
8000
8000
8000
8000
8000
8000
8000
ENDCHAR
STARTCHAR 251D
ENCODING 9501
SWIDTH 1000 0
DWIDTH 28 0
BBX 15 28 13 -3
BITMAP
8000
8000
8000
8000
8000
8000
8000
8000
8000
8000
8000
8000
8000
FFFE
FFFE
FFFE
8000
8000
8000
8000
8000
8000
8000
8000
8000
8000
8000
8000
ENDCHAR
STARTCHAR 2520
ENCODING 9504
SWIDTH 1000 0
DWIDTH 28 0
BBX 16 28 12 -3
BITMAP
E000
E000
E000
E000
E000
E000
E000
E000
E000
E000
E000
E000
E000
E000
FFFF
E000
E000
E000
E000
E000
E000
E000
E000
E000
E000
E000
E000
E000
ENDCHAR
STARTCHAR 2523
ENCODING 9507
SWIDTH 1000 0
DWIDTH 28 0
BBX 16 28 12 -3
BITMAP
E000
E000
E000
E000
E000
E000
E000
E000
E000
E000
E000
E000
E000
FFFF
FFFF
FFFF
E000
E000
E000
E000
E000
E000
E000
E000
E000
E000
E000
E000
ENDCHAR
STARTCHAR 2524
ENCODING 9508
SWIDTH 1000 0
DWIDTH 28 0
BBX 15 28 0 -3
BITMAP
0002
0002
0002
0002
0002
0002
0002
0002
0002
0002
0002
0002
0002
0002
FFFE
0002
0002
0002
0002
0002
0002
0002
0002
0002
0002
0002
0002
0002
ENDCHAR
STARTCHAR 2525
ENCODING 9509
SWIDTH 1000 0
DWIDTH 28 0
BBX 15 28 0 -3
BITMAP
0002
0002
0002
0002
0002
0002
0002
0002
0002
0002
0002
0002
0002
FFFE
FFFE
FFFE
0002
0002
0002
0002
0002
0002
0002
0002
0002
0002
0002
0002
ENDCHAR
STARTCHAR 2528
ENCODING 9512
SWIDTH 1000 0
DWIDTH 28 0
BBX 16 28 0 -3
BITMAP
0007
0007
0007
0007
0007
0007
0007
0007
0007
0007
0007
0007
0007
0007
FFFF
0007
0007
0007
0007
0007
0007
0007
0007
0007
0007
0007
0007
0007
ENDCHAR
STARTCHAR 252B
ENCODING 9515
SWIDTH 1000 0
DWIDTH 28 0
BBX 16 28 0 -3
BITMAP
0007
0007
0007
0007
0007
0007
0007
0007
0007
0007
0007
0007
0007
FFFF
FFFF
FFFF
0007
0007
0007
0007
0007
0007
0007
0007
0007
0007
0007
0007
ENDCHAR
STARTCHAR 252C
ENCODING 9516
SWIDTH 1000 0
DWIDTH 28 0
BBX 28 14 0 -3
BITMAP
FFFFFFF0
00040000
00040000
00040000
00040000
00040000
00040000
00040000
00040000
00040000
00040000
00040000
00040000
00040000
ENDCHAR
STARTCHAR 252F
ENCODING 9519
SWIDTH 1000 0
DWIDTH 28 0
BBX 28 15 0 -3
BITMAP
FFFFFFF0
FFFFFFF0
FFFFFFF0
00040000
00040000
00040000
00040000
00040000
00040000
00040000
00040000
00040000
00040000
00040000
00040000
ENDCHAR
STARTCHAR 2530
ENCODING 9520
SWIDTH 1000 0
DWIDTH 28 0
BBX 28 14 0 -3
BITMAP
FFFFFFF0
000E0000
000E0000
000E0000
000E0000
000E0000
000E0000
000E0000
000E0000
000E0000
000E0000
000E0000
000E0000
000E0000
ENDCHAR
STARTCHAR 2533
ENCODING 9523
SWIDTH 1000 0
DWIDTH 28 0
BBX 28 15 0 -3
BITMAP
FFFFFFF0
FFFFFFF0
FFFFFFF0
000E0000
000E0000
000E0000
000E0000
000E0000
000E0000
000E0000
000E0000
000E0000
000E0000
000E0000
000E0000
ENDCHAR
STARTCHAR 2534
ENCODING 9524
SWIDTH 1000 0
DWIDTH 28 0
BBX 28 15 0 10
BITMAP
00040000
00040000
00040000
00040000
00040000
00040000
00040000
00040000
00040000
00040000
00040000
00040000
00040000
00040000
FFFFFFF0
ENDCHAR
STARTCHAR 2537
ENCODING 9527
SWIDTH 1000 0
DWIDTH 28 0
BBX 28 16 0 9
BITMAP
00040000
00040000
00040000
00040000
00040000
00040000
00040000
00040000
00040000
00040000
00040000
00040000
00040000
FFFFFFF0
FFFFFFF0
FFFFFFF0
ENDCHAR
STARTCHAR 2538
ENCODING 9528
SWIDTH 1000 0
DWIDTH 28 0
BBX 28 15 0 10
BITMAP
000E0000
000E0000
000E0000
000E0000
000E0000
000E0000
000E0000
000E0000
000E0000
000E0000
000E0000
000E0000
000E0000
000E0000
FFFFFFF0
ENDCHAR
STARTCHAR 253B
ENCODING 9531
SWIDTH 1000 0
DWIDTH 28 0
BBX 28 16 0 9
BITMAP
000E0000
000E0000
000E0000
000E0000
000E0000
000E0000
000E0000
000E0000
000E0000
000E0000
000E0000
000E0000
000E0000
FFFFFFF0
FFFFFFF0
FFFFFFF0
ENDCHAR
STARTCHAR 253C
ENCODING 9532
SWIDTH 1000 0
DWIDTH 28 0
BBX 28 28 0 -3
BITMAP
00040000
00040000
00040000
00040000
00040000
00040000
00040000
00040000
00040000
00040000
00040000
00040000
00040000
00040000
FFFFFFF0
00040000
00040000
00040000
00040000
00040000
00040000
00040000
00040000
00040000
00040000
00040000
00040000
00040000
ENDCHAR
STARTCHAR 253F
ENCODING 9535
SWIDTH 1000 0
DWIDTH 28 0
BBX 28 28 0 -3
BITMAP
00040000
00040000
00040000
00040000
00040000
00040000
00040000
00040000
00040000
00040000
00040000
00040000
00040000
FFFFFFF0
FFFFFFF0
FFFFFFF0
00040000
00040000
00040000
00040000
00040000
00040000
00040000
00040000
00040000
00040000
00040000
00040000
ENDCHAR
STARTCHAR 2542
ENCODING 9538
SWIDTH 1000 0
DWIDTH 28 0
BBX 28 28 0 -3
BITMAP
000E0000
000E0000
000E0000
000E0000
000E0000
000E0000
000E0000
000E0000
000E0000
000E0000
000E0000
000E0000
000E0000
000E0000
FFFFFFF0
000E0000
000E0000
000E0000
000E0000
000E0000
000E0000
000E0000
000E0000
000E0000
000E0000
000E0000
000E0000
000E0000
ENDCHAR
STARTCHAR 254B
ENCODING 9547
SWIDTH 1000 0
DWIDTH 28 0
BBX 28 28 0 -3
BITMAP
000E0000
000E0000
000E0000
000E0000
000E0000
000E0000
000E0000
000E0000
000E0000
000E0000
000E0000
000E0000
000E0000
FFFFFFF0
FFFFFFF0
FFFFFFF0
000E0000
000E0000
000E0000
000E0000
000E0000
000E0000
000E0000
000E0000
000E0000
000E0000
000E0000
000E0000
ENDCHAR
STARTCHAR 25A0
ENCODING 9632
SWIDTH 1000 0
DWIDTH 28 0
BBX 20 21 4 0
BITMAP
FFFFF0
FFFFF0
FFFFF0
FFFFF0
FFFFF0
FFFFF0
FFFFF0
FFFFF0
FFFFF0
FFFFF0
FFFFF0
FFFFF0
FFFFF0
FFFFF0
FFFFF0
FFFFF0
FFFFF0
FFFFF0
FFFFF0
FFFFF0
FFFFF0
ENDCHAR
STARTCHAR 25A1
ENCODING 9633
SWIDTH 1000 0
DWIDTH 28 0
BBX 20 21 4 0
BITMAP
FFFFF0
FFFFF0
C00030
C00030
C00030
C00030
C00030
C00030
C00030
C00030
C00030
C00030
C00030
C00030
C00030
C00030
C00030
C00030
C00030
FFFFF0
FFFFF0
ENDCHAR
STARTCHAR 25B1
ENCODING 9649
SWIDTH 500 0
DWIDTH 14 0
BBX 12 6 1 8
BITMAP
1FF0
3020
2060
6040
40C0
FF80
ENDCHAR
STARTCHAR 25B2
ENCODING 9650
SWIDTH 1000 0
DWIDTH 28 0
BBX 22 21 3 1
BITMAP
003000
003000
007800
007800
00FC00
00FC00
01FE00
01FE00
03FF00
03FF00
07FF80
07FF80
0FFFC0
0FFFC0
1FFFE0
1FFFE0
3FFFF0
3FFFF0
7FFFF8
7FFFF8
FFFFFC
ENDCHAR
STARTCHAR 25B3
ENCODING 9651
SWIDTH 1000 0
DWIDTH 28 0
BBX 22 21 3 1
BITMAP
003000
003000
007800
007800
00CC00
00CC00
018600
018600
030300
030300
060180
060180
0C00C0
0C00C0
180060
180060
300030
300030
600018
7FFFF8
FFFFFC
ENDCHAR
STARTCHAR 25B6
ENCODING 9654
SWIDTH 500 0
DWIDTH 14 0
BBX 11 15 2 3
BITMAP
8000
E000
F000
FC00
FE00
FF80
FFC0
FFE0
FFC0
FF00
FE00
F800
F000
E000
8000
ENDCHAR
STARTCHAR 25B7
ENCODING 9655
SWIDTH 500 0
DWIDTH 14 0
BBX 11 15 2 3
BITMAP
8000
E000
B000
9C00
8600
8380
80C0
8060
81C0
8300
8E00
9800
F000
C000
8000
ENDCHAR
STARTCHAR 25BC
ENCODING 9660
SWIDTH 1000 0
DWIDTH 28 0
BBX 22 21 3 -1
BITMAP
FFFFFC
7FFFF8
7FFFF8
3FFFF0
3FFFF0
1FFFE0
1FFFE0
0FFFC0
0FFFC0
07FF80
07FF80
03FF00
03FF00
01FE00
01FE00
00FC00
00FC00
007800
007800
003000
003000
ENDCHAR
STARTCHAR 25BD
ENCODING 9661
SWIDTH 1000 0
DWIDTH 28 0
BBX 22 21 3 -1
BITMAP
FFFFFC
7FFFF8
600018
300030
300030
180060
180060
0C00C0
0C00C0
060180
060180
030300
030300
018600
018600
00CC00
00CC00
007800
007800
003000
003000
ENDCHAR
STARTCHAR 25C0
ENCODING 9664
SWIDTH 500 0
DWIDTH 14 0
BBX 11 15 1 3
BITMAP
0060
00E0
01E0
07E0
0FE0
3FE0
7FE0
FFE0
7FE0
1FE0
0FE0
03E0
01E0
00E0
0020
ENDCHAR
STARTCHAR 25C1
ENCODING 9665
SWIDTH 500 0
DWIDTH 14 0
BBX 11 15 1 3
BITMAP
0020
00E0
01A0
0720
0C20
3820
6020
C020
7020
1820
0E20
0320
01E0
0060
0020
ENDCHAR
STARTCHAR 25C6
ENCODING 9670
SWIDTH 1000 0
DWIDTH 28 0
BBX 24 24 2 -1
BITMAP
001800
003C00
007E00
00FF00
01FF80
03FFC0
07FFE0
0FFFF0
1FFFF8
3FFFFC
7FFFFE
FFFFFF
FFFFFF
7FFFFE
3FFFFC
1FFFF8
0FFFF0
07FFE0
03FFC0
01FF80
00FF00
007E00
003C00
001800
ENDCHAR
STARTCHAR 25C7
ENCODING 9671
SWIDTH 1000 0
DWIDTH 28 0
BBX 24 24 2 -1
BITMAP
001800
003C00
007E00
00E700
01C380
0381C0
0700E0
0E0070
1C0038
38001C
70000E
E00007
C00003
600006
30000C
180018
0C0030
060060
0300C0
018180
00C300
006600
003C00
001800
ENDCHAR
STARTCHAR 25C9
ENCODING 9673
SWIDTH 500 0
DWIDTH 14 0
BBX 12 13 1 4
BITMAP
0F00
30C0
6060
4720
8F90
9FD0
9FD0
9FD0
8F90
4720
4060
30C0
0F00
ENDCHAR
STARTCHAR 25CB
ENCODING 9675
SWIDTH 1000 0
DWIDTH 28 0
BBX 24 23 2 -1
BITMAP
007E00
03FFC0
0781E0
1E0038
38001C
30000C
700006
600006
E00003
C00003
C00003
C00003
C00003
C00003
E00007
600006
70000E
30001C
380038
1E0078
0781F0
03FFC0
007F00
ENDCHAR
STARTCHAR 25CE
ENCODING 9678
SWIDTH 1000 0
DWIDTH 28 0
BBX 24 23 2 -1
BITMAP
007E00
03FFC0
0781E0
1E0078
387C18
30FF0C
71C38E
6300C6
E700E7
C60063
C60063
C60063
C60063
C700E3
E300C7
61C386
70FF0E
307E0C
180018
1E0078
0781E0
03FFC0
007E00
ENDCHAR
STARTCHAR 25CF
ENCODING 9679
SWIDTH 1000 0
DWIDTH 28 0
BBX 23 23 2 -1
BITMAP
00FE00
03FF80
0FFFE0
1FFFF0
3FFFF8
3FFFF8
7FFFFC
7FFFFC
FFFFFE
FFFFFE
FFFFFE
FFFFFE
FFFFFE
FFFFFE
FFFFFE
7FFFFC
7FFFFC
3FFFF8
3FFFF8
1FFFF0
0FFFE0
03FF80
00FE00
ENDCHAR
STARTCHAR 25D0
ENCODING 9680
SWIDTH 500 0
DWIDTH 14 0
BBX 12 13 1 4
BITMAP
0F00
3DC0
7C60
7C20
FC10
FC10
FC10
FC10
FC10
7C20
7C60
3FC0
0F00
ENDCHAR
STARTCHAR 25D1
ENCODING 9681
SWIDTH 500 0
DWIDTH 14 0
BBX 12 13 1 4
BITMAP
0F00
3BC0
63E0
43E0
83F0
83F0
83F0
83F0
83F0
43E0
63E0
3FC0
0F00
ENDCHAR
STARTCHAR 25D2
ENCODING 9682
SWIDTH 500 0
DWIDTH 14 0
BBX 12 12 1 5
BITMAP
0F00
30C0
4060
4020
8010
8010
FFF0
FFF0
7FE0
7FE0
3FC0
0F00
ENDCHAR
STARTCHAR 25D3
ENCODING 9683
SWIDTH 500 0
DWIDTH 14 0
BBX 12 12 1 5
BITMAP
0F00
3FC0
7FE0
7FE0
FFF0
FFF0
8010
8010
4020
4020
30C0
0F00
ENDCHAR
STARTCHAR 25E6
ENCODING 9702
SWIDTH 500 0
DWIDTH 14 0
BBX 7 8 4 7
BITMAP
30
4C
84
82
82
82
44
38
ENDCHAR
STARTCHAR 25EF
ENCODING 9711
SWIDTH 1000 0
DWIDTH 28 0
BBX 26 27 1 -3
BITMAP
007F0000
01C0E000
06001000
0C000C00
18000600
30000200
20000100
60000080
40000080
40000080
80000040
80000040
80000040
80000040
80000040
80000040
80000040
40000080
40000080
60000180
20000100
10000200
18000600
0C000C00
02001000
01C0E000
003F0000
ENDCHAR
STARTCHAR 2600
ENCODING 9728
SWIDTH 1000 0
DWIDTH 28 0
BBX 26 26 1 -2
BITMAP
00080000
00080000
00080000
00080000
08080400
04000800
023E1000
027FA000
00FFC000
01FFE000
03FFF000
03FFF000
03FFF000
FBFFF7C0
03FFF000
03FFF000
01FFE000
00FFC000
007F8000
023E3000
04000800
08080400
00080000
00080000
00080000
00080000
ENDCHAR
STARTCHAR 2601
ENCODING 9729
SWIDTH 1000 0
DWIDTH 28 0
BBX 24 19 2 -1
BITMAP
00F800
03FE00
03FF00
07FF00
07FF80
07FF9C
07FFFE
07FFFF
1FFFFF
7FFFFF
7FFFFE
FFFFFC
FFFFFE
FFFFFF
FFEFFF
7FCFFF
7F87FF
1E03FE
0000F8
ENDCHAR
STARTCHAR 2602
ENCODING 9730
SWIDTH 1000 0
DWIDTH 28 0
BBX 25 25 2 -2
BITMAP
00080000
00080000
00FF8000
03FFE000
0FFFF800
1FFFFC00
3FFFFE00
7FFFFE00
7FFFFF00
4F1C7900
86083080
82082080
02082080
00080000
00080000
00080000
00080000
00080000
00080000
00080000
00080000
00080000
00880000
00880000
00700000
ENDCHAR
STARTCHAR 2603
ENCODING 9731
SWIDTH 1000 0
DWIDTH 28 0
BBX 26 26 1 -2
BITMAP
C0180000
4018C1C0
830120C0
05021000
02040800
00080400
70380400
30CC0B80
03031280
0200F100
04000800
04330800
64330800
62001000
011E21C0
02001140
CC000880
50000400
A00C0200
200C0200
20000200
20000200
200C0200
100C0400
0C000C00
03FFF000
ENDCHAR
STARTCHAR 2605
ENCODING 9733
SWIDTH 1000 0
DWIDTH 28 0
BBX 24 24 2 -1
BITMAP
001000
001800
001800
001800
003C00
003C00
003C00
007E00
007E00
FFFFFF
3FFFFC
1FFFF8
0FFFF0
03FFC0
01FF80
01FF80
03FFC0
03FFC0
03FFC0
07C3E0
0781E0
0700E0
0C0030
080010
ENDCHAR
STARTCHAR 2606
ENCODING 9734
SWIDTH 1000 0
DWIDTH 28 0
BBX 24 24 2 -1
BITMAP
001000
001800
001800
001800
003C00
003C00
002400
006600
004200
FFC3FF
38001C
1C0038
060060
0381C0
010080
010080
0318C0
023C40
026640
07C3E0
0700E0
060060
0C0030
100010
ENDCHAR
STARTCHAR 260E
ENCODING 9742
SWIDTH 1000 0
DWIDTH 28 0
BBX 26 21 1 0
BITMAP
0FFFFC00
3FFFFF00
7FFFFF80
7EC0DF80
78C0C780
F8C0C7C0
F8FFC7C0
01FFE000
03E1F000
0780F000
07807800
07003800
0F003800
0F003C00
1F003E00
3F807F00
3F807F00
7FE1FF80
7FFFFF80
7FFFFF80
7FFFFF80
ENDCHAR
STARTCHAR 2616
ENCODING 9750
SWIDTH 1000 0
DWIDTH 28 0
BBX 22 22 3 1
BITMAP
007800
01FE00
038700
0F03C0
3C00F0
300030
300030
600010
600018
600018
600018
600018
600018
600018
600018
600008
C00008
C0000C
C0000C
C0000C
FFFFFC
FFFFFC
ENDCHAR
STARTCHAR 2617
ENCODING 9751
SWIDTH 1000 0
DWIDTH 28 0
BBX 22 22 3 1
BITMAP
007800
00FC00
03FF00
0FFFC0
1FFFE0
3FFFF0
3FFFF0
3FFFF0
7FFFF8
7FFFF8
7FFFF8
7FFFF8
7FFFF8
7FFFF8
7FFFF8
7FFFF8
FFFFF8
FFFFFC
FFFFFC
FFFFFC
FFFFFC
FFFFFC
ENDCHAR
STARTCHAR 261E
ENCODING 9758
SWIDTH 1000 0
DWIDTH 28 0
BBX 24 11 2 5
BITMAP
78FFFE
8F0201
8C0302
883FFC
8FC110
900E90
900A60
981520
9618C0
8DCC80
783F00
ENDCHAR
STARTCHAR 2640
ENCODING 9792
SWIDTH 1000 0
DWIDTH 28 0
BBX 16 26 6 -2
BITMAP
03C0
0FF0
1C38
1818
300C
300C
300C
300C
300C
1818
1C38
0FF0
07E0
0180
0180
0180
FFFF
FFFF
0180
0180
0180
0180
0180
0180
0180
0180
ENDCHAR
STARTCHAR 2642
ENCODING 9794
SWIDTH 1000 0
DWIDTH 28 0
BBX 23 22 2 0
BITMAP
0007FE
0007FE
00001E
00003E
000076
0000E6
0001C6
000386
000706
000E06
0F9C00
1FF800
307000
603000
C01800
C01800
C01800
C01800
603000
707000
3FE000
0F8000
ENDCHAR
STARTCHAR 2660
ENCODING 9824
SWIDTH 500 0
DWIDTH 14 0
BBX 12 16 1 4
BITMAP
0600
0600
0F00
1F80
3FC0
3FC0
7FE0
7FE0
FFF0
FFF0
FFF0
FFF0
76E0
0F00
0F00
0F00
ENDCHAR
STARTCHAR 2661
ENCODING 9825
SWIDTH 500 0
DWIDTH 14 0
BBX 12 15 1 2
BITMAP
79E0
CF20
8610
8610
8010
8010
8010
4020
4020
6060
2040
1080
1980
0F00
0600
ENDCHAR
STARTCHAR 2662
ENCODING 9826
SWIDTH 500 0
DWIDTH 14 0
BBX 12 17 1 2
BITMAP
0600
0600
0900
1980
1080
3040
6060
4020
C030
4020
2040
30C0
1080
0980
0F00
0600
0600
ENDCHAR
STARTCHAR 2663
ENCODING 9827
SWIDTH 500 0
DWIDTH 14 0
BBX 14 16 0 3
BITMAP
0780
0F80
0FC0
0FC0
0FC0
0780
3FF0
7FF8
FFFC
FFFC
FFFC
FFFC
7FF8
0780
0780
0780
ENDCHAR
STARTCHAR 2664
ENCODING 9828
SWIDTH 500 0
DWIDTH 14 0
BBX 12 15 1 4
BITMAP
0600
0F00
1980
1080
2040
4020
4020
8010
8010
8010
8910
79E0
0900
0900
1F00
ENDCHAR
STARTCHAR 2665
ENCODING 9829
SWIDTH 500 0
DWIDTH 14 0
BBX 12 15 1 2
BITMAP
79E0
FFF0
FFF0
FFF0
FFF0
FFF0
FFF0
7FE0
7FE0
3FC0
3FC0
1F80
0F00
0F00
0600
ENDCHAR
STARTCHAR 2666
ENCODING 9830
SWIDTH 500 0
DWIDTH 14 0
BBX 12 17 1 2
BITMAP
0600
0600
0F00
1F80
1F80
3FC0
7FE0
7FE0
FFF0
7FE0
3FC0
3FC0
1F80
0F80
0F00
0600
0600
ENDCHAR
STARTCHAR 2667
ENCODING 9831
SWIDTH 500 0
DWIDTH 14 0
BBX 14 15 0 3
BITMAP
0780
0CC0
0840
0840
0840
74B0
4CC8
8004
8004
8004
C48C
7CF8
0480
0480
0780
ENDCHAR
STARTCHAR 2668
ENCODING 9832
SWIDTH 1000 0
DWIDTH 28 0
BBX 24 22 2 1
BITMAP
001000
003000
066080
0C6180
0C6180
0C6180
0C7180
0C31C0
0638C0
0618C0
071C60
030C60
030C60
630C66
C30C63
C60843
C21843
E03007
70000E
3E007C
1FFFF0
01FF80
ENDCHAR
STARTCHAR 2669
ENCODING 9833
SWIDTH 500 0
DWIDTH 14 0
BBX 5 16 3 2
BITMAP
08
08
08
08
08
08
08
08
08
08
08
08
78
F8
F8
70
ENDCHAR
STARTCHAR 266A
ENCODING 9834
SWIDTH 1000 0
DWIDTH 28 0
BBX 18 24 6 -2
BITMAP
018000
018000
01C000
01F000
01B800
019C00
018F00
018380
018180
0180C0
0180C0
0180C0
0180C0
018080
018180
018100
018200
018000
3D8000
FF8000
FF8000
FF0000
FE0000
7C0000
ENDCHAR
STARTCHAR 266B
ENCODING 9835
SWIDTH 500 0
DWIDTH 14 0
BBX 12 17 1 2
BITMAP
0010
01F0
1FF0
1F90
1810
1010
1010
1010
1010
1010
1010
1010
11F0
F1F0
F1E0
F000
E000
ENDCHAR
STARTCHAR 266C
ENCODING 9836
SWIDTH 500 0
DWIDTH 14 0
BBX 12 17 1 2
BITMAP
0010
01F0
1FF0
1E10
10F0
1FF0
1F10
1010
1010
1010
1010
1010
10F0
71F0
F1E0
F000
E000
ENDCHAR
STARTCHAR 266D
ENCODING 9837
SWIDTH 1000 0
DWIDTH 28 0
BBX 11 23 10 -2
BITMAP
C000
C000
C000
C000
C000
C000
C000
C000
C780
CFC0
F9E0
E0E0
C0E0
C0E0
C0E0
C1C0
C1C0
C380
C700
CE00
DC00
F800
E000
ENDCHAR
STARTCHAR 266E
ENCODING 9838
SWIDTH 500 0
DWIDTH 14 0
BBX 6 15 4 3
BITMAP
80
80
80
9C
FC
C4
84
84
84
BC
FC
C4
04
04
04
ENDCHAR
STARTCHAR 266F
ENCODING 9839
SWIDTH 1000 0
DWIDTH 28 0
BBX 18 24 5 -1
BITMAP
000C00
0C0C00
0C0C00
0C0C00
0C0C00
0C0C00
0C0FC0
0FFFC0
FFFC00
FC0C00
0C0C00
0C0C00
0C0C00
0C0C00
0C0C00
0C0FC0
0FFFC0
FFFC00
FC0C00
0C0C00
0C0C00
0C0C00
0C0C00
0C0C00
ENDCHAR
STARTCHAR 2713
ENCODING 10003
SWIDTH 1000 0
DWIDTH 28 0
BBX 18 18 6 3
BITMAP
000040
000040
000080
000100
000200
000600
000C00
000800
001000
002000
406000
E0C000
E18000
630000
760000
3C0000
380000
100000
ENDCHAR
STARTCHAR 2756
ENCODING 10070
SWIDTH 1000 0
DWIDTH 28 0
BBX 26 25 1 -2
BITMAP
000C0000
001E0000
003F0000
007F8000
00FFC000
01FFE000
00FFC000
067F9800
0F3F3C00
1F9E7E00
3FCCFF00
7FE1FF80
FFF3FFC0
7FE1FF80
3FCCFF00
1F9E7E00
0F3F3C00
067F9800
00FFC000
01FFE000
00FFC000
007F8000
003F0000
001E0000
000C0000
ENDCHAR
STARTCHAR 2776
ENCODING 10102
SWIDTH 1000 0
DWIDTH 28 0
BBX 27 26 1 -2
BITMAP
003F8000
01FFF000
07FFF800
0FFFFE00
1FF1FF00
3FC1FF00
3F81FF80
7FB1FFC0
7FF1FFC0
FFF1FFC0
FFF1FFE0
FFF1FFE0
FFF1FFE0
FFF1FFE0
FFF1FFE0
FFF1FFE0
7FF1FFC0
7FF1FFC0
7FF1FFC0
3FF1FF80
1FF1FF00
1FF1FF00
0FFFFE00
03FFF800
01FFF000
003F8000
ENDCHAR
STARTCHAR 2777
ENCODING 10103
SWIDTH 1000 0
DWIDTH 28 0
BBX 27 27 0 -3
BITMAP
003F8000
00FFF000
03FFF800
07FFFC00
0FE07E00
1FC03F00
3F8F1F80
7F1F8FC0
7F3F8FC0
7F3F8FC0
FFFF8FE0
FFFF1FE0
FFFE1FE0
FFFC3FE0
FFF0FFE0
FFE1FFE0
FFC7FFE0
7F8FFFC0
7F9FFFC0
7F1FFFC0
3F000F80
1F000F00
1FFFFE00
0FFFFC00
03FFF800
01FFF000
003F8000
ENDCHAR
STARTCHAR 2778
ENCODING 10104
SWIDTH 1000 0
DWIDTH 28 0
BBX 27 26 1 -2
BITMAP
003F8000
00FFF000
03FFF800
07FFFE00
0FE0FF00
1F803F00
3F0F3F80
7F1F9FC0
7F3F9FC0
FFFF9FC0
FFFF9FE0
FFFF3FE0
FFE07FE0
FFE03FE0
FFFF1FE0
FFFF8FE0
FFFFCFC0
7E3FCFC0
7E3FCFC0
3F1F1F80
3F803F00
1FE07F00
0FFFFE00
03FFF800
01FFF000
003F8000
ENDCHAR
STARTCHAR 2779
ENCODING 10105
SWIDTH 1000 0
DWIDTH 28 0
BBX 27 26 1 -2
BITMAP
003F8000
01FFF000
07FFF800
0FFFFE00
1FFCFF00
3FF8FF00
3FF0FF80
7FF0FFC0
7FE4FFC0
FFC4FFC0
FFCCFFE0
FF9CFFE0
FF1CFFE0
FF3CFFE0
FE7CFFE0
FC7CFFE0
7C000FC0
7C000FC0
7FFCFFC0
3FFCFF80
1FFCFF00
1FFCFF00
0FFFFE00
03FFF800
01FFF000
003F8000
ENDCHAR
STARTCHAR 277A
ENCODING 10106
SWIDTH 1000 0
DWIDTH 28 0
BBX 27 26 0 -2
BITMAP
003F8000
00FFF000
01FFF800
07FFFE00
0FFFFF00
1F801F00
3F801F80
3F9FFFC0
7F9FFFC0
7F9FFFC0
FF907FE0
FF803FE0
FF8F1FE0
FF9F8FE0
FFFFCFE0
FFFFCFE0
FFFFCFC0
7FFFCFC0
7F1F9FC0
3F8F1F80
3FC03F00
1FE0FF00
0FFFFE00
03FFF800
01FFF000
003F8000
ENDCHAR
STARTCHAR 277B
ENCODING 10107
SWIDTH 1000 0
DWIDTH 28 0
BBX 26 26 1 -3
BITMAP
007F0000
03FFE000
07FFF800
0FFFFC00
1FE0FE00
3FC07F00
7F8E3F00
7F1F1F80
7F3FFF80
FE3FFF80
FE60FFC0
FE407FC0
FE1E3FC0
FE3F1FC0
FE7F9FC0
FE7F9FC0
7E7F9F80
7F7F9F80
7F3F3F80
3F1E3F00
1F807F00
1FE1FE00
0FFFFC00
07FFF800
01FFE000
007F0000
ENDCHAR
STARTCHAR 277C
ENCODING 10108
SWIDTH 1000 0
DWIDTH 28 0
BBX 27 27 0 -3
BITMAP
003F8000
01FFF000
03FFF800
0FFFFC00
1FFFFE00
1F000F00
3F000F80
7FFF8FC0
7FFF9FC0
7FFF1FC0
FFFF3FE0
FFFE3FE0
FFFE7FE0
FFFC7FE0
FFFCFFE0
FFFCFFE0
FFF8FFE0
7FF9FFC0
7FF1FFC0
7FF1FFC0
3FF3FF80
1FE3FF00
0FE3FE00
07FFFC00
03FFF800
01FFF000
003F8000
ENDCHAR
STARTCHAR 277D
ENCODING 10109
SWIDTH 1000 0
DWIDTH 28 0
BBX 26 27 1 -3
BITMAP
007F0000
01FFE000
07FFF000
0FFFFC00
1FC0FE00
3F807E00
3F1E3F00
7E7F9F80
7E7F9F80
7E7F9F80
FE7F9FC0
FF1E3FC0
FF807FC0
FF807FC0
FE1E1FC0
FE3F1FC0
FC7F8FC0
7C7F8F80
7C7F8F80
7C3F0F80
3E1E1F00
1F003E00
1FC0FE00
0FFFFC00
03FFF000
01FFE000
003F0000
ENDCHAR
STARTCHAR 277E
ENCODING 10110
SWIDTH 1000 0
DWIDTH 28 0
BBX 26 26 1 -3
BITMAP
007F0000
03FFE000
07FFF800
0FFFFC00
1FC1FE00
3F807F00
7F0E3F00
7E1F3F80
7E3FBF80
FE3F9F80
FE3F9FC0
FE1F1FC0
FF0E1FC0
FF801FC0
FFC19FC0
FFFF9FC0
7FFF9F80
7F3F3F80
7F3F3F80
3F1E7F00
1F807F00
1FC1FE00
0FFFFC00
07FFF800
01FFE000
007F0000
ENDCHAR
STARTCHAR 277F
ENCODING 10111
SWIDTH 1000 0
DWIDTH 28 0
BBX 26 27 1 -3
BITMAP
007F0000
01FFE000
03FFF000
0FFFFC00
1FFFFE00
1CFC1E00
38F80F00
70F18780
74F3C780
7CE7E380
FCE7E3C0
FCE7E3C0
FCE7E3C0
FCE7E3C0
FCE7E3C0
FCE7E3C0
FCE7E3C0
7CE7E380
7CF3C780
7CF18780
3CF80F00
1CFC1E00
1FFFFE00
0FFFFC00
07FFF000
01FFE000
007F0000
ENDCHAR
STARTCHAR 2934
ENCODING 10548
SWIDTH 500 0
DWIDTH 14 0
BBX 11 21 1 2
BITMAP
0300
0780
0FC0
1B60
1320
1320
0300
0300
0300
0300
0300
0300
0300
0300
0300
0300
0300
0700
0E00
FE00
F800
ENDCHAR
STARTCHAR 2935
ENCODING 10549
SWIDTH 500 0
DWIDTH 14 0
BBX 11 21 1 -1
BITMAP
F800
FE00
0E00
0700
0300
0300
0300
0300
0300
0300
0300
0300
0300
0300
0300
1320
1320
1B60
0FC0
0780
0300
ENDCHAR
STARTCHAR 29BF
ENCODING 10687
SWIDTH 1000 0
DWIDTH 28 0
BBX 24 23 2 -1
BITMAP
007E00
03FFC0
0781E0
1E0070
380018
30000C
60000E
603C06
C07E07
C0FF03
C0FF03
C0FF03
C0FF03
C07E03
E03C07
600006
70000E
30000C
180018
1E0078
0781E0
03FFC0
007E00
ENDCHAR
STARTCHAR 29FA
ENCODING 10746
SWIDTH 500 0
DWIDTH 14 0
BBX 12 17 1 2
BITMAP
1980
1980
1980
1980
1980
1980
1980
FFF0
FFF0
1980
1980
1980
1980
1980
1980
1980
1980
ENDCHAR
STARTCHAR 29FB
ENCODING 10747
SWIDTH 500 0
DWIDTH 14 0
BBX 12 17 1 2
BITMAP
36C0
36C0
36C0
36C0
36C0
36C0
36C0
FFF0
FFF0
36C0
36C0
36C0
36C0
36C0
36C0
36C0
36C0
ENDCHAR
STARTCHAR 3000
ENCODING 12288
SWIDTH 1000 0
DWIDTH 28 0
BBX 0 0 0 0
BITMAP
ENDCHAR
STARTCHAR 3001
ENCODING 12289
SWIDTH 1000 0
DWIDTH 28 0
BBX 6 6 1 -1
BITMAP
60
F0
78
3C
1C
0C
ENDCHAR
STARTCHAR 3002
ENCODING 12290
SWIDTH 1000 0
DWIDTH 28 0
BBX 8 7 1 -2
BITMAP
3C
62
81
81
81
42
3C
ENDCHAR
STARTCHAR 3003
ENCODING 12291
SWIDTH 1000 0
DWIDTH 28 0
BBX 13 13 7 4
BITMAP
0E38
0E30
0C30
1C70
1C60
1860
18E0
30C0
30C0
7180
6180
6380
C300
ENDCHAR
STARTCHAR 3005
ENCODING 12293
SWIDTH 1000 0
DWIDTH 28 0
BBX 18 18 4 1
BITMAP
01C000
018000
018000
030000
03FFC0
07FFC0
0601C0
0C0180
1C0380
380300
700600
E18C00
40FC00
007800
003800
001C00
000E00
000400
ENDCHAR
STARTCHAR 3006
ENCODING 12294
SWIDTH 1000 0
DWIDTH 28 0
BBX 20 21 4 1
BITMAP
000020
000070
0000E0
0001C0
000380
070300
0FC700
1CEE00
187C00
383800
307C00
30EE00
71C700
638200
670000
E70000
CE0000
DC0000
F80000
F00000
E00000
ENDCHAR
STARTCHAR 3007
ENCODING 12295
SWIDTH 1000 0
DWIDTH 28 0
BBX 24 23 2 -1
BITMAP
007E00
03FFC0
0781E0
1E0070
380018
30000C
60000E
600006
C00007
C00003
C00003
C00003
C00003
C00003
400003
600006
600006
30000C
180018
0C0070
0781E0
03FFC0
007E00
ENDCHAR
STARTCHAR 3008
ENCODING 12296
SWIDTH 1000 0
DWIDTH 28 0
BBX 11 25 15 -2
BITMAP
0060
00C0
01C0
0180
0300
0600
0E00
0C00
1800
3800
7000
6000
C000
6000
7000
3800
1800
0C00
0E00
0600
0300
0180
01C0
00C0
0060
ENDCHAR
STARTCHAR 3009
ENCODING 12297
SWIDTH 1000 0
DWIDTH 28 0
BBX 11 25 2 -2
BITMAP
C000
6000
7000
3000
1800
0C00
0E00
0600
0300
0180
01C0
00C0
0060
00C0
01C0
0380
0300
0600
0E00
0C00
1800
3000
7000
6000
C000
ENDCHAR
STARTCHAR 300A
ENCODING 12298
SWIDTH 1000 0
DWIDTH 28 0
BBX 12 25 15 -2
BITMAP
0330
0360
0660
04C0
0CC0
1980
1980
3300
3200
6600
4400
CC00
9800
CC00
4400
6600
3200
3300
1980
1980
0CC0
04C0
0660
0260
0330
ENDCHAR
STARTCHAR 300B
ENCODING 12299
SWIDTH 1000 0
DWIDTH 28 0
BBX 12 25 1 -2
BITMAP
CC00
6400
6600
3200
3300
1980
1980
0CC0
04C0
0660
0260
0330
0190
0330
0260
0660
04C0
0CC0
1980
1980
3300
3200
6600
6C00
CC00
ENDCHAR
STARTCHAR 300C
ENCODING 12300
SWIDTH 1000 0
DWIDTH 28 0
BBX 8 20 18 3
BITMAP
FF
FF
C0
C0
C0
C0
C0
C0
C0
C0
C0
C0
C0
C0
C0
C0
C0
C0
C0
C0
ENDCHAR
STARTCHAR 300D
ENCODING 12301
SWIDTH 1000 0
DWIDTH 28 0
BBX 8 20 2 -2
BITMAP
03
03
03
03
03
03
03
03
03
03
03
03
03
03
03
03
03
03
FF
FF
ENDCHAR
STARTCHAR 300E
ENCODING 12302
SWIDTH 1000 0
DWIDTH 28 0
BBX 11 20 16 3
BITMAP
FFE0
FFE0
C060
CFE0
CFE0
CC00
CC00
CC00
CC00
CC00
CC00
CC00
CC00
CC00
CC00
CC00
CC00
CC00
FC00
FC00
ENDCHAR
STARTCHAR 300F
ENCODING 12303
SWIDTH 1000 0
DWIDTH 28 0
BBX 11 20 1 -2
BITMAP
07E0
07E0
0660
0660
0660
0660
0660
0660
0660
0660
0660
0660
0660
0660
FE60
FE60
C060
C060
FFE0
FFE0
ENDCHAR
STARTCHAR 3010
ENCODING 12304
SWIDTH 1000 0
DWIDTH 28 0
BBX 6 25 20 -2
BITMAP
FC
F8
F0
F0
E0
C0
C0
C0
80
80
80
80
80
80
80
80
80
C0
C0
C0
E0
E0
F0
F8
FC
ENDCHAR
STARTCHAR 3011
ENCODING 12305
SWIDTH 1000 0
DWIDTH 28 0
BBX 6 25 2 -2
BITMAP
FC
7C
3C
3C
1C
0C
0C
0C
04
04
04
04
04
04
04
04
04
0C
0C
0C
1C
3C
3C
7C
FC
ENDCHAR
STARTCHAR 3012
ENCODING 12306
SWIDTH 1000 0
DWIDTH 28 0
BBX 20 23 4 -2
BITMAP
FFFFF0
FFFFF0
FFFFF0
000000
000000
000000
000000
FFFFF0
FFFFF0
FFFFF0
007000
007000
007000
007000
007000
007000
007000
007000
007000
007000
007000
007000
007000
ENDCHAR
STARTCHAR 3013
ENCODING 12307
SWIDTH 1000 0
DWIDTH 28 0
BBX 20 13 4 4
BITMAP
FFFFF0
FFFFF0
FFFFF0
FFFFF0
000000
000000
000000
000000
000000
FFFFF0
FFFFF0
FFFFF0
FFFFF0
ENDCHAR
STARTCHAR 3014
ENCODING 12308
SWIDTH 1000 0
DWIDTH 28 0
BBX 7 25 19 -1
BITMAP
06
1E
FC
E0
C0
C0
C0
C0
C0
C0
C0
C0
C0
C0
C0
C0
C0
C0
C0
C0
C0
F0
7C
0E
02
ENDCHAR
STARTCHAR 3015
ENCODING 12309
SWIDTH 1000 0
DWIDTH 28 0
BBX 7 25 2 -1
BITMAP
C0
F0
3E
0E
06
06
06
06
06
06
06
06
06
06
06
06
06
06
06
06
06
1E
7C
E0
80
ENDCHAR
STARTCHAR 3016
ENCODING 12310
SWIDTH 1000 0
DWIDTH 28 0
BBX 9 25 17 -2
BITMAP
FF80
FF80
C300
C300
C600
C600
C600
CE00
CC00
CC00
CC00
CC00
CC00
CC00
CC00
CC00
CC00
C600
C600
C600
C600
C300
C300
FF80
FF80
ENDCHAR
STARTCHAR 3017
ENCODING 12311
SWIDTH 1000 0
DWIDTH 28 0
BBX 9 25 2 -2
BITMAP
FF80
FF80
6180
6180
3180
3180
3180
3180
1980
1980
1980
1980
1980
1980
1980
1980
1980
3180
3180
3180
3180
6180
6180
FF80
FF80
ENDCHAR
STARTCHAR 3018
ENCODING 12312
SWIDTH 1000 0
DWIDTH 28 0
BBX 10 25 17 -2
BITMAP
01C0
07C0
3CC0
F0C0
C0C0
C7C0
CE00
CC00
CC00
CC00
CC00
CC00
CC00
CC00
CC00
CC00
CC00
CC00
CF00
C3C0
C0C0
F0C0
1CC0
07C0
00C0
ENDCHAR
STARTCHAR 3019
ENCODING 12313
SWIDTH 1000 0
DWIDTH 28 0
BBX 10 25 1 -2
BITMAP
E000
F800
CF00
C3C0
C0C0
7CC0
0EC0
06C0
06C0
06C0
06C0
06C0
06C0
06C0
06C0
06C0
06C0
06C0
1EC0
F8C0
C0C0
C3C0
CE00
F800
C000
ENDCHAR
STARTCHAR 301C
ENCODING 12316
SWIDTH 1000 0
DWIDTH 28 0
BBX 22 6 3 8
BITMAP
1F0000
7FC000
F0F004
C03C1C
801FF8
0003E0
ENDCHAR
STARTCHAR 301D
ENCODING 12317
SWIDTH 1000 0
DWIDTH 28 0
BBX 7 11 19 12
BITMAP
C0
F0
78
1C
06
42
E0
70
3C
0E
02
ENDCHAR
STARTCHAR 301F
ENCODING 12319
SWIDTH 1000 0
DWIDTH 28 0
BBX 7 11 2 -2
BITMAP
C0
60
38
1E
0E
84
E0
78
1C
0E
04
ENDCHAR
STARTCHAR 3020
ENCODING 12320
SWIDTH 1000 0
DWIDTH 28 0
BBX 26 18 1 1
BITMAP
1FFFFE00
1FFFFE00
00000000
00000000
1FFFFE00
1FFFFE00
000E0000
650E3980
878E7C40
848E2840
870E3840
400E0080
310E2300
10804200
08608400
043F0800
03807000
007F8000
ENDCHAR
STARTCHAR 3033
ENCODING 12339
SWIDTH 1000 0
DWIDTH 28 0
BBX 13 25 6 -3
BITMAP
0020
0038
0070
0070
0070
00E0
00E0
00C0
01C0
01C0
0380
0380
0300
0700
0600
0E00
0C00
1C00
1800
3800
3000
7000
6000
E000
E000
ENDCHAR
STARTCHAR 3034
ENCODING 12340
SWIDTH 1000 0
DWIDTH 28 0
BBX 18 25 6 -3
BITMAP
002000
003800
007000
007000
007000
00E000
00E000
00C000
01C000
01C000
038300
038300
031980
0719C0
060C00
0E0E00
0C0000
1C0000
180000
380000
300000
700000
600000
E00000
E00000
ENDCHAR
STARTCHAR 3035
ENCODING 12341
SWIDTH 1000 0
DWIDTH 28 0
BBX 14 26 6 -1
BITMAP
E000
E000
6000
7000
3800
3800
1C00
1C00
0E00
0E00
0700
0700
0380
0380
01C0
01C0
00E0
00E0
0070
0070
0070
0038
0038
001C
001C
0010
ENDCHAR
STARTCHAR 303B
ENCODING 12347
SWIDTH 1000 0
DWIDTH 28 0
BBX 10 18 9 1
BITMAP
6000
7000
1C00
0E00
0780
3F00
7000
6000
6000
7000
3800
1C00
0E00
0380
1FC0
78C0
E000
4000
ENDCHAR
STARTCHAR 303C
ENCODING 12348
SWIDTH 1000 0
DWIDTH 28 0
BBX 24 23 2 -1
BITMAP
FFFFFF
FFFFFF
C0000F
C0001F
C0003B
C00073
C000E3
C001C3
C00383
C00603
C00C03
C01803
C03003
C0E003
C1C003
C38003
C70003
CE0003
DC0003
F80003
F00003
FFFFFF
FFFFFF
ENDCHAR
STARTCHAR 303D
ENCODING 12349
SWIDTH 1000 0
DWIDTH 28 0
BBX 23 25 3 -3
BITMAP
380000
7C0000
CC7000
06F800
06CC00
038C00
038E00
000600
000600
000700
000300
000300
000300
000180
000180
0001C0
0000C0
0000C0
0000E0
000060
000070
000030
000038
00001C
00000E
ENDCHAR
STARTCHAR 3041
ENCODING 12353
SWIDTH 1000 0
DWIDTH 28 0
BBX 18 19 5 -1
BITMAP
030000
030000
060800
07F800
7FF000
060000
063000
06FC00
07FF00
1E6180
3E60C0
76C0C0
67C0C0
C780C0
C701C0
CE0380
FA0F00
703E00
003000
ENDCHAR
STARTCHAR 3042
ENCODING 12354
SWIDTH 1000 0
DWIDTH 28 0
BBX 22 23 3 0
BITMAP
018000
018000
018080
019F80
7FFE00
7F8000
038000
030600
031F00
03FFE0
038C70
0F1C38
1F1818
33380C
73300C
63600C
C3C00C
C1801C
C38038
CF8070
FD81E0
700FC0
000600
ENDCHAR
STARTCHAR 3043
ENCODING 12355
SWIDTH 1000 0
DWIDTH 28 0
BBX 18 15 5 1
BITMAP
E00000
E01C00
E00E00
600600
600700
600300
600180
600180
6001C0
718080
318000
3B8000
1F0000
1F0000
0E0000
ENDCHAR
STARTCHAR 3044
ENCODING 12356
SWIDTH 1000 0
DWIDTH 28 0
BBX 22 19 3 0
BITMAP
E00000
E00000
E00380
6001C0
6000E0
6000E0
600070
600030
600038
600018
60001C
70401C
70600C
306000
38E000
19C000
1FC000
0F8000
070000
ENDCHAR
STARTCHAR 3045
ENCODING 12357
SWIDTH 1000 0
DWIDTH 28 0
BBX 13 19 7 -1
BITMAP
0E00
1F80
03E0
0040
0000
07E0
3FF0
F838
C018
0018
0018
0018
0018
0030
0070
00E0
01C0
0780
0F00
ENDCHAR
STARTCHAR 3046
ENCODING 12358
SWIDTH 1000 0
DWIDTH 28 0
BBX 15 25 6 -2
BITMAP
0800
0F00
0FC0
01F0
0070
0000
0000
03F0
1FFC
FE0C
F00E
8006
0006
0006
0006
0006
000C
000C
001C
0038
0070
01E0
0FC0
0700
0400
ENDCHAR
STARTCHAR 3047
ENCODING 12359
SWIDTH 1000 0
DWIDTH 28 0
BBX 16 18 6 0
BITMAP
0400
0F80
03E0
00C0
0000
0060
3FF0
3E60
00C0
0180
0300
06C0
0FE0
1C60
3860
7060
E07F
C03F
ENDCHAR
STARTCHAR 3048
ENCODING 12360
SWIDTH 1000 0
DWIDTH 28 0
BBX 21 22 3 0
BITMAP
038000
03F000
007C00
001C00
000000
000000
001E00
1FFF00
1FEE00
001C00
001800
003000
006000
00C000
01F800
03FC00
078C00
0F0C00
1C0C00
380C00
700FF8
E003F8
ENDCHAR
STARTCHAR 3049
ENCODING 12361
SWIDTH 1000 0
DWIDTH 28 0
BBX 18 17 5 -1
BITMAP
060000
060000
060E00
06E700
7FE380
7E00C0
060000
060000
07FC00
0FFF00
3E0380
760180
C60180
C60180
E60300
7E1F00
3E7C00
ENDCHAR
STARTCHAR 304A
ENCODING 12362
SWIDTH 1000 0
DWIDTH 28 0
BBX 22 21 3 -1
BITMAP
030000
030000
030180
0301C0
03F8F0
7FF038
7F001C
030008
030000
030000
03FF80
07FFE0
1F0070
3B0038
630018
C30018
C30018
C30030
E300F0
7F3FE0
1E1F80
ENDCHAR
STARTCHAR 304B
ENCODING 12363
SWIDTH 1000 0
DWIDTH 28 0
BBX 23 22 3 -1
BITMAP
018000
01C000
018000
018000
0180C0
0380E0
07F870
FFFC30
F30C38
06061C
06060C
06060E
0C0606
0C0606
1C0600
180600
380E00
300C00
700C00
631C00
E3F800
41F000
ENDCHAR
STARTCHAR 304C
ENCODING 12364
SWIDTH 1000 0
DWIDTH 28 0
BBX 24 23 3 0
BITMAP
00000C
018006
01C077
01803A
018018
018188
0381C0
07F8E0
FFFC70
F30C30
060638
06061C
06060C
0C060E
0C0600
1C0600
180600
380E00
300C00
700C00
631C00
E3F800
41F000
ENDCHAR
STARTCHAR 304D
ENCODING 12365
SWIDTH 1000 0
DWIDTH 28 0
BBX 18 23 5 0
BITMAP
030000
030200
038E00
01FE00
FFF000
FEC000
00E1C0
006FC0
01FE00
FFF000
FC1800
001C00
000C00
000600
007F00
601F00
600200
600000
700000
300000
3E0000
0FFC00
03FC00
ENDCHAR
STARTCHAR 304E
ENCODING 12366
SWIDTH 1000 0
DWIDTH 28 0
BBX 22 24 5 0
BITMAP
000030
030098
0302CC
038E60
01FE70
FFF020
FEC000
00E1C0
006FC0
01FE00
FFF000
FC1800
001C00
000C00
000600
007F00
601F00
600200
600000
700000
300000
3E0000
0FFC00
03FC00
ENDCHAR
STARTCHAR 304F
ENCODING 12367
SWIDTH 1000 0
DWIDTH 28 0
BBX 12 23 7 -1
BITMAP
0060
0060
00E0
01C0
0380
0700
0E00
1C00
3800
7000
C000
C000
6000
3800
1C00
0E00
0700
0380
01C0
00E0
00E0
0070
0020
ENDCHAR
STARTCHAR 3050
ENCODING 12368
SWIDTH 1000 0
DWIDTH 28 0
BBX 18 23 7 -1
BITMAP
006000
006000
00E380
01C1C0
038CC0
070E40
0E0700
1C0200
380000
700000
C00000
C00000
600000
380000
1C0000
0E0000
070000
038000
01C000
00E000
00E000
007000
002000
ENDCHAR
STARTCHAR 3051
ENCODING 12369
SWIDTH 1000 0
DWIDTH 28 0
BBX 21 22 4 -2
BITMAP
200180
700180
600180
600180
600180
6001B8
E1FFF8
C1FFC0
C00180
C00180
C00180
C00180
C80180
C80180
D80180
D00300
F00300
700700
600E00
601C00
407800
003000
ENDCHAR
STARTCHAR 3052
ENCODING 12370
SWIDTH 1000 0
DWIDTH 28 0
BBX 23 24 4 -1
BITMAP
00000C
000066
2003B6
7003B6
600198
600180
600180
600198
E1FFF8
C1FFC0
C00180
C00180
C00180
C00180
C80180
C80180
D80180
D00300
F00300
700700
600E00
601C00
407800
007000
ENDCHAR
STARTCHAR 3053
ENCODING 12371
SWIDTH 1000 0
DWIDTH 28 0
BBX 18 19 5 1
BITMAP
3FFF00
3FFE00
007800
00E000
00C000
000000
000000
000000
000000
200000
700000
600000
C00000
C00000
C00000
E00000
7801C0
3FFFC0
07FF80
ENDCHAR
STARTCHAR 3054
ENCODING 12372
SWIDTH 1000 0
DWIDTH 28 0
BBX 22 22 5 1
BITMAP
000030
000098
0000DC
3FFE6C
3FFE60
007800
00E000
00C000
000000
000000
000000
000000
200000
700000
600000
C00000
C00000
C00000
E00000
7801C0
3FFFC0
07FF80
ENDCHAR
STARTCHAR 3055
ENCODING 12373
SWIDTH 1000 0
DWIDTH 28 0
BBX 18 22 4 0
BITMAP
018000
00C000
00C040
0061C0
006FC0
00FF00
FFF000
FE1800
001C00
000C00
000600
000700
003B00
003F80
2007C0
300180
300000
380000
180000
0E0000
07FE00
01FE00
ENDCHAR
STARTCHAR 3056
ENCODING 12374
SWIDTH 1000 0
DWIDTH 28 0
BBX 23 24 4 -1
BITMAP
000008
00000C
018066
00C036
00C018
0061D0
006FC0
00FF00
FFF000
FE1800
001C00
000C00
000600
000700
003B00
003F80
2007C0
300180
300000
380000
180000
0E0000
07FE00
01FE00
ENDCHAR
STARTCHAR 3057
ENCODING 12375
SWIDTH 1000 0
DWIDTH 28 0
BBX 16 22 8 -1
BITMAP
C000
C000
C000
C000
C000
C000
C000
C000
C000
C000
C000
C000
C000
C000
C002
C007
C006
C00E
E01C
7078
3FE0
1F80
ENDCHAR
STARTCHAR 3058
ENCODING 12376
SWIDTH 1000 0
DWIDTH 28 0
BBX 16 22 8 0
BITMAP
C00C
C00E
C067
C073
C038
C018
C000
C000
C000
C000
C000
C000
C000
C000
C002
C007
C006
C00E
E01C
7078
3FE0
1F80
ENDCHAR
STARTCHAR 3059
ENCODING 12377
SWIDTH 1000 0
DWIDTH 28 0
BBX 22 24 3 -3
BITMAP
000C00
000C00
000C00
000C00
FFFFFC
FFFFFC
000C00
000C00
00EC00
01FC00
039C00
030C00
030E00
030E00
031E00
01FE00
00FE00
000E00
001C00
001C00
007800
00F000
03E000
018000
ENDCHAR
STARTCHAR 305A
ENCODING 12378
SWIDTH 1000 0
DWIDTH 28 0
BBX 23 25 3 -2
BITMAP
00001C
000CCC
000C66
000C34
000C20
FFFFFC
FFFFFC
000C00
000C00
00EC00
01FC00
039C00
030C00
030E00
030E00
031E00
01FE00
00FE00
000E00
001C00
001C00
007800
00F000
03E000
018000
ENDCHAR
STARTCHAR 305B
ENCODING 12379
SWIDTH 1000 0
DWIDTH 28 0
BBX 24 22 2 0
BITMAP
0000C0
0000C0
0600C0
0600C0
0600C0
0600C0
0600C0
07FFFF
FFFFFE
8600C0
0600C0
0600C0
0600C0
0600C0
060FC0
060F80
060000
060000
060000
070000
03FFF8
00FFF8
ENDCHAR
STARTCHAR 305C
ENCODING 12380
SWIDTH 1000 0
DWIDTH 28 0
BBX 25 23 2 0
BITMAP
00000100
0000C300
0000C980
0600CD80
0600CC80
0600C600
0600C000
0600C000
07FFFF00
FFFFFE00
8600C000
0600C000
0600C000
0600C000
0600C000
060FC000
060F8000
06000000
06000000
06000000
07000000
03FFF800
00FFF800
ENDCHAR
STARTCHAR 305D
ENCODING 12381
SWIDTH 1000 0
DWIDTH 28 0
BBX 21 22 3 -1
BITMAP
001F80
0FFF80
0FC700
000E00
001C00
003800
006000
01C3F8
03FFF8
FFFE00
F81800
003000
006000
00C000
00C000
00C000
00C000
00E000
007000
007C00
001FC0
0007C0
ENDCHAR
STARTCHAR 305E
ENCODING 12382
SWIDTH 1000 0
DWIDTH 28 0
BBX 24 22 3 -1
BITMAP
001F8C
0FFF8E
0FC777
000E3A
001C18
003800
006000
01C3F8
03FFF8
FFFE00
F81800
003000
006000
00C000
00C000
00C000
00C000
00E000
007000
007C00
001FC0
0007C0
ENDCHAR
STARTCHAR 305F
ENCODING 12383
SWIDTH 1000 0
DWIDTH 28 0
BBX 23 22 3 0
BITMAP
00C000
01C000
018000
018000
01F800
FFFC00
FF0000
030000
030078
060FF8
061FE0
061000
0C0000
0C0000
1C0000
180000
187000
383000
303000
701C00
601FFE
E003FE
ENDCHAR
STARTCHAR 3060
ENCODING 12384
SWIDTH 1000 0
DWIDTH 28 0
BBX 23 22 3 0
BITMAP
00C018
01C04C
0180CE
018066
01F830
FFFC30
FF0000
030000
030078
060FF8
061FE0
061000
0C0000
0C0000
1C0000
180000
187000
383000
303000
701C00
601FFE
E003FE
ENDCHAR
STARTCHAR 3061
ENCODING 12385
SWIDTH 1000 0
DWIDTH 28 0
BBX 21 23 3 0
BITMAP
018000
018000
018000
038180
FFFF80
FFFE00
030000
030000
060000
060000
061F80
0CFFE0
0DE070
1F8038
1E0018
0C0018
000018
000038
000070
0001E0
003FC0
01FF00
00E000
ENDCHAR
STARTCHAR 3062
ENCODING 12386
SWIDTH 1000 0
DWIDTH 28 0
BBX 24 23 3 0
BITMAP
01800C
018026
018073
0381BA
FFFF98
FFFE00
030000
030000
060000
060000
061F80
0CFFE0
0DE070
1F8038
1E0018
0C0018
000018
000038
000070
0001E0
003FC0
01FF00
00E000
ENDCHAR
STARTCHAR 3063
ENCODING 12387
SWIDTH 1000 0
DWIDTH 28 0
BBX 17 13 5 0
BITMAP
03FC00
7FFE00
FC0700
400380
000180
000180
000180
000180
000300
000F00
003E00
07F800
07C000
ENDCHAR
STARTCHAR 3064
ENCODING 12388
SWIDTH 1000 0
DWIDTH 28 0
BBX 21 17 3 1
BITMAP
00FF00
1FFFC0
FF80E0
F00030
800038
000018
000018
000018
000018
000018
000030
000070
0000E0
0007C0
01FF00
03FC00
018000
ENDCHAR
STARTCHAR 3065
ENCODING 12389
SWIDTH 1000 0
DWIDTH 28 0
BBX 24 23 3 1
BITMAP
000008
00001C
00004E
000067
000030
000018
00FF00
1FFFC0
FF80E0
F00030
800038
000018
000018
000018
000018
000018
000030
000070
0000E0
0007C0
01FF00
03FC00
018000
ENDCHAR
STARTCHAR 3066
ENCODING 12390
SWIDTH 1000 0
DWIDTH 28 0
BBX 21 20 3 -1
BITMAP
0000F8
03FFF8
FFFFC0
FC0E00
003800
007000
006000
00C000
00C000
018000
018000
018000
018000
018000
01C000
00C000
00E000
007C00
003FC0
000FC0
ENDCHAR
STARTCHAR 3067
ENCODING 12391
SWIDTH 1000 0
DWIDTH 28 0
BBX 22 20 3 -1
BITMAP
0000F8
03FFF8
FFFFC0
FC0E00
003810
007018
0060CC
00C0CC
00C060
018030
018000
018000
018000
018000
01C000
00C000
00E000
007C00
003FC0
000FC0
ENDCHAR
STARTCHAR 3068
ENCODING 12392
SWIDTH 1000 0
DWIDTH 28 0
BBX 18 22 5 0
BITMAP
0C0000
0C0000
0E0000
0E0000
060000
060000
070000
030F80
037F80
01F800
07C000
0E0000
380000
700000
600000
C00000
C00000
C00000
E00000
780000
3FFFC0
0FFFC0
ENDCHAR
STARTCHAR 3069
ENCODING 12393
SWIDTH 1000 0
DWIDTH 28 0
BBX 21 22 5 1
BITMAP
0C0060
0C0130
0E0398
0E01D0
0600C0
060000
070000
030F80
037F80
01F800
07C000
0E0000
380000
700000
600000
C00000
C00000
C00000
E00000
780000
3FFFC0
0FFFC0
ENDCHAR
STARTCHAR 306A
ENCODING 12394
SWIDTH 1000 0
DWIDTH 28 0
BBX 23 24 3 -1
BITMAP
010000
018000
018000
038000
030000
03F8E0
7FF8F0
7E0038
06001C
0E030C
0C0300
1C0300
180300
380300
300300
700300
607F00
E0FF80
41C3F0
0183FC
01831E
01C304
00FF00
003E00
ENDCHAR
STARTCHAR 306B
ENCODING 12395
SWIDTH 1000 0
DWIDTH 28 0
BBX 21 21 4 -1
BITMAP
300000
700000
6007E0
60FFE0
607C00
600000
E00000
C00000
C00000
C00000
C00000
C00000
C00000
C8C000
D8C000
F0C000
F0C000
F07000
E07FF8
601FF8
600000
ENDCHAR
STARTCHAR 306C
ENCODING 12396
SWIDTH 1000 0
DWIDTH 28 0
BBX 24 22 2 0
BITMAP
000C00
000C00
000C00
300C00
301F00
30FFE0
1BD870
1F1818
0E180C
1C300C
3C3006
763006
666006
E36006
C3C006
C1C7CE
C1CFFC
C3CC3C
C7481F
7E0C3B
3807F1
0003C0
ENDCHAR
STARTCHAR 306D
ENCODING 12397
SWIDTH 1000 0
DWIDTH 28 0
BBX 24 23 3 -1
BITMAP
060000
060000
060000
060000
0603C0
3F1FF0
FF3C38
C67018
06C018
07800C
07000C
06000C
0E000C
1E000C
3E000C
7607CC
E60FF8
C61838
06183E
061C77
060FE2
0607C0
060000
ENDCHAR
STARTCHAR 306E
ENCODING 12398
SWIDTH 1000 0
DWIDTH 28 0
BBX 22 20 3 0
BITMAP
00FE00
03FFC0
0F30E0
1C3070
383038
303018
60300C
60700C
C0600C
C0600C
C0600C
C0E00C
C0C01C
C0C018
C18038
638070
7300E0
3E07C0
1C1F80
000C00
ENDCHAR
STARTCHAR 306F
ENCODING 12399
SWIDTH 1000 0
DWIDTH 28 0
BBX 22 21 3 0
BITMAP
300180
300180
300180
700180
600198
60FFF8
60FFE0
E00180
C00180
C00180
C00180
C00180
C80180
CC0180
D87F80
D8FFE0
F1C1F8
F181BC
61C38C
60FF84
607F00
ENDCHAR
STARTCHAR 3070
ENCODING 12400
SWIDTH 1000 0
DWIDTH 28 0
BBX 23 23 4 0
BITMAP
00000C
00006E
700376
600330
600310
600300
600338
61FFF8
E1FFC0
C00300
C00300
C00300
C00300
C00300
C00300
D80300
D8FF00
F1FFC0
F383F0
F30378
E38718
E1FF08
E0FC00
ENDCHAR
STARTCHAR 3071
ENCODING 12401
SWIDTH 1000 0
DWIDTH 28 0
BBX 23 24 4 -1
BITMAP
00003C
000066
000042
700342
600366
60033C
600300
600338
61FFF8
E1FFC0
C00300
C00300
C00300
C00300
C00300
C00300
D80300
D8FF00
F1FFC0
F383F0
F30378
E38718
E1FF08
E0FC00
ENDCHAR
STARTCHAR 3072
ENCODING 12402
SWIDTH 1000 0
DWIDTH 28 0
BBX 24 20 2 0
BITMAP
01E1C0
0FE0C0
7EC0E0
F980F0
4300F0
0700D8
0600DC
0C00CE
0C00C6
1C00C7
1800C2
1800C0
1800C0
1801C0
180180
1C0380
0C0300
070F00
03FE00
01F800
ENDCHAR
STARTCHAR 3073
ENCODING 12403
SWIDTH 1000 0
DWIDTH 28 0
BBX 25 23 2 0
BITMAP
00000600
00001B00
00001980
01E1CD80
0FE0CC00
7EC0E000
F980F000
4300F000
0700D800
0600DC00
0C00CE00
0C00C600
1C00C700
1800C200
1800C000
1800C000
1801C000
18018000
1C038000
0C030000
070F0000
03FE0000
01F80000
ENDCHAR
STARTCHAR 3074
ENCODING 12404
SWIDTH 1000 0
DWIDTH 28 0
BBX 25 23 2 -1
BITMAP
00000F00
00001980
00001080
01E1D080
0FE0D980
7EC0EF00
F980F000
4300F000
0700D800
0600DC00
0C00CE00
0C00C600
1C00C700
1800C200
1800C000
1800C000
1801C000
18018000
1C038000
0C030000
070F0000
03FE0000
01F80000
ENDCHAR
STARTCHAR 3075
ENCODING 12405
SWIDTH 1000 0
DWIDTH 28 0
BBX 24 22 2 0
BITMAP
008000
01F000
007C00
001E00
000600
000200
000000
006000
007000
003000
003020
083870
1C1838
180C1C
38060C
30070E
700306
E00307
C30302
C38700
01FE00
007C00
ENDCHAR
STARTCHAR 3076
ENCODING 12406
SWIDTH 1000 0
DWIDTH 28 0
BBX 24 23 2 0
BITMAP
000004
00800E
01F026
007C33
001E1A
000618
000200
000000
006000
007000
003000
003020
083870
1C1838
180C1C
38060C
30070E
700306
E00307
C30302
C38700
01FE00
007C00
ENDCHAR
STARTCHAR 3077
ENCODING 12407
SWIDTH 1000 0
DWIDTH 28 0
BBX 24 22 2 0
BITMAP
00803C
01F066
007C42
001E42
000666
00023C
000000
006000
007000
003000
003020
083870
1C1838
180C1C
38060C
30070E
700306
E00307
C30302
C38700
01FE00
007C00
ENDCHAR
STARTCHAR 3078
ENCODING 12408
SWIDTH 1000 0
DWIDTH 28 0
BBX 24 13 2 4
BITMAP
00C000
01F000
03F800
073C00
0E1E00
1E0F00
380780
7001E0
E000F0
40007C
00001F
00000F
000002
ENDCHAR
STARTCHAR 3079
ENCODING 12409
SWIDTH 1000 0
DWIDTH 28 0
BBX 24 16 2 5
BITMAP
000030
000018
0001DC
00C0EC
01F060
03F820
073C00
0E1E00
1E0F00
380780
7001E0
E000F0
40007C
00001F
00000F
000002
ENDCHAR
STARTCHAR 307A
ENCODING 12410
SWIDTH 1000 0
DWIDTH 28 0
BBX 24 16 2 4
BITMAP
000078
0000CC
000084
00C084
01F0CC
03F878
073C00
0E1E00
1E0F00
380780
7001E0
E000F0
40007C
00001F
00000F
000002
ENDCHAR
STARTCHAR 307B
ENCODING 12411
SWIDTH 1000 0
DWIDTH 28 0
BBX 22 21 3 0
BITMAP
300018
30FFF8
60FFC0
600180
600180
600180
600198
C1FFFC
C1FFC0
C00180
C00180
C00180
C80180
C80180
D87F80
D0FFC0
F1C1F8
F181BC
61C18C
60FF80
607F00
ENDCHAR
STARTCHAR 307C
ENCODING 12412
SWIDTH 1000 0
DWIDTH 28 0
BBX 24 23 3 0
BITMAP
000006
00001B
30001B
30FFEC
70FFCC
600180
600180
600180
600198
E1FFFC
C1FFC0
C00180
C00180
C00180
C80180
CC0180
D87F80
D0FFC0
F1C1F8
F181BC
61C18C
60FF80
607F00
ENDCHAR
STARTCHAR 307D
ENCODING 12413
SWIDTH 1000 0
DWIDTH 28 0
BBX 25 24 3 -1
BITMAP
00000E00
00003180
00002080
30002080
30FFF180
70FFCE00
60018000
60018000
60018000
60019800
E1FFFC00
C1FFC000
C0018000
C0018000
C0018000
C8018000
CC018000
D87F8000
D0FFC000
F1C1F800
F181BC00
61C18C00
60FF8000
607F0000
ENDCHAR
STARTCHAR 307E
ENCODING 12414
SWIDTH 1000 0
DWIDTH 28 0
BBX 18 22 5 0
BITMAP
006000
006000
006000
0060C0
FFFFC0
FFFE00
006000
006000
006000
7FFF80
7FFF80
006000
006000
006000
006000
1FE000
7FF800
E07E00
C06F00
E0E3C0
7FE0C0
1F8000
ENDCHAR
STARTCHAR 307F
ENCODING 12415
SWIDTH 1000 0
DWIDTH 28 0
BBX 24 21 2 -1
BITMAP
03FC00
0FFC00
0C1C00
001800
001800
001838
003038
003030
01F830
0FFFB0
3C63F0
70C0F8
60C07E
C1806F
C38063
C300C0
E601C0
7C0380
380700
001E00
000400
ENDCHAR
STARTCHAR 3080
ENCODING 12416
SWIDTH 1000 0
DWIDTH 28 0
BBX 24 22 3 0
BITMAP
030000
030000
070000
071800
FFF860
FFE070
060038
06001C
06000E
3E0007
660002
630000
C30000
C30060
C30070
C60030
7E0030
3C0030
0C0030
0E00F0
0FFFE0
03FF00
ENDCHAR
STARTCHAR 3081
ENCODING 12417
SWIDTH 1000 0
DWIDTH 28 0
BBX 23 22 2 -1
BITMAP
000600
000600
000600
180600
1C0600
0C7FE0
0DECF0
0F8C38
0E1C1C
1E180C
3E1806
733006
633006
E1E006
C1E006
C0C00E
C1E00C
C3E01C
E76038
7E00F0
380FE0
000F80
ENDCHAR
STARTCHAR 3082
ENCODING 12418
SWIDTH 1000 0
DWIDTH 28 0
BBX 20 23 4 0
BITMAP
018000
018000
018000
018000
018000
7FFE00
FFFE00
030000
030000
030000
030000
7F7C00
7FFC20
070060
060030
060030
060030
060030
060030
070060
0381E0
01FFC0
007F00
ENDCHAR
STARTCHAR 3083
ENCODING 12419
SWIDTH 1000 0
DWIDTH 28 0
BBX 19 19 4 -2
BITMAP
004000
00E000
187800
181800
0C0F80
0C7FC0
07F0E0
1F0060
FF0060
6300E0
0303C0
019F80
019C00
018000
00C000
00C000
00C000
006000
006000
ENDCHAR
STARTCHAR 3084
ENCODING 12420
SWIDTH 1000 0
DWIDTH 28 0
BBX 23 23 2 -1
BITMAP
003000
003C00
1C0E00
0C0700
0E0200
0603F0
071FFC
03FC0E
07E006
3F8006
F98006
41C00E
00C01C
00C7F8
00E3E0
006000
006000
007000
003000
003000
003800
001800
001800
ENDCHAR
STARTCHAR 3085
ENCODING 12421
SWIDTH 1000 0
DWIDTH 28 0
BBX 18 19 5 -2
BITMAP
003000
403000
603000
60FC00
E3FF00
C73380
CE3180
DC30C0
F830C0
F030C0
F230C0
E731C0
E3F780
E0FF00
607C00
00E000
00C000
038000
010000
ENDCHAR
STARTCHAR 3086
ENCODING 12422
SWIDTH 1000 0
DWIDTH 28 0
BBX 22 23 3 -2
BITMAP
000C00
000C00
600C00
600C00
603FC0
E0FFE0
C1C670
C38618
C6060C
CC060C
DC060C
D8060C
F0060C
F1861C
E1C618
E0FC70
607FE0
601F80
601C00
001800
003800
007000
00E000
ENDCHAR
STARTCHAR 3087
ENCODING 12423
SWIDTH 1000 0
DWIDTH 28 0
BBX 15 17 6 0
BITMAP
0180
0180
0180
0180
01FC
01FE
0180
0180
0180
0180
0180
3F80
FFF0
C1BC
E18E
7F82
3F00
ENDCHAR
STARTCHAR 3088
ENCODING 12424
SWIDTH 1000 0
DWIDTH 28 0
BBX 19 23 4 -1
BITMAP
006000
006000
006000
006000
006000
0061C0
007FC0
007E00
006000
006000
006000
006000
006000
006000
1FE000
7FF000
707E00
C06F80
C063E0
C060E0
70E000
3FC000
020000
ENDCHAR
STARTCHAR 3089
ENCODING 12425
SWIDTH 1000 0
DWIDTH 28 0
BBX 18 24 6 -2
BITMAP
080000
0E0000
0F8000
03E000
00E000
000000
700000
600000
600000
600000
600000
60FC00
E3FF00
CF0380
DC01C0
F800C0
E000C0
C000C0
0001C0
000380
000F00
007E00
07F800
07C000
ENDCHAR
STARTCHAR 308A
ENCODING 12426
SWIDTH 1000 0
DWIDTH 28 0
BBX 15 23 6 -1
BITMAP
000E
600E
E006
C006
C006
C006
C006
C006
C006
C606
CE06
CC06
FC06
7806
700C
000C
000C
0018
0038
00F0
03E0
0780
0200
ENDCHAR
STARTCHAR 308B
ENCODING 12427
SWIDTH 1000 0
DWIDTH 28 0
BBX 20 22 4 -1
BITMAP
001C00
1FFE00
1FDC00
001C00
003800
007000
00E000
01C000
038000
07FF00
0FFFC0
1F80E0
3C0070
700030
E00030
43C030
07F030
0C3060
0C19E0
0E0FC0
07FF00
03FC00
ENDCHAR
STARTCHAR 308C
ENCODING 12428
SWIDTH 1000 0
DWIDTH 28 0
BBX 24 23 3 -1
BITMAP
060000
060000
060000
060000
0607C0
3F0FE0
FF3C60
C77060
06E060
078060
070060
0700C0
0E00C0
1E00C0
3E00C0
7600C0
6600C2
E600C7
4600CE
0600FE
0600FC
060070
060000
ENDCHAR
STARTCHAR 308D
ENCODING 12429
SWIDTH 1000 0
DWIDTH 28 0
BBX 19 22 5 -1
BITMAP
001800
7FFC00
3FDC00
003800
007000
00E000
01C000
018000
030000
067E00
0FFF80
1F81C0
3E00E0
F80060
E00060
400060
000060
0000C0
0001C0
001F00
07FC00
07C000
ENDCHAR
STARTCHAR 308E
ENCODING 12430
SWIDTH 1000 0
DWIDTH 28 0
BBX 18 18 5 -1
BITMAP
0C0000
0C0000
0C0000
0C0000
FE0000
EE7E00
0DC300
0F0180
0C00C0
1C00C0
3C00C0
6C00C0
CC01C0
CC0380
0C0700
0C7E00
0C3C00
0C0000
ENDCHAR
STARTCHAR 308F
ENCODING 12431
SWIDTH 1000 0
DWIDTH 28 0
BBX 23 23 2 -1
BITMAP
030000
030000
030000
030000
030000
1F8000
7FC7E0
739FF0
037838
03E00C
03C00E
038006
070006
0F0006
1B0006
33000E
73000C
E3001C
430038
0301F0
030FE0
030700
030000
ENDCHAR
STARTCHAR 3090
ENCODING 12432
SWIDTH 1000 0
DWIDTH 28 0
BBX 22 22 3 -1
BITMAP
001C00
0FFC00
0FCC00
001C00
001800
001800
003F00
01FFE0
07B0F0
0E6038
186018
30E01C
60C00C
61C00C
C1800C
C30F0C
C33F8C
C631D8
CC30F8
7C3870
301FE0
000F80
ENDCHAR
STARTCHAR 3091
ENCODING 12433
SWIDTH 1000 0
DWIDTH 28 0
BBX 24 22 2 -2
BITMAP
001F00
07FF80
07CE00
001C00
003000
00EFC0
01FFF0
07E078
0F0018
3EF818
398C18
030C30
0318F0
01F3C0
00FF00
038000
0701E0
0FC3F8
3FE61C
7C7C0E
F03C07
E03803
ENDCHAR
STARTCHAR 3092
ENCODING 12434
SWIDTH 1000 0
DWIDTH 28 0
BBX 20 23 4 0
BITMAP
01C000
018000
018000
7FFE00
7FFE00
070000
060000
0C0000
0DE000
1FF030
1E31F0
381FE0
701F00
E07800
C1F800
439800
071800
0C1800
0C0000
0C0000
0F0000
07FFE0
00FFE0
ENDCHAR
STARTCHAR 3093
ENCODING 12435
SWIDTH 1000 0
DWIDTH 28 0
BBX 23 23 3 -1
BITMAP
002000
003800
007000
006000
00E000
00C000
01C000
018000
038000
030000
070000
06F000
0FF800
0F1C00
1E0C00
1C0C04
380C0E
380C0C
700C1C
700C38
E00E70
E007E0
4003C0
ENDCHAR
STARTCHAR 3094
ENCODING 12436
SWIDTH 1000 0
DWIDTH 28 0
BBX 21 25 6 -2
BITMAP
080000
0F0060
0FC130
01F3B8
007190
0000C0
000080
03F000
1FFC00
FE0C00
F00E00
800600
000600
000600
000600
000600
000C00
000C00
001C00
003800
007000
01E000
0FC000
070000
040000
ENDCHAR
STARTCHAR 3095
ENCODING 12437
SWIDTH 1000 0
DWIDTH 28 0
BBX 18 18 5 0
BITMAP
060000
060000
060000
060400
060E00
7F8700
FFC300
0CE180
1861C0
1860C0
1860C0
306000
306000
706000
60C000
E4C000
CFC000
838000
ENDCHAR
STARTCHAR 3096
ENCODING 12438
SWIDTH 1000 0
DWIDTH 28 0
BBX 17 19 6 -1
BITMAP
301800
700800
600800
600C00
600C80
E00F80
C3FF00
C30C00
C00C00
C00C00
C00C00
C80C00
D80C00
D01C00
F01800
603800
607000
60E000
00C000
ENDCHAR
STARTCHAR 3099
ENCODING 12441
SWIDTH 1000 0
DWIDTH 28 0
BBX 7 6 19 17
BITMAP
18
1C
CE
E6
70
30
ENDCHAR
STARTCHAR 309A
ENCODING 12442
SWIDTH 1000 0
DWIDTH 28 0
BBX 7 6 19 17
BITMAP
78
C4
82
82
C4
38
ENDCHAR
STARTCHAR 309B
ENCODING 12443
SWIDTH 1000 0
DWIDTH 28 0
BBX 7 6 1 17
BITMAP
18
1C
CE
E6
70
30
ENDCHAR
STARTCHAR 309C
ENCODING 12444
SWIDTH 1000 0
DWIDTH 28 0
BBX 6 6 1 17
BITMAP
78
CC
84
84
CC
78
ENDCHAR
STARTCHAR 309D
ENCODING 12445
SWIDTH 1000 0
DWIDTH 28 0
BBX 11 14 8 3
BITMAP
E000
F000
3800
1E00
0F00
0380
01C0
00E0
00E0
00E0
03C0
0F80
3F00
1800
ENDCHAR
STARTCHAR 309E
ENCODING 12446
SWIDTH 1000 0
DWIDTH 28 0
BBX 14 17 8 3
BITMAP
0038
001C
01CC
E0E0
F070
3820
1E00
0F00
0380
01C0
00E0
00E0
00E0
03C0
0F80
3F00
1800
ENDCHAR
STARTCHAR 309F
ENCODING 12447
SWIDTH 1000 0
DWIDTH 28 0
BBX 15 25 7 -1
BITMAP
0300
0700
0600
0600
07FE
0FFE
0C00
1C00
1800
1800
33E0
3FF0
7C38
701C
E00C
C00C
000C
000C
000C
6018
6018
7030
38F0
1FE0
0F80
ENDCHAR
STARTCHAR 30A0
ENCODING 12448
SWIDTH 1000 0
DWIDTH 28 0
BBX 12 7 8 7
BITMAP
FFF0
FFF0
0000
0000
0000
FFF0
FFF0
ENDCHAR
STARTCHAR 30A1
ENCODING 12449
SWIDTH 1000 0
DWIDTH 28 0
BBX 17 16 6 -1
BITMAP
FFFF00
FFFF80
000300
000700
038600
030C00
031C00
033800
033000
030000
030000
060000
0E0000
1C0000
380000
700000
ENDCHAR
STARTCHAR 30A2
ENCODING 12450
SWIDTH 1000 0
DWIDTH 28 0
BBX 21 20 4 0
BITMAP
FFFFF0
FFFFF8
000038
000070
00E070
00E0E0
00E1C0
00E380
00E700
00E600
00C000
00C000
00C000
01C000
018000
038000
070000
0E0000
3C0000
380000
ENDCHAR
STARTCHAR 30A3
ENCODING 12451
SWIDTH 1000 0
DWIDTH 28 0
BBX 14 18 5 0
BITMAP
000C
001C
0038
0070
00E0
01C0
03C0
0FC0
3EC0
F8C0
60C0
00C0
00C0
00C0
00C0
00C0
00C0
00C0
ENDCHAR
STARTCHAR 30A4
ENCODING 12452
SWIDTH 1000 0
DWIDTH 28 0
BBX 17 23 4 -1
BITMAP
000100
000180
000380
000700
000E00
001C00
003800
007000
01F000
03F000
07B000
1E3000
783000
F03000
403000
003000
003000
003000
003000
003000
003000
003000
003000
ENDCHAR
STARTCHAR 30A5
ENCODING 12453
SWIDTH 1000 0
DWIDTH 28 0
BBX 16 19 6 -1
BITMAP
0180
0180
0180
0180
FFFE
FFFF
C006
C006
C006
C006
C00E
000C
001C
0038
0070
00F0
03C0
0F80
0600
ENDCHAR
STARTCHAR 30A6
ENCODING 12454
SWIDTH 1000 0
DWIDTH 28 0
BBX 18 23 5 -1
BITMAP
00C000
00C000
00C000
00C000
00C000
FFFFC0
FFFFC0
C000C0
C000C0
C001C0
C001C0
C00180
C00180
000380
000300
000700
000E00
001C00
003C00
00F000
03E000
07C000
020000
ENDCHAR
STARTCHAR 30A7
ENCODING 12455
SWIDTH 1000 0
DWIDTH 28 0
BBX 18 12 5 2
BITMAP
3FFF00
3FFF00
00C000
00C000
00C000
00C000
00C000
00C000
00C000
00C000
FFFFC0
FFFFC0
ENDCHAR
STARTCHAR 30A8
ENCODING 12456
SWIDTH 1000 0
DWIDTH 28 0
BBX 22 16 3 2
BITMAP
3FFFF0
3FFFF0
003000
003000
003000
003000
003000
003000
003000
003000
003000
003000
003000
003000
FFFFFC
FFFFFC
ENDCHAR
STARTCHAR 30A9
ENCODING 12457
SWIDTH 1000 0
DWIDTH 28 0
BBX 17 17 5 -1
BITMAP
003000
003000
003000
003000
7FFF80
7FFF80
007000
00F000
01B000
03B000
073000
0E3000
1C3000
783000
E03000
43F000
01F000
ENDCHAR
STARTCHAR 30AA
ENCODING 12458
SWIDTH 1000 0
DWIDTH 28 0
BBX 22 22 2 -1
BITMAP
000300
000300
000300
000300
000300
000300
7FFFFC
7FFFFC
000F00
000F00
001B00
003300
007300
00E300
01C300
078300
0F0300
3C0300
F80300
600300
007F00
007E00
ENDCHAR
STARTCHAR 30AB
ENCODING 12459
SWIDTH 1000 0
DWIDTH 28 0
BBX 19 22 4 -1
BITMAP
00C000
00C000
00C000
00C000
00C000
00C000
FFFFE0
FFFFE0
00C060
00C060
01C060
018060
018060
0180E0
0300E0
0700E0
0600E0
0E00C0
1C00C0
3831C0
F03FC0
E01F80
ENDCHAR
STARTCHAR 30AC
ENCODING 12460
SWIDTH 1000 0
DWIDTH 28 0
BBX 23 23 4 0
BITMAP
000018
00C05C
00C0CE
00C066
00C070
00C030
00C000
FFFFE0
FFFFE0
00C060
00C060
01C060
018060
018060
0180E0
0300E0
0700E0
0600E0
0E00C0
1C00C0
3831C0
F03FC0
E01F80
ENDCHAR
STARTCHAR 30AD
ENCODING 12461
SWIDTH 1000 0
DWIDTH 28 0
BBX 22 23 3 -1
BITMAP
00C000
00C000
00C000
00E000
00E1E0
007FE0
1FFE00
7FE000
606000
007000
003004
0031FC
007FF8
1FFE00
FFB800
601800
001800
001800
001C00
001C00
000C00
000C00
000C00
ENDCHAR
STARTCHAR 30AE
ENCODING 12462
SWIDTH 1000 0
DWIDTH 28 0
BBX 24 25 3 -2
BITMAP
000008
00000C
00C06E
00C077
00C030
00E018
00E1C0
007FE0
1FFE00
7FE000
606000
007000
003004
0031FC
007FF8
1FFE00
FFB800
601800
001800
001800
001C00
001C00
000C00
000C00
000C00
ENDCHAR
STARTCHAR 30AF
ENCODING 12463
SWIDTH 1000 0
DWIDTH 28 0
BBX 19 23 4 -2
BITMAP
008000
00C000
01C000
018000
03FFC0
03FFE0
0700C0
0600C0
0E01C0
1C0180
380180
700380
E00300
400700
000E00
000C00
001C00
003800
00F000
01E000
07C000
1F0000
0C0000
ENDCHAR
STARTCHAR 30B0
ENCODING 12464
SWIDTH 1000 0
DWIDTH 28 0
BBX 23 24 4 -1
BITMAP
000008
00800C
00C066
01C036
018038
03FFD0
03FFE0
0700C0
0600C0
0E01C0
1C0180
380180
700380
E00300
400700
000E00
000C00
001C00
003800
00F000
01E000
07C000
1F0000
0C0000
ENDCHAR
STARTCHAR 30B1
ENCODING 12465
SWIDTH 1000 0
DWIDTH 28 0
BBX 22 22 3 -1
BITMAP
038000
030000
030000
030000
070000
07FFFC
0FFFFC
0C0700
1C0700
380600
700600
F00600
E00600
000E00
000C00
001C00
001800
003800
007000
01E000
03C000
030000
ENDCHAR
STARTCHAR 30B2
ENCODING 12466
SWIDTH 1000 0
DWIDTH 28 0
BBX 24 24 3 -2
BITMAP
000008
00001C
03806E
030077
030038
030010
070000
07FFFC
0FFFFC
0C0700
1C0700
380600
700600
F00600
E00600
000E00
000C00
001C00
001800
003800
007000
01E000
03C000
030000
ENDCHAR
STARTCHAR 30B3
ENCODING 12467
SWIDTH 1000 0
DWIDTH 28 0
BBX 18 17 4 1
BITMAP
7FFFC0
7FFFC0
0000C0
0000C0
0000C0
0000C0
0000C0
0000C0
0000C0
0000C0
0000C0
0000C0
0000C0
0000C0
FFFFC0
FFFFC0
0000C0
ENDCHAR
STARTCHAR 30B4
ENCODING 12468
SWIDTH 1000 0
DWIDTH 28 0
BBX 23 22 4 2
BITMAP
000018
00004C
000066
000034
000030
7FFFC0
7FFFC0
0000C0
0000C0
0000C0
0000C0
0000C0
0000C0
0000C0
0000C0
0000C0
0000C0
0000C0
0000C0
FFFFC0
FFFFC0
0000C0
ENDCHAR
STARTCHAR 30B5
ENCODING 12469
SWIDTH 1000 0
DWIDTH 28 0
BBX 24 23 2 -2
BITMAP
0000C0
0300C0
0300C0
0300C0
0300C0
0300C0
0300C0
FFFFFF
FFFFFF
0300C0
0300C0
0300C0
0300C0
0300C0
030180
000180
000180
000300
000700
000E00
003C00
00F800
006000
ENDCHAR
STARTCHAR 30B6
ENCODING 12470
SWIDTH 1000 0
DWIDTH 28 0
BBX 25 24 2 -1
BITMAP
00000300
0000CB00
0300D980
0300CD80
0300CC80
0300C600
0300C000
0300C000
FFFFFF00
FFFFFF00
0300C000
0300C000
0300C000
0300C000
0300C000
03018000
00018000
00018000
00030000
00070000
000E0000
003C0000
00F80000
00600000
ENDCHAR
STARTCHAR 30B7
ENCODING 12471
SWIDTH 1000 0
DWIDTH 28 0
BBX 21 21 3 -1
BITMAP
040000
0F0000
078000
03C000
00C000
000000
600018
F80018
3C0038
0E0070
040070
0000E0
0001C0
000780
000F00
001E00
007800
03F000
1FC000
3F0000
180000
ENDCHAR
STARTCHAR 30B8
ENCODING 12472
SWIDTH 1000 0
DWIDTH 28 0
BBX 23 23 3 0
BITMAP
000018
00005C
0400CE
0F0066
078034
03C030
00C000
000000
600018
F80018
3C0038
0E0070
040070
0000E0
0001C0
000780
000F00
001E00
007800
03F000
1FC000
3F0000
180000
ENDCHAR
STARTCHAR 30B9
ENCODING 12473
SWIDTH 1000 0
DWIDTH 28 0
BBX 21 20 3 -1
BITMAP
0FFF00
3FFF80
3FFF80
000380
000380
000300
000700
000E00
000C00
001C00
003800
007C00
006E00
01E780
03C3C0
0780E0
1E0070
7C0038
F80018
600010
ENDCHAR
STARTCHAR 30BA
ENCODING 12474
SWIDTH 1000 0
DWIDTH 28 0
BBX 24 23 3 0
BITMAP
00000C
00006E
000077
0FFF33
3FFF98
3FFF90
000380
000380
000300
000700
000E00
000C00
001C00
003800
007C00
006E00
01E780
03C3C0
0780E0
1E0070
7C0038
F80018
600010
ENDCHAR
STARTCHAR 30BB
ENCODING 12475
SWIDTH 1000 0
DWIDTH 28 0
BBX 21 21 3 0
BITMAP
030000
030000
030000
030000
030000
0301F0
03FFF8
FFFE30
FF0070
0300E0
0301C0
030380
030700
030600
030000
030000
030000
030000
038030
03FFF0
00FFE0
ENDCHAR
STARTCHAR 30BC
ENCODING 12476
SWIDTH 1000 0
DWIDTH 28 0
BBX 23 23 3 1
BITMAP
000008
00004C
0300EE
030066
030030
030020
030000
0301F0
03FFF8
FFFE30
FF0070
0300E0
0301C0
030380
030700
030600
030000
030000
030000
030000
038030
03FFF0
00FFE0
ENDCHAR
STARTCHAR 30BD
ENCODING 12477
SWIDTH 1000 0
DWIDTH 28 0
BBX 18 21 5 -1
BITMAP
000080
C000C0
E000C0
7001C0
7001C0
380180
380380
180380
100700
000700
000E00
000E00
001C00
003800
007000
00E000
01C000
078000
1F0000
1C0000
080000
ENDCHAR
STARTCHAR 30BE
ENCODING 12478
SWIDTH 1000 0
DWIDTH 28 0
BBX 22 25 5 -1
BITMAP
000010
0000D8
0000CC
00006C
000060
C00080
E000C0
7001C0
7001C0
380180
380380
180380
100700
000700
000E00
000E00
001C00
003800
007000
00E000
01C000
078000
1F0000
1C0000
080000
ENDCHAR
STARTCHAR 30BF
ENCODING 12479
SWIDTH 1000 0
DWIDTH 28 0
BBX 19 23 4 0
BITMAP
01C000
018000
018000
03FFC0
03FFE0
0700C0
0600C0
0E01C0
1F0180
3B8180
71C380
E0E300
C07700
003E00
001C00
001C00
003800
007000
01E000
03C000
0F0000
1E0000
080000
ENDCHAR
STARTCHAR 30C0
ENCODING 12480
SWIDTH 1000 0
DWIDTH 28 0
BBX 23 25 4 0
BITMAP
000008
00004C
01C066
018036
018030
03FFC0
03FFE0
0700C0
0600C0
0E01C0
1F0180
3B8180
71C380
E0E300
C07700
003E00
001C00
001C00
003800
007000
01E000
03C000
0F0000
1E0000
080000
ENDCHAR
STARTCHAR 30C1
ENCODING 12481
SWIDTH 1000 0
DWIDTH 28 0
BBX 22 22 3 -1
BITMAP
0003C0
007FC0
1FFE00
0FD800
001800
001800
001800
001800
001FFC
FFFFFC
FFF800
001800
001800
001800
003000
003000
007000
006000
00E000
03C000
0F8000
0E0000
ENDCHAR
STARTCHAR 30C2
ENCODING 12482
SWIDTH 1000 0
DWIDTH 28 0
BBX 23 23 3 -1
BITMAP
00000C
0003B6
007FF6
1FFE1A
0FD818
001800
001800
001800
001800
001FFC
FFFFFC
FFF800
001800
001800
001800
003000
003000
007000
006000
00E000
03C000
0F8000
0E0000
ENDCHAR
STARTCHAR 30C3
ENCODING 12483
SWIDTH 1000 0
DWIDTH 28 0
BBX 16 16 6 0
BITMAP
0200
4707
C306
E386
6186
710E
600C
001C
0018
0038
0070
00E0
01C0
0780
1E00
1C00
ENDCHAR
STARTCHAR 30C4
ENCODING 12484
SWIDTH 1000 0
DWIDTH 28 0
BBX 20 20 4 0
BITMAP
038040
418070
C1C060
E1C060
60E0E0
70E0E0
7040C0
3001C0
2001C0
000180
000380
000700
000700
000E00
001C00
003800
00F000
01E000
07C000
070000
ENDCHAR
STARTCHAR 30C5
ENCODING 12485
SWIDTH 1000 0
DWIDTH 28 0
BBX 23 24 4 0
BITMAP
000008
00006C
000066
000036
038020
418060
C1C060
E1C060
60E0E0
70E0E0
7040C0
3001C0
2001C0
000180
000380
000700
000700
000E00
001C00
003800
00F000
01E000
07C000
070000
ENDCHAR
STARTCHAR 30C6
ENCODING 12486
SWIDTH 1000 0
DWIDTH 28 0
BBX 23 21 2 -2
BITMAP
0FFFF0
0FFFF0
000000
000000
000000
000000
000000
FFFFFE
FFFFFE
001C00
001C00
001C00
001800
001800
003800
003000
007000
00E000
03C000
0F8000
0E0000
ENDCHAR
STARTCHAR 30C7
ENCODING 12487
SWIDTH 1000 0
DWIDTH 28 0
BBX 25 24 2 -1
BITMAP
00000300
00001B00
00000980
0FFFED00
0FFFE600
00000000
00000000
00000000
00000000
00000000
FFFFFE00
FFFFFE00
001C0000
001C0000
001C0000
00180000
00180000
00380000
00300000
00700000
00E00000
03C00000
0F800000
0E000000
ENDCHAR
STARTCHAR 30C8
ENCODING 12488
SWIDTH 1000 0
DWIDTH 28 0
BBX 12 23 10 -1
BITMAP
C000
C000
C000
C000
C000
C000
C000
C000
E000
F800
FE00
CF80
C3C0
C1F0
C070
C020
C000
C000
C000
C000
C000
C000
C000
ENDCHAR
STARTCHAR 30C9
ENCODING 12489
SWIDTH 1000 0
DWIDTH 28 0
BBX 15 23 10 -1
BITMAP
C000
C018
C09C
C0CC
C066
C070
C020
C000
E000
F800
FE00
CF80
C3C0
C1F0
C070
C020
C000
C000
C000
C000
C000
C000
C000
ENDCHAR
STARTCHAR 30CA
ENCODING 12490
SWIDTH 1000 0
DWIDTH 28 0
BBX 22 23 3 -1
BITMAP
001800
001800
001800
001800
001800
001800
001800
FFFFFC
FFFFFC
001800
001800
001800
001800
003800
003000
003000
007000
006000
00E000
01C000
078000
0F0000
040000
ENDCHAR
STARTCHAR 30CB
ENCODING 12491
SWIDTH 1000 0
DWIDTH 28 0
BBX 22 14 3 3
BITMAP
1FFFE0
1FFFE0
000000
000000
000000
000000
000000
000000
000000
000000
000000
000000
FFFFFC
FFFFFC
ENDCHAR
STARTCHAR 30CC
ENCODING 12492
SWIDTH 1000 0
DWIDTH 28 0
BBX 17 21 5 -1
BITMAP
7FFF00
7FFF80
000380
000300
000700
000700
040600
0E0E00
0F0C00
03DC00
01F800
007000
007800
00FC00
03CE00
078700
0F0380
3C0180
F80000
E00000
400000
ENDCHAR
STARTCHAR 30CD
ENCODING 12493
SWIDTH 1000 0
DWIDTH 28 0
BBX 21 23 4 0
BITMAP
038000
03E000
00F000
003000
001000
3FFF80
3FFFC0
000380
000700
000E00
003800
007000
01E700
07E3C0
1F61E0
FC6078
F06038
006010
006000
006000
006000
006000
006000
ENDCHAR
STARTCHAR 30CE
ENCODING 12494
SWIDTH 1000 0
DWIDTH 28 0
BBX 15 19 6 1
BITMAP
0006
000E
000E
000C
001C
001C
0018
0038
0030
0070
00E0
00E0
01C0
0380
0700
1E00
3C00
F800
E000
ENDCHAR
STARTCHAR 30CF
ENCODING 12495
SWIDTH 1000 0
DWIDTH 28 0
BBX 24 14 2 3
BITMAP
030380
038180
0301C0
0700E0
070060
0E0070
0E0038
1C0038
1C001C
38001C
38000E
70000E
E00007
E00004
ENDCHAR
STARTCHAR 30D0
ENCODING 12496
SWIDTH 1000 0
DWIDTH 28 0
BBX 24 20 2 2
BITMAP
000004
00000E
000027
000033
000039
000018
030388
038180
0301C0
0700E0
070060
0E0070
0E0038
1C0038
1C001C
38001C
38000E
70000E
E00007
E00004
ENDCHAR
STARTCHAR 30D1
ENCODING 12497
SWIDTH 1000 0
DWIDTH 28 0
BBX 24 20 2 2
BITMAP
00001E
000033
000021
000021
000033
00001E
030380
038180
0301C0
0700E0
070060
0E0070
0E0038
1C0038
1C001C
38001C
38000E
70000E
E00007
E00004
ENDCHAR
STARTCHAR 30D2
ENCODING 12498
SWIDTH 1000 0
DWIDTH 28 0
BBX 18 21 6 0
BITMAP
C00000
C00000
C00000
C00000
C00300
C00F80
C03E00
C1F800
DFC000
FE0000
E00000
C00000
C00000
C00000
C00000
C00000
C00000
C00000
E003C0
7FFFC0
3FFE00
ENDCHAR
STARTCHAR 30D3
ENCODING 12499
SWIDTH 1000 0
DWIDTH 28 0
BBX 21 23 6 0
BITMAP
000020
000070
C001B0
C00198
C000D0
C000C0
C00300
C00F80
C03E00
C1F800
DFC000
FE0000
E00000
C00000
C00000
C00000
C00000
C00000
C00000
C00000
E003C0
7FFFC0
3FFE00
ENDCHAR
STARTCHAR 30D4
ENCODING 12500
SWIDTH 1000 0
DWIDTH 28 0
BBX 21 23 6 0
BITMAP
0000F0
000198
C00108
C00108
C00198
C000F0
C00300
C00F80
C03E00
C1F800
DFC000
FE0000
E00000
C00000
C00000
C00000
C00000
C00000
C00000
C00000
E003C0
7FFFC0
3FFE00
ENDCHAR
STARTCHAR 30D5
ENCODING 12501
SWIDTH 1000 0
DWIDTH 28 0
BBX 18 19 5 -1
BITMAP
FFFF80
FFFFC0
F000C0
0000C0
0001C0
0001C0
000180
000380
000300
000700
000600
000E00
001C00
003800
007000
01E000
07C000
3F0000
1C0000
ENDCHAR
STARTCHAR 30D6
ENCODING 12502
SWIDTH 1000 0
DWIDTH 28 0
BBX 23 24 4 -1
BITMAP
000008
000058
0000EC
000066
000034
FFFFA0
FFFFC0
F000C0
0001C0
0001C0
000180
000180
000380
000300
000700
000E00
000E00
001C00
003800
007000
01E000
07C000
3F0000
1C0000
ENDCHAR
STARTCHAR 30D7
ENCODING 12503
SWIDTH 1000 0
DWIDTH 28 0
BBX 23 24 4 -1
BITMAP
00003C
000066
000042
000042
000066
FFFFBC
FFFFC0
F000C0
0001C0
0001C0
000180
000180
000380
000300
000700
000E00
000E00
001C00
003800
007000
01E000
07C000
3F0000
1C0000
ENDCHAR
STARTCHAR 30D8
ENCODING 12504
SWIDTH 1000 0
DWIDTH 28 0
BBX 24 13 2 3
BITMAP
00C000
01F000
03F800
073C00
0E1E00
1C0F00
3803C0
7001E0
E000F0
40007C
00001E
00000F
000006
ENDCHAR
ENDFONT
